<svg width="1060" height="964" viewBox="0 0 1060 964" fill="none" xmlns="http://www.w3.org/2000/svg">
	<g>
		<path d="M780.796 474.179L948.042 457.657C948.347 457.625 948.619 457.849 948.645 458.153C948.677 458.458 948.453 458.73 948.149 458.756L780.796 474.179Z" fill="#054B81"/>
		<path d="M766.649 585.025L925.518 642.244C925.806 642.345 925.955 642.666 925.848 642.954C925.747 643.242 925.427 643.391 925.139 643.284L766.649 585.025Z" fill="#054B81"/>
		<path d="M648.065 274.745L727.539 125.297C727.683 125.025 728.019 124.923 728.286 125.067C728.558 125.211 728.66 125.547 728.516 125.814L648.07 274.745H648.065Z" fill="#0F2C43"/>
		<path d="M572.31 748.04L602.45 915.792C602.503 916.091 602.306 916.379 602.002 916.432C601.703 916.485 601.415 916.288 601.361 915.984L572.31 748.035V748.04Z" fill="#0F2C43"/>
		<path d="M274.691 506.33L103.491 512.315C103.187 512.326 102.931 512.086 102.92 511.782C102.909 511.478 103.149 511.222 103.453 511.211L274.691 506.33Z" fill="#054B81"/>
		<path d="M430.241 264.37L362.336 103.735C362.218 103.452 362.346 103.127 362.629 103.009C362.912 102.892 363.237 103.02 363.355 103.303L430.241 264.364V264.37Z" fill="#056BB9"/>
		<path d="M711.861 323.279L839.015 201.314C839.234 201.101 839.586 201.112 839.8 201.33C840.013 201.549 840.003 201.901 839.784 202.115L711.866 323.279H711.861Z" fill="#054B81"/>
		<path d="M344.651 323.28L216.728 202.11C216.504 201.902 216.499 201.55 216.707 201.331C216.915 201.107 217.267 201.102 217.491 201.31L344.651 323.285V323.28Z" fill="#0975C7"/>
		<path d="M781.431 482.203L959.521 470.333C959.825 470.312 960.087 470.541 960.108 470.846C960.129 471.15 959.9 471.411 959.59 471.432L781.431 482.198V482.203Z" fill="#054B81"/>
		<path d="M275.711 474.178L96.5429 457.63C96.2387 457.603 96.0146 457.331 96.0413 457.027C96.068 456.723 96.3401 456.499 96.6443 456.526L275.705 474.172L275.711 474.178Z" fill="#054B81"/>
		<path d="M274.563 498.286L94.5044 498.841C94.2002 498.841 93.9494 498.595 93.9494 498.291C93.9494 497.987 94.1949 497.736 94.4991 497.736L274.558 498.291L274.563 498.286Z" fill="#054B81"/>
		<path d="M381.098 291.704L275.844 144.896C275.668 144.646 275.721 144.304 275.972 144.123C276.223 143.947 276.565 144 276.746 144.251L381.098 291.704Z" fill="#054B81"/>
		<path d="M611.228 258.629L670.088 86.9301C670.189 86.6421 670.499 86.4874 670.792 86.5887C671.081 86.6901 671.235 86.9995 671.134 87.2929L611.228 258.634V258.629Z" fill="#175C92"/>
		<path d="M276.602 530.389L95.9132 554C95.609 554.037 95.3315 553.823 95.2942 553.525C95.2568 553.221 95.4703 552.943 95.7691 552.906L276.602 530.394V530.389Z" fill="#054B81"/>
		<path d="M333.914 335.272L190.495 215.687C190.26 215.489 190.228 215.143 190.425 214.908C190.623 214.673 190.97 214.641 191.204 214.839L333.914 335.272Z" fill="#0975C7"/>
		<path d="M717.32 667.381L859.827 794.093C860.057 794.296 860.078 794.648 859.875 794.872C859.672 795.101 859.32 795.123 859.096 794.92L717.325 667.381H717.32Z" fill="#054B81"/>
		<path d="M500.136 750.328L479.5 940.261C479.468 940.565 479.196 940.783 478.892 940.751C478.588 940.719 478.369 940.447 478.401 940.143L500.131 750.328H500.136Z" fill="#52AAEE"/>
		<path d="M452.925 740.455L395.907 925.629C395.816 925.923 395.506 926.083 395.213 925.997C394.919 925.907 394.759 925.597 394.845 925.309L452.92 740.46L452.925 740.455Z" fill="#006CBF"/>
		<path d="M778.763 538.354L972.072 568.718C972.376 568.766 972.579 569.049 972.531 569.347C972.483 569.652 972.2 569.854 971.901 569.806L778.768 538.354H778.763Z" fill="#34556F"/>
		<path d="M323.962 347.919L165.697 232.116C165.451 231.934 165.398 231.588 165.579 231.342C165.761 231.097 166.107 231.044 166.353 231.225L323.967 347.924L323.962 347.919Z" fill="#054B81"/>
		<path d="M775.71 554.16L973.315 598.208C973.614 598.272 973.801 598.571 973.737 598.869C973.673 599.168 973.374 599.355 973.075 599.291L775.716 554.165L775.71 554.16Z" fill="#054B81"/>
		<path d="M781.82 490.242L985.487 483.227C985.792 483.216 986.048 483.456 986.058 483.76C986.069 484.064 985.829 484.32 985.525 484.331L781.826 490.242H781.82Z" fill="#054B81"/>
		<path d="M727.667 341.519L888.697 214.22C888.937 214.033 889.284 214.07 889.476 214.311C889.668 214.551 889.625 214.897 889.385 215.089L727.673 341.519H727.667Z" fill="#054B81"/>
		<path d="M437.717 735.195L361.562 936.015C361.455 936.303 361.135 936.442 360.847 936.335C360.564 936.229 360.42 935.908 360.527 935.62L437.717 735.189V735.195Z" fill="#2594EA"/>
		<path d="M564.359 247.261L594.846 31.392C594.888 31.0879 595.166 30.8799 595.47 30.9225C595.774 30.9652 595.982 31.2426 595.939 31.5467L564.354 247.261H564.359Z" fill="#175C92"/>
		<path d="M430.241 732.201L345.19 936.612C345.073 936.894 344.747 937.028 344.47 936.91C344.187 936.793 344.053 936.468 344.171 936.19L430.241 732.201Z" fill="#056BB9"/>
		<path d="M275.076 482.203L47.5392 468.301C47.2351 468.28 47.0003 468.018 47.0216 467.714C47.0376 467.41 47.3044 467.175 47.6086 467.197L275.076 482.203Z" fill="#054B81"/>
		<path d="M319.293 642.096L131.379 772.094C131.128 772.27 130.781 772.206 130.61 771.955C130.434 771.705 130.498 771.358 130.749 771.187L319.293 642.096Z" fill="#0975C7"/>
		<path d="M284.841 569.736L65.2292 634.776C64.9357 634.861 64.6262 634.696 64.5408 634.402C64.4554 634.109 64.6209 633.799 64.9144 633.714L284.841 569.736Z" fill="#054B81"/>
		<path d="M394.503 282.789L272.408 87.1276C272.247 86.8662 272.327 86.5302 272.584 86.3648C272.845 86.2048 273.181 86.2848 273.347 86.5408L394.498 282.789H394.503Z" fill="#054B81"/>
		<path d="M556.37 246.242L581.905 12.321C581.937 12.017 582.209 11.7982 582.513 11.8303C582.817 11.8623 583.036 12.1343 583.004 12.4384L556.37 246.237V246.242Z" fill="#78BDF2"/>
		<path d="M484.202 748.041L443.779 980.394C443.726 980.693 443.443 980.896 443.139 980.842C442.84 980.789 442.637 980.506 442.69 980.202L484.202 748.041Z" fill="#3FA1EC"/>
		<path d="M339.187 329.19L152.697 163.141C152.468 162.938 152.446 162.586 152.655 162.362C152.857 162.132 153.21 162.116 153.434 162.319L339.187 329.196V329.19Z" fill="#054B81"/>
		<path d="M778.763 458.218L1026.1 418.091C1026.4 418.043 1026.69 418.246 1026.74 418.55C1026.79 418.849 1026.58 419.137 1026.28 419.185L778.763 458.218Z" fill="#34556F"/>
		<path d="M276.602 466.182L26.2579 434.798C25.9537 434.761 25.7403 434.484 25.7776 434.18C25.815 433.876 26.0925 433.662 26.3966 433.7L276.602 466.176V466.182Z" fill="#054B81"/>
		<path d="M603.576 256.117L678.061 14.7914C678.151 14.498 678.461 14.338 678.754 14.4287C679.048 14.5194 679.208 14.8288 679.117 15.1222L603.576 256.123V256.117Z" fill="#0F2C43"/>
		<path d="M688.216 695.121L851.486 895.141C851.679 895.376 851.647 895.728 851.406 895.92C851.172 896.112 850.819 896.08 850.627 895.84L688.216 695.121Z" fill="#00457A"/>
		<path d="M500.136 246.242L470.706 -12.5757C470.674 -12.8798 470.888 -13.1519 471.192 -13.1892C471.496 -13.2212 471.768 -13.0078 471.805 -12.7038L500.136 246.242Z" fill="#52AAEE"/>
		<path d="M749.946 374.983L977.611 247.721C977.878 247.571 978.214 247.667 978.363 247.934C978.513 248.201 978.417 248.537 978.15 248.686L749.946 374.983Z" fill="#34556F"/>
		<path d="M279.147 450.29L14.6673 399.894C14.3685 399.835 14.1711 399.547 14.2298 399.249C14.2885 398.95 14.5766 398.752 14.8755 398.811L279.147 450.29Z" fill="#054B81"/>
		<path d="M662.009 713.781L809.639 950.599C809.799 950.861 809.719 951.197 809.463 951.362C809.201 951.522 808.865 951.442 808.7 951.186L662.009 713.781Z" fill="#3FA1EC"/>
		<path d="M314.837 635.395L64.3487 796.974C64.0926 797.139 63.7511 797.064 63.5856 796.808C63.4202 796.552 63.4949 796.211 63.751 796.045L314.837 635.395Z" fill="#0975C7"/>
		<path d="M374.615 700.098L171.807 967.403C171.62 967.648 171.273 967.696 171.033 967.51C170.787 967.323 170.739 966.976 170.926 966.736L374.615 700.098Z" fill="#3FA1EC"/>





		<path d="M103.469 508.832C105.092 508.832 106.404 510.144 106.404 511.766C106.404 513.388 105.092 514.7 103.469 514.7C101.847 514.7 100.534 513.388 100.534 511.766C100.534 510.144 101.847 508.832 103.469 508.832Z" fill="#054B81"/>
		<path d="M362.848 99.8721C364.865 99.8721 366.498 101.504 366.498 103.521C366.498 105.537 364.865 107.17 362.848 107.17C360.831 107.17 359.198 105.537 359.198 103.521C359.198 101.504 360.831 99.8721 362.848 99.8721Z" fill="#056BB9"/>
		<path d="M839.394 198.652C841.086 198.652 842.452 200.023 842.452 201.709C842.452 203.395 841.08 204.766 839.394 204.766C837.708 204.766 836.336 203.395 836.336 201.709C836.336 200.023 837.708 198.652 839.394 198.652Z" fill="#054B81"/>
		<path d="M217.107 199.4C218.382 199.4 219.418 200.435 219.418 201.71C219.418 202.985 218.382 204.02 217.107 204.02C215.832 204.02 214.796 202.985 214.796 201.71C214.796 200.435 215.832 199.4 217.107 199.4Z" fill="#0975C7"/>
		<path d="M959.558 467.707C961.314 467.707 962.733 469.131 962.733 470.881C962.733 472.631 961.308 474.055 959.558 474.055C957.808 474.055 956.383 472.631 956.383 470.881C956.383 469.131 957.808 467.707 959.558 467.707Z" fill="#054B81"/>
		<path d="M96.5963 453.684C98.4747 453.684 99.9955 455.204 99.9955 457.082C99.9955 458.96 98.4747 460.48 96.5963 460.48C94.7179 460.48 93.197 458.96 93.197 457.082C93.197 455.204 94.7179 453.684 96.5963 453.684Z" fill="#054B81"/>
		<path d="M94.5044 494.215C96.7563 494.215 98.576 496.039 98.576 498.285C98.576 500.531 96.751 502.355 94.5044 502.355C92.2578 502.355 90.4328 500.531 90.4328 498.285C90.4328 496.039 92.2578 494.215 94.5044 494.215Z" fill="#054B81"/>
		<path d="M276.298 141.312C278.101 141.312 279.564 142.773 279.564 144.576C279.564 146.379 278.101 147.841 276.298 147.841C274.494 147.841 273.032 146.379 273.032 144.576C273.032 142.773 274.494 141.312 276.298 141.312Z" fill="#054B81"/>
		<path d="M670.611 84.2637C672.185 84.2637 673.455 85.5386 673.455 87.107C673.455 88.6754 672.18 89.9503 670.611 89.9503C669.042 89.9503 667.767 88.6754 667.767 87.107C667.767 85.5386 669.042 84.2637 670.611 84.2637Z" fill="#175C92"/>
		<path d="M95.8438 556.593C97.5797 556.593 98.9869 555.186 98.9869 553.451C98.9869 551.715 97.5797 550.309 95.8438 550.309C94.1079 550.309 92.7007 551.715 92.7007 553.451C92.7007 555.186 94.1079 556.593 95.8438 556.593Z" fill="#054B81"/>
		<path d="M190.852 212.096C192.602 212.096 194.022 213.515 194.022 215.264C194.022 217.014 192.602 218.433 190.852 218.433C189.102 218.433 187.682 217.014 187.682 215.264C187.682 213.515 189.102 212.096 190.852 212.096Z" fill="#0975C7"/>
		<path d="M859.459 791.367C861.193 791.367 862.602 792.776 862.602 794.509C862.602 796.243 861.193 797.651 859.459 797.651C857.725 797.651 856.316 796.243 856.316 794.509C856.316 792.776 857.725 791.367 859.459 791.367Z" fill="#054B81"/>
		<path d="M478.951 942.832C480.404 942.832 481.582 941.655 481.582 940.202C481.582 938.75 480.404 937.572 478.951 937.572C477.498 937.572 476.32 938.75 476.32 940.202C476.32 941.655 477.498 942.832 478.951 942.832Z" fill="#52AAEE"/>
		<path d="M395.378 921.719C397.449 921.719 399.13 923.399 399.13 925.469C399.13 927.539 397.449 929.219 395.378 929.219C393.308 929.219 391.627 927.539 391.627 925.469C391.627 923.399 393.308 921.719 395.378 921.719Z" fill="#006CBF"/>
		<path d="M975.735 570.125C976.229 568.034 974.934 565.94 972.843 565.447C970.752 564.953 968.656 566.248 968.163 568.338C967.669 570.428 968.964 572.523 971.055 573.016C973.146 573.51 975.242 572.215 975.735 570.125Z" fill="#34556F"/>
		<path d="M166.022 235.179C167.961 235.179 169.533 233.607 169.533 231.668C169.533 229.73 167.961 228.158 166.022 228.158C164.083 228.158 162.511 229.73 162.511 231.668C162.511 233.607 164.083 235.179 166.022 235.179Z" fill="#054B81"/>
		<path d="M973.192 601.499C974.713 601.499 975.946 600.267 975.946 598.747C975.946 597.226 974.713 595.994 973.192 595.994C971.672 595.994 970.439 597.226 970.439 598.747C970.439 600.267 971.672 601.499 973.192 601.499Z" fill="#054B81"/>
		<path d="M985.503 479.652C987.782 479.652 989.628 481.498 989.628 483.776C989.628 486.054 987.782 487.9 985.503 487.9C983.225 487.9 981.378 486.054 981.378 483.776C981.378 481.498 983.225 479.652 985.503 479.652Z" fill="#054B81"/>
		<path d="M948.096 454.041C950.401 454.041 952.269 455.908 952.269 458.213C952.269 460.517 950.401 462.384 948.096 462.384C945.79 462.384 943.923 460.517 943.923 458.213C943.923 455.908 945.79 454.041 948.096 454.041Z" fill="#054B81"/>
		<path d="M889.038 211.674C890.682 211.674 892.016 213.007 892.016 214.651C892.016 216.294 890.682 217.627 889.038 217.627C887.395 217.627 886.061 216.294 886.061 214.651C886.061 213.007 887.395 211.674 889.038 211.674Z" fill="#054B81"/>
		<path d="M361.044 933.514C362.314 933.514 363.35 934.543 363.35 935.818C363.35 937.093 362.32 938.123 361.044 938.123C359.769 938.123 358.739 937.093 358.739 935.818C358.739 934.543 359.769 933.514 361.044 933.514Z" fill="#2594EA"/>
		<path d="M595.395 28.4531C597.065 28.4531 598.416 29.8028 598.416 31.4725C598.416 33.1422 597.065 34.4919 595.395 34.4919C593.725 34.4919 592.375 33.1422 592.375 31.4725C592.375 29.8028 593.725 28.4531 595.395 28.4531Z" fill="#175C92"/>
		<path d="M344.683 932.92C346.604 932.92 348.162 934.478 348.162 936.398C348.162 938.319 346.604 939.876 344.683 939.876C342.762 939.876 341.204 938.319 341.204 936.398C341.204 934.478 342.762 932.92 344.683 932.92Z" fill="#056BB9"/>
		<path d="M49.679 468.132C49.8689 466.969 49.0797 465.872 47.9162 465.683C46.7527 465.493 45.6556 466.282 45.4657 467.445C45.2758 468.608 46.065 469.705 47.2285 469.895C48.392 470.084 49.4891 469.295 49.679 468.132Z" fill="#054B81"/>
		<path d="M131.064 768.178C132.974 768.178 134.527 769.725 134.527 771.64C134.527 773.555 132.979 775.102 131.064 775.102C129.148 775.102 127.6 773.555 127.6 771.64C127.6 769.725 129.148 768.178 131.064 768.178Z" fill="#0975C7"/>
		<path d="M65.0691 631.777C66.4299 631.777 67.5345 632.882 67.5345 634.242C67.5345 635.602 66.4299 636.706 65.0691 636.706C63.7084 636.706 62.6037 635.602 62.6037 634.242C62.6037 632.882 63.7084 631.777 65.0691 631.777Z" fill="#054B81"/>
		<path d="M272.877 83.3457C274.804 83.3457 276.367 84.9087 276.367 86.8345C276.367 88.7603 274.804 90.3233 272.877 90.3233C270.951 90.3233 269.387 88.7603 269.387 86.8345C269.387 84.9087 270.951 83.3457 272.877 83.3457Z" fill="#054B81"/>
		<path d="M582.46 9.85156C583.858 9.85156 584.989 10.9825 584.989 12.3802C584.989 13.7778 583.858 14.9087 582.46 14.9087C581.062 14.9087 579.925 13.7778 579.925 12.3802C579.925 10.9825 581.056 9.85156 582.46 9.85156Z" fill="#78BDF2"/>
		<path d="M153.065 160.335C154.384 160.335 155.456 161.402 155.456 162.725C155.456 164.048 154.389 165.115 153.065 165.115C151.742 165.115 150.675 164.048 150.675 162.725C150.675 161.402 151.742 160.335 153.065 160.335Z" fill="#054B81"/>
		<path d="M1026.19 414.768C1028.33 414.768 1030.06 416.501 1030.06 418.64C1030.06 420.78 1028.33 422.513 1026.19 422.513C1024.05 422.513 1022.31 420.78 1022.31 418.64C1022.31 416.501 1024.05 414.768 1026.19 414.768Z" fill="#34556F"/>
		<path d="M26.3272 432.127C27.5012 432.127 28.4511 433.077 28.4511 434.255C28.4511 435.434 27.5012 436.379 26.3272 436.379C25.1532 436.379 24.2034 435.429 24.2034 434.255C24.2034 433.082 25.1532 432.127 26.3272 432.127Z" fill="#054B81"/>
		<path d="M678.589 18.6265C680.616 18.6265 682.26 16.9833 682.26 14.9563C682.26 12.9293 680.616 11.2861 678.589 11.2861C676.561 11.2861 674.917 12.9293 674.917 14.9563C674.917 16.9833 676.561 18.6265 678.589 18.6265Z" fill="#0F2C43"/>
		<path d="M851.06 892.602C852.655 892.602 853.946 893.893 853.946 895.488C853.946 897.083 852.655 898.374 851.06 898.374C849.464 898.374 848.173 897.083 848.173 895.488C848.173 893.893 849.464 892.602 851.06 892.602Z" fill="#00457A"/>
		<path d="M977.883 244.113C980.14 244.113 981.976 245.943 981.976 248.205C981.976 250.467 980.146 252.297 977.883 252.297C975.62 252.297 973.79 250.467 973.79 248.205C973.79 245.943 975.62 244.113 977.883 244.113Z" fill="#34556F"/>
		<path d="M14.7687 396.891C16.1295 396.891 17.2288 397.995 17.2288 399.35C17.2288 400.705 16.1241 401.809 14.7687 401.809C13.4133 401.809 12.3087 400.705 12.3087 399.35C12.3087 397.995 13.4133 396.891 14.7687 396.891Z" fill="#054B81"/>
		<path d="M809.174 948.033C810.754 948.033 812.035 949.313 812.035 950.893C812.035 952.472 810.754 953.752 809.174 953.752C807.595 953.752 806.314 952.472 806.314 950.893C806.314 949.313 807.595 948.033 809.174 948.033Z" fill="#3FA1EC"/>
		<path d="M64.0499 793.502C65.7148 793.502 67.0649 794.852 67.0649 796.516C67.0649 798.18 65.7148 799.53 64.0499 799.53C62.3849 799.53 61.0349 798.18 61.0349 796.516C61.0349 794.852 62.3849 793.502 64.0499 793.502Z" fill="#0975C7"/>
		<path d="M171.369 971.181C173.641 971.181 175.483 969.34 175.483 967.068C175.483 964.797 173.641 962.955 171.369 962.955C169.097 962.955 167.255 964.797 167.255 967.068C167.255 969.34 169.097 971.181 171.369 971.181Z" fill="#3FA1EC"/>
		<path d="M925.325 638.645C927.599 638.645 929.445 640.49 929.445 642.763C929.445 645.035 927.599 646.881 925.325 646.881C923.052 646.881 921.206 645.035 921.206 642.763C921.206 640.49 923.052 638.645 925.325 638.645Z" fill="#054B81"/>
		<path d="M728.025 122.934C729.476 122.934 730.65 124.107 730.65 125.558C730.65 127.009 729.476 128.183 728.025 128.183C726.573 128.183 725.399 127.009 725.399 125.558C725.399 124.107 726.573 122.934 728.025 122.934Z" fill="#0F2C43"/>
		<path d="M601.905 913.582C603.181 913.582 604.211 914.617 604.211 915.887C604.211 917.156 603.176 918.191 601.905 918.191C600.635 918.191 599.6 917.156 599.6 915.887C599.6 914.617 600.635 913.582 601.905 913.582Z" fill="#0F2C43"/>


	</g>
</svg>
