<svg width="23" height="23" viewBox="0 0 23 23" fill="none" xmlns="http://www.w3.org/2000/svg">
<circle cx="11.8965" cy="11.8967" r="7.13793" fill="black"/>
<path d="M21.0837 11.6003C21.0837 13.4958 20.5217 15.3487 19.4686 16.9248C18.4155 18.5008 16.9187 19.7292 15.1675 20.4546C13.4163 21.1799 11.4894 21.3697 9.63031 20.9999C7.77124 20.6301 6.06359 19.7174 4.72328 18.3771C3.38297 17.0368 2.4702 15.3291 2.10041 13.47C1.73062 11.611 1.92041 9.684 2.64578 7.9328C3.37115 6.1816 4.59952 4.68483 6.17556 3.63175C7.7516 2.57868 9.60452 2.0166 11.5 2.0166C12.7586 2.0166 14.0048 2.26449 15.1675 2.74612C16.3303 3.22775 17.3868 3.93368 18.2767 4.82361C19.1667 5.71355 19.8726 6.77005 20.3542 7.9328C20.8358 9.09555 21.0837 10.3418 21.0837 11.6003ZM16.3046 9.83902L15.387 7.47244C15.3135 7.29845 15.1916 7.14918 15.0359 7.04233C14.8801 6.93549 14.697 6.87554 14.5082 6.8696H8.53905C8.35005 6.87531 8.16666 6.93515 8.01066 7.04201C7.85466 7.14888 7.73261 7.29827 7.659 7.47244L6.74263 9.83902C6.37758 9.93908 6.05539 10.156 5.82538 10.4566C5.59538 10.7573 5.47025 11.125 5.46916 11.5035V13.9802C5.46948 14.0819 5.51001 14.1793 5.58191 14.2512C5.6538 14.3231 5.75122 14.3637 5.8529 14.364H6.45332V15.7524C6.45364 15.8286 6.48413 15.9016 6.53813 15.9554C6.59212 16.0092 6.66522 16.0393 6.74142 16.0393H7.82121C7.8972 16.039 7.96999 16.0087 8.02373 15.955C8.07746 15.9012 8.10779 15.8284 8.10811 15.7524V14.364H14.9403V15.7524C14.9406 15.8284 14.971 15.9012 15.0247 15.955C15.0784 16.0087 15.1512 16.039 15.2272 16.0393H16.307C16.3832 16.0393 16.4563 16.0092 16.5103 15.9554C16.5643 15.9016 16.5948 15.8286 16.5951 15.7524V14.364H17.1955C17.2972 14.3637 17.3946 14.3231 17.4665 14.2512C17.5384 14.1793 17.5789 14.0819 17.5793 13.9802V11.5035C17.5782 11.125 17.453 10.7573 17.223 10.4566C16.993 10.156 16.6708 9.93908 16.3058 9.83902H16.3046ZM7.29221 10.5436C7.10259 10.5436 6.91723 10.5998 6.75957 10.7051C6.6019 10.8105 6.47902 10.9602 6.40645 11.1354C6.33389 11.3106 6.3149 11.5034 6.3519 11.6893C6.38889 11.8753 6.4802 12.0461 6.61428 12.1802C6.74836 12.3143 6.91919 12.4056 7.10517 12.4426C7.29115 12.4796 7.48392 12.4606 7.65911 12.388C7.83429 12.3155 7.98403 12.1926 8.08937 12.0349C8.19472 11.8773 8.25095 11.6919 8.25095 11.5023C8.25095 11.248 8.14994 11.0042 7.97014 10.8244C7.79034 10.6446 7.54649 10.5436 7.29221 10.5436ZM14.507 7.63587C14.5414 7.6412 14.5741 7.6542 14.6028 7.67389C14.6315 7.69359 14.6554 7.71948 14.6728 7.74965L15.4596 9.7785H7.58637L8.37321 7.74965C8.39044 7.71962 8.41417 7.69382 8.44265 7.67413C8.47114 7.65445 8.50366 7.64137 8.53784 7.63587H14.5057H14.507ZM15.7659 10.5436C15.5763 10.5436 15.3909 10.5998 15.2333 10.7051C15.0756 10.8105 14.9527 10.9602 14.8801 11.1354C14.8076 11.3106 14.7886 11.5034 14.8256 11.6893C14.8626 11.8753 14.9539 12.0461 15.088 12.1802C15.222 12.3143 15.3929 12.4056 15.5789 12.4426C15.7648 12.4796 15.9576 12.4606 16.1328 12.388C16.308 12.3155 16.4577 12.1926 16.5631 12.0349C16.6684 11.8773 16.7246 11.6919 16.7246 11.5023C16.7246 11.2482 16.6238 11.0045 16.4443 10.8248C16.2647 10.645 16.02 10.5439 15.7659 10.5436Z" fill="#FFD600"/>
</svg>
