<svg width="23" height="23" viewBox="0 0 23 23" fill="none" xmlns="http://www.w3.org/2000/svg">
<path d="M10.7947 17.825C10.943 18.0541 11.2035 18.2068 11.5 18.2068C11.7965 18.2068 12.057 18.0541 12.2098 17.825L17.1602 10.1793C17.825 9.15059 18.2113 8.01855 18.2113 6.70684C18.2068 2.91543 15.2285 0 11.5 0C7.7715 0 4.79318 2.91543 4.79318 6.70684C4.79318 8.01855 5.1795 9.15059 5.84435 10.1793L10.7947 17.825ZM11.5 2.875C13.6158 2.875 15.3318 4.59102 15.3318 6.70684C15.3318 8.82266 13.6158 10.5387 11.5 10.5387C9.38419 10.5387 7.66818 8.82266 7.66818 6.70684C7.66818 4.59102 9.38419 2.875 11.5 2.875ZM16.4145 14.5322L11.5 21.0818L6.58556 14.5322C4.90548 15.4127 3.83185 16.7289 3.83185 18.2068C3.83185 20.8527 7.26388 23 11.5 23C15.7361 23 19.1682 20.8527 19.1682 18.2068C19.1682 16.7289 18.0945 15.4127 16.4145 14.5322Z" fill="#95FC7B"/>
</svg>
