<svg width="18" height="18" viewBox="0 0 18 18" fill="none" xmlns="http://www.w3.org/2000/svg">
<rect width="18" height="18" rx="9" fill="#752E6E"/>
<g clip-path="url(#clip0_1205_8060)">
<path d="M12.2934 7.445H10.4304V5.27025C10.4302 4.3476 9.68289 3.6003 8.76024 3.6001H6.15665C5.23401 3.6003 4.4867 4.3476 4.48648 5.27025V13.9501H5.23461V5.27025C5.23481 5.01453 5.3373 4.78639 5.50474 4.61834C5.67281 4.45088 5.90093 4.34841 6.15665 4.34819H8.76024C9.01596 4.34839 9.2441 4.45088 9.41215 4.61834C9.57959 4.78639 9.68208 5.01453 9.68228 5.27025V13.9501H10.4304V8.19311H12.2934C12.5491 8.19331 12.7773 8.2958 12.9453 8.46326C13.1128 8.63131 13.2152 8.85945 13.2155 9.11517V13.9501H13.9636V9.11515C13.9633 8.19251 13.216 7.4452 12.2934 7.445Z" fill="white"/>
<path d="M6.94335 6.26025H6.30035V7.35137H6.94335V6.26025Z" fill="white"/>
<path d="M8.53334 6.26025H7.89035V7.35137H8.53334V6.26025Z" fill="white"/>
<path d="M6.94335 8.75439H6.30035V9.84551H6.94335V8.75439Z" fill="white"/>
<path d="M8.53334 8.75439H7.89035V9.84551H8.53334V8.75439Z" fill="white"/>
<path d="M6.94335 11.248H6.30035V12.3392H6.94335V11.248Z" fill="white"/>
<path d="M8.53334 11.248H7.89035V12.3392H8.53334V11.248Z" fill="white"/>
<path d="M12.0405 9.45557H11.3975V10.5467H12.0405V9.45557Z" fill="white"/>
<path d="M12.0405 11.8457H11.3975V12.9368H12.0405V11.8457Z" fill="white"/>
</g>
<defs>
<clipPath id="clip0_1205_8060">
<rect width="10.35" height="10.35" fill="white" transform="translate(4.05002 3.6001)"/>
</clipPath>
</defs>
</svg>
