<svg width="19" height="19" viewBox="0 0 19 19" fill="none" xmlns="http://www.w3.org/2000/svg">
<rect width="19" height="19" rx="9.5" fill="#88603C"/>
<path d="M5.90909 13.0903V7.04059C5.90906 6.94721 5.93775 6.8561 5.99126 6.7796C6.04477 6.70311 6.1205 6.64495 6.20818 6.61301L10.6041 5.01371C10.6384 5.00121 10.6753 4.99717 10.7115 5.00195C10.7477 5.00672 10.7823 5.02017 10.8122 5.04115C10.8421 5.06213 10.8666 5.09002 10.8834 5.12246C10.9003 5.1549 10.9091 5.19093 10.9091 5.2275V7.48044L13.78 8.43793C13.8705 8.46811 13.9493 8.52604 14.0051 8.60352C14.0609 8.681 14.0909 8.77409 14.0909 8.86959V13.0903H15V14H5V13.0903H5.90909ZM6.81818 13.0903H10V6.20136L6.81818 7.35945V13.0903ZM13.1818 13.0903V9.19755L10.9091 8.43929V13.0903H13.1818Z" fill="white"/>
</svg>
