<svg width="19" height="19" viewBox="0 0 19 19" fill="none" xmlns="http://www.w3.org/2000/svg">
<rect width="19" height="19" rx="9.5" fill="#988645"/>
<path d="M2.85004 7.59961H16.625L16.0782 6.17461H3.45992L2.85004 7.59961Z" fill="white"/>
<path d="M3.32498 8.07471H16.15L15.6409 10.9247H3.89281L3.32498 8.07471Z" fill="white"/>
<rect x="7.05618" y="8.77539" width="5.57092" height="1.20815" fill="#988645"/>
<path d="M8.57753 11.3645C8.57753 11.6186 8.52747 11.8703 8.43022 12.1051C8.33296 12.3399 8.19041 12.5532 8.0107 12.7329C7.83099 12.9126 7.61765 13.0552 7.38285 13.1524C7.14805 13.2497 6.89639 13.2998 6.64225 13.2998C6.38811 13.2998 6.13645 13.2497 5.90165 13.1524C5.66685 13.0552 5.45351 12.9126 5.2738 12.7329C5.09409 12.5532 4.95154 12.3399 4.85428 12.1051C4.75703 11.8703 4.70697 11.6186 4.70697 11.3645L6.64225 11.3645H8.57753Z" fill="white"/>
<circle cx="7.11209" cy="12.4162" r="0.45865" fill="#988645"/>
<circle cx="6.41252" cy="12.1125" r="0.2375" fill="#988645"/>
</svg>
