<svg width="16" height="15" viewBox="0 0 16 15" fill="none" xmlns="http://www.w3.org/2000/svg">
<ellipse cx="7.875" cy="8.25" rx="3.375" ry="4.5" fill="white"/>
<path fill-rule="evenodd" clip-rule="evenodd" d="M7.05529 8.28923C7.05529 8.75253 7.42234 9.12808 7.87515 9.12808C8.32796 9.12808 8.69501 8.75253 8.69501 8.28923V5.7727C8.69501 5.30942 8.32796 4.93385 7.87515 4.93385C7.42234 4.93385 7.05529 5.30942 7.05529 5.7727V8.28923ZM8.69501 10.7964C8.69501 10.3331 8.32796 9.95753 7.87515 9.95753C7.42234 9.95753 7.05529 10.3331 7.05529 10.7964V10.8058C7.05529 11.2691 7.42234 11.6446 7.87515 11.6446C8.32796 11.6446 8.69501 11.2691 8.69501 10.8058V10.7964ZM5.72494 1.2944C6.66209 -0.431467 9.08797 -0.431467 10.0251 1.2944L15.437 11.2613C16.3477 12.9387 15.1622 15 13.2869 15H2.46313C0.587727 15 -0.597711 12.9387 0.313057 11.2613L5.72494 1.2944Z" fill="#E71D36"/>
</svg>
