<svg width="1060" height="964" viewBox="0 0 1060 964" fill="none" xmlns="http://www.w3.org/2000/svg">
	<g>
		<!-- 比较短的动画 -->
		<path d="M413.682 746.205C415.272 746.205 416.558 747.491 416.558 749.08C416.558 750.67 415.272 751.956 413.682 751.956C412.092 751.956 410.806 750.67 410.806 749.08C410.806 747.491 412.092 746.205 413.682 746.205Z" fill="#2293EA"/>
		<path d="M798.272 415.787C800.06 415.787 801.511 417.238 801.511 419.025C801.511 420.812 800.06 422.263 798.272 422.263C796.485 422.263 795.033 420.812 795.033 419.025C795.033 417.238 796.485 415.787 798.272 415.787Z" fill="#2C98EB"/>
		<path d="M784.814 372.629C786.789 372.629 788.384 374.229 788.384 376.198C788.384 378.166 786.783 379.767 784.814 379.767C782.845 379.767 781.244 378.166 781.244 376.198C781.244 374.229 782.845 372.629 784.814 372.629Z" fill="#2C98EB"/>
		<path d="M242.071 517.244C242.346 515.01 240.758 512.976 238.523 512.701C236.288 512.426 234.253 514.014 233.978 516.248C233.703 518.482 235.292 520.516 237.526 520.791C239.761 521.066 241.796 519.478 242.071 517.244Z" fill="#2C98EB"/>
		<path d="M335.99 274.377C337.148 274.377 338.087 275.316 338.087 276.473C338.087 277.631 337.148 278.57 335.99 278.57C334.832 278.57 333.893 277.631 333.893 276.473C333.893 275.316 334.832 274.377 335.99 274.377Z" fill="#4DA8EE"/>
		<path d="M321.123 284.785C322.852 284.785 324.25 286.183 324.25 287.911C324.25 289.64 322.852 291.037 321.123 291.037C319.394 291.037 317.996 289.64 317.996 287.911C317.996 286.183 319.394 284.785 321.123 284.785Z" fill="#5BAFEF"/>
		<path d="M708.606 731.199C710.804 731.199 712.587 732.981 712.587 735.179C712.587 737.377 710.804 739.158 708.606 739.158C706.407 739.158 704.625 737.377 704.625 735.179C704.625 732.981 706.407 731.199 708.606 731.199Z" fill="#2594EA"/>
		<path d="M826.021 504.191C827.98 504.191 829.565 505.776 829.565 507.734C829.565 509.691 827.98 511.276 826.021 511.276C824.063 511.276 822.478 509.691 822.478 507.734C822.478 505.776 824.063 504.191 826.021 504.191Z" fill="#2C98EB"/>
		<path d="M826.774 523.012C828.855 523.012 830.541 524.697 830.541 526.778C830.541 528.858 828.855 530.544 826.774 530.544C824.693 530.544 823.006 528.858 823.006 526.778C823.006 524.697 824.693 523.012 826.774 523.012Z" fill="#2C98EB"/>
		<path d="M617.819 783.648C619.254 783.648 620.417 784.811 620.417 786.246C620.417 787.681 619.254 788.844 617.819 788.844C616.383 788.844 615.22 787.681 615.22 786.246C615.22 784.811 616.383 783.648 617.819 783.648Z" fill="#84C3F3"/>
		<path d="M503.925 800.549C505.958 800.549 507.602 802.197 507.602 804.224C507.602 806.252 505.953 807.9 503.925 807.9C501.897 807.9 500.248 806.252 500.248 804.224C500.248 802.197 501.897 800.549 503.925 800.549Z" fill="#57ADEF"/>
		<path d="M239.461 610.264C241.446 610.264 243.058 611.875 243.058 613.859C243.058 615.844 241.446 617.455 239.461 617.455C237.476 617.455 235.864 615.844 235.864 613.859C235.864 611.875 237.476 610.264 239.461 610.264Z" fill="#128BE8"/>
		<path d="M249.568 639.098C251.121 639.098 252.38 640.357 252.38 641.909C252.38 643.461 251.121 644.72 249.568 644.72C248.015 644.72 246.756 643.461 246.756 641.909C246.756 640.357 248.015 639.098 249.568 639.098Z" fill="#389EEC"/>
		<path d="M337.26 243.986C339.149 243.986 340.681 245.517 340.681 247.406C340.681 249.294 339.149 250.825 337.26 250.825C335.371 250.825 333.84 249.294 333.84 247.406C333.84 245.517 335.371 243.986 337.26 243.986Z" fill="#3FA1EC"/>
		<path d="M838.311 434.688C840.446 434.688 842.175 436.416 842.175 438.55C842.175 440.684 840.446 442.412 838.311 442.412C836.176 442.412 834.448 440.684 834.448 438.55C834.448 436.416 836.176 434.688 838.311 434.688Z" fill="#6AB6F1"/>
		<path d="M843.781 535.938C845.222 535.938 846.385 537.106 846.385 538.541C846.385 539.976 845.216 541.144 843.781 541.144C842.345 541.144 841.177 539.976 841.177 538.541C841.177 537.106 842.345 535.938 843.781 535.938Z" fill="#2C98EB"/>
		<path d="M744.487 261.088C746.238 261.088 747.652 262.507 747.652 264.251C747.652 265.996 746.232 267.415 744.487 267.415C742.742 267.415 741.323 265.996 741.323 264.251C741.323 262.507 742.742 261.088 744.487 261.088Z" fill="#1B90E9"/>
		<path d="M414.269 203.005C415.916 203.005 417.252 201.67 417.252 200.023C417.252 198.376 415.916 197.041 414.269 197.041C412.621 197.041 411.286 198.376 411.286 200.023C411.286 201.67 412.621 203.005 414.269 203.005Z" fill="#2594EA"/>
		<path d="M386.056 208.975C387.438 208.975 388.553 210.095 388.553 211.471C388.553 212.848 387.432 213.968 386.056 213.968C384.679 213.968 383.558 212.848 383.558 211.471C383.558 210.095 384.679 208.975 386.056 208.975Z" fill="#2594EA"/>
		<path d="M276.431 298.115C277.642 298.115 278.63 299.097 278.63 300.313C278.63 301.529 277.648 302.511 276.431 302.511C275.214 302.511 274.233 301.529 274.233 300.313C274.233 299.097 275.214 298.115 276.431 298.115Z" fill="#65B4F0"/>
		<path d="M803.379 331.389C804.617 331.389 805.615 332.392 805.615 333.624C805.615 334.856 804.612 335.859 803.379 335.859C802.147 335.859 801.143 334.856 801.143 333.624C801.143 332.392 802.147 331.389 803.379 331.389Z" fill="#2C98EB"/>
		<path d="M380.198 215.178C380.374 213.049 378.79 211.181 376.661 211.005C374.532 210.829 372.662 212.411 372.486 214.54C372.31 216.669 373.893 218.537 376.023 218.713C378.152 218.89 380.021 217.307 380.198 215.178Z" fill="#2796EA"/>
		<path d="M789.243 302.539C791.255 302.539 792.888 304.171 792.888 306.183C792.888 308.194 791.255 309.826 789.243 309.826C787.231 309.826 785.599 308.194 785.599 306.183C785.599 304.171 787.231 302.539 789.243 302.539Z" fill="#2C98EB"/>
		<path d="M801.48 319.514C803.267 319.514 804.719 320.965 804.719 322.752C804.719 324.539 803.267 325.99 801.48 325.99C799.692 325.99 798.24 324.539 798.24 322.752C798.24 320.965 799.692 319.514 801.48 319.514Z" fill="#68B5F1"/>
		<path d="M843.06 414.518C844.229 414.518 845.179 415.467 845.179 416.635C845.179 417.804 844.229 418.753 843.06 418.753C841.892 418.753 840.942 417.804 840.942 416.635C840.942 415.467 841.892 414.518 843.06 414.518Z" fill="#6AB6F1"/>
		<path d="M207.064 443.121C209.156 443.121 210.853 444.818 210.853 446.909C210.853 449 209.156 450.696 207.064 450.696C204.972 450.696 203.275 449 203.275 446.909C203.275 444.818 204.972 443.121 207.064 443.121Z" fill="#2C98EB"/>
		<path d="M742.566 247.826C744.338 247.826 745.773 249.261 745.773 251.032C745.773 252.803 744.338 254.238 742.566 254.238C740.795 254.238 739.359 252.803 739.359 251.032C739.359 249.261 740.795 247.826 742.566 247.826Z" fill="#168DE9"/>
		<path d="M797.899 680.963C799.5 680.963 800.796 682.259 800.796 683.86C800.796 685.46 799.5 686.756 797.899 686.756C796.298 686.756 795.001 685.46 795.001 683.86C795.001 682.259 796.298 680.963 797.899 680.963Z" fill="#7CBFF2"/>
		<path d="M718.217 760.967C720.426 760.967 722.214 762.754 722.214 764.962C722.214 767.171 720.426 768.958 718.217 768.958C716.007 768.958 714.22 767.171 714.22 764.962C714.22 762.754 716.007 760.967 718.217 760.967Z" fill="#2997EA"/>
		<path d="M635.711 805.734C637.328 805.734 638.641 807.047 638.641 808.663C638.641 810.279 637.328 811.592 635.711 811.592C634.094 811.592 632.782 810.279 632.782 808.663C632.782 807.047 634.094 805.734 635.711 805.734Z" fill="#81C2F3"/>
		<path d="M780.764 283.42C782.45 283.42 783.816 284.786 783.816 286.471C783.816 288.157 782.45 289.523 780.764 289.523C779.078 289.523 777.711 288.157 777.711 286.471C777.711 284.786 779.078 283.42 780.764 283.42Z" fill="#2C98EB"/>
		<path d="M523.024 825.572C524.272 825.572 525.286 826.586 525.286 827.834C525.286 829.082 524.272 830.096 523.024 830.096C521.775 830.096 520.761 829.082 520.761 827.834C520.761 826.586 521.775 825.572 523.024 825.572Z" fill="#65B4F0"/>
		<path d="M674.997 198.439C677.127 198.439 678.856 200.168 678.856 202.296C678.856 204.425 677.127 206.153 674.997 206.153C672.868 206.153 671.139 204.425 671.139 202.296C671.139 200.168 672.868 198.439 674.997 198.439Z" fill="#67B5F0"/>
		<path d="M197.501 496.066C198.729 496.066 199.721 497.059 199.721 498.286C199.721 499.513 198.729 500.505 197.501 500.505C196.274 500.505 195.281 499.513 195.281 498.286C195.281 497.059 196.274 496.066 197.501 496.066Z" fill="#2C98EB"/>
		<path d="M362.837 209.668C364.054 209.668 365.041 210.655 365.041 211.871C365.041 213.087 364.054 214.074 362.837 214.074C361.621 214.074 360.633 213.087 360.633 211.871C360.633 210.655 361.621 209.668 362.837 209.668Z" fill="#2C98EB"/>
		<path d="M238.42 655.762C240.48 655.762 242.15 657.431 242.15 659.491C242.15 661.55 240.48 663.219 238.42 663.219C236.361 663.219 234.69 661.55 234.69 659.491C234.69 657.431 236.361 655.762 238.42 655.762Z" fill="#48A6ED"/>
		<path d="M343.354 218.145C344.635 218.145 345.67 219.179 345.67 220.46C345.67 221.74 344.635 222.775 343.354 222.775C342.074 222.775 341.038 221.74 341.038 220.46C341.038 219.179 342.074 218.145 343.354 218.145Z" fill="#339BEB"/>
		<path d="M246.548 314.846C247.908 314.846 249.013 315.95 249.013 317.31C249.013 318.671 247.908 319.775 246.548 319.775C245.187 319.775 244.082 318.671 244.082 317.31C244.082 315.95 245.187 314.846 246.548 314.846Z" fill="#5EB0EF"/>
		<path d="M852.548 579.947C853.904 579.947 855.003 581.046 855.003 582.401C855.003 583.756 853.904 584.855 852.548 584.855C851.193 584.855 850.094 583.756 850.094 582.401C850.094 581.046 851.193 579.947 852.548 579.947Z" fill="#6AB6F1"/>
		<path d="M418.453 811.996C420.347 811.996 421.884 813.532 421.884 815.426C421.884 817.32 420.347 818.856 418.453 818.856C416.558 818.856 415.021 817.32 415.021 815.426C415.021 813.532 416.558 811.996 418.453 811.996Z" fill="#2594EA"/>
		<path d="M342.159 780.726C343.718 780.726 344.982 779.463 344.982 777.904C344.982 776.346 343.718 775.082 342.159 775.082C340.6 775.082 339.336 776.346 339.336 777.904C339.336 779.463 340.6 780.726 342.159 780.726Z" fill="#339BEB"/>
		<path d="M862.074 452.861C863.643 452.861 864.913 454.131 864.913 455.699C864.913 457.268 863.643 458.537 862.074 458.537C860.505 458.537 859.235 457.268 859.235 455.699C859.235 454.131 860.505 452.861 862.074 452.861Z" fill="#2C98EB"/>
		<path d="M291.741 736.41C292.894 736.41 293.828 737.344 293.828 738.496C293.828 739.648 292.894 740.587 291.741 740.587C290.588 740.587 289.649 739.654 289.649 738.496C289.649 737.338 290.583 736.41 291.741 736.41Z" fill="#5BAFEF"/>
		<path d="M262.498 703.41C264.595 703.41 266.297 705.112 266.297 707.208C266.297 709.305 264.595 711.007 262.498 711.007C260.401 711.007 258.698 709.305 258.698 707.208C258.698 705.112 260.401 703.41 262.498 703.41Z" fill="#65B4F0"/>
		<path d="M275.519 721.592C277.029 721.592 278.251 722.813 278.251 724.323C278.251 725.833 277.029 727.054 275.519 727.054C274.008 727.054 272.786 725.833 272.786 724.323C272.786 722.813 274.008 721.592 275.519 721.592Z" fill="#62B3F0"/>
		<path d="M618.79 168.411C620.183 168.411 621.309 169.537 621.309 170.929C621.309 172.321 620.183 173.447 618.79 173.447C617.397 173.447 616.271 172.321 616.271 170.929C616.271 169.537 617.397 168.411 618.79 168.411Z" fill="#86C4F3"/>
		<path d="M267.738 714.15C269.206 714.15 270.401 715.34 270.401 716.812C270.401 718.285 269.211 719.474 267.738 719.474C266.265 719.474 265.075 718.285 265.075 716.812C265.075 715.34 266.265 714.15 267.738 714.15Z" fill="#65B4F0"/>
		<path d="M186.941 483.887C188.91 483.887 190.511 485.482 190.511 487.456C190.511 489.429 188.915 491.024 186.941 491.024C184.966 491.024 183.371 489.429 183.371 487.456C183.371 485.482 184.966 483.887 186.941 483.887Z" fill="#2C98EB"/>
		<path d="M296.522 745.42C298.55 745.42 300.194 747.063 300.194 749.09C300.194 751.117 298.55 752.76 296.522 752.76C294.495 752.76 292.851 751.117 292.851 749.09C292.851 747.063 294.495 745.42 296.522 745.42Z" fill="#57ADEF"/>
		<path d="M203.297 395.45C205.427 395.45 207.155 393.723 207.155 391.593C207.155 389.463 205.427 387.736 203.297 387.736C201.166 387.736 199.438 389.463 199.438 391.593C199.438 393.723 201.166 395.45 203.297 395.45Z" fill="#2293EA"/>
		<path d="M837.254 642.906C838.589 642.906 839.672 643.989 839.672 645.323C839.672 646.656 838.589 647.739 837.254 647.739C835.92 647.739 834.837 646.656 834.837 645.323C834.837 643.989 835.92 642.906 837.254 642.906Z" fill="#2C98EB"/>
		<path d="M670.52 184.036C672.089 184.036 673.365 185.311 673.365 186.879C673.365 188.448 672.089 189.723 670.52 189.723C668.951 189.723 667.676 188.448 667.676 186.879C667.676 185.311 668.951 184.036 670.52 184.036Z" fill="#75BCF2"/>
		<path d="M228.596 327.686C230.768 327.686 232.529 329.446 232.529 331.617C232.529 333.788 230.768 335.549 228.596 335.549C226.424 335.549 224.663 333.788 224.663 331.617C224.663 329.446 226.424 327.686 228.596 327.686Z" fill="#48A6ED"/>
		<path d="M279.617 733.162C280.791 733.162 281.741 734.112 281.741 735.285C281.741 736.459 280.791 737.408 279.617 737.408C278.443 737.408 277.493 736.459 277.493 735.285C277.493 734.112 278.443 733.162 279.617 733.162Z" fill="#5BAFEF"/>
		<path d="M847.852 366.98C849.731 366.98 851.252 368.501 851.252 370.379C851.252 372.256 849.731 373.777 847.852 373.777C845.974 373.777 844.453 372.256 844.453 370.379C844.453 368.501 845.974 366.98 847.852 366.98Z" fill="#2C98EB"/>
		<path d="M212.827 356.828C214.738 356.828 216.285 358.375 216.285 360.285C216.285 362.195 214.738 363.742 212.827 363.742C210.917 363.742 209.369 362.195 209.369 360.285C209.369 358.375 210.917 356.828 212.827 356.828Z" fill="#1B90E9"/>
		<path d="M375.063 803.766C377.005 803.766 378.585 805.339 378.585 807.286C378.585 809.234 377.011 810.807 375.063 810.807C373.115 810.807 371.541 809.234 371.541 807.286C371.541 805.339 373.115 803.766 375.063 803.766Z" fill="#2594EA"/>
		<path d="M556.501 846.134C558.689 845.618 560.045 843.426 559.528 841.238C559.011 839.05 556.819 837.695 554.63 838.211C552.441 838.728 551.086 840.92 551.603 843.108C552.119 845.296 554.312 846.651 556.501 846.134Z" fill="#75BCF2"/>
		<path d="M327.633 776.121C329.736 776.121 331.438 777.823 331.438 779.925C331.438 782.026 329.736 783.728 327.633 783.728C325.531 783.728 323.829 782.026 323.829 779.925C323.829 777.823 325.531 776.121 327.633 776.121Z" fill="#359DEB"/>
		<path d="M681.844 810.701C683.288 810.701 684.459 809.53 684.459 808.087C684.459 806.643 683.288 805.473 681.844 805.473C680.4 805.473 679.229 806.643 679.229 808.087C679.229 809.53 680.4 810.701 681.844 810.701Z" fill="#67B5F0"/>
		<path d="M860.862 592.568C862.709 592.568 864.208 594.067 864.208 595.913C864.208 597.759 862.709 599.258 860.862 599.258C859.016 599.258 857.517 597.759 857.517 595.913C857.517 594.067 859.016 592.568 860.862 592.568Z" fill="#2C98EB"/>
		<path d="M435.806 836.541C438.005 836.541 439.787 834.759 439.787 832.562C439.787 830.364 438.005 828.582 435.806 828.582C433.608 828.582 431.826 830.364 431.826 832.562C431.826 834.759 433.608 836.541 435.806 836.541Z" fill="#2E99EB"/>
		<path d="M435.769 161.316C437.183 161.316 438.331 162.463 438.331 163.877C438.331 165.291 437.183 166.438 435.769 166.438C434.355 166.438 433.208 165.291 433.208 163.877C433.208 162.463 434.355 161.316 435.769 161.316Z" fill="#2E99EB"/>
		<path d="M533.766 841.539C535.906 841.539 537.64 843.273 537.64 845.412C537.64 847.551 535.906 849.285 533.766 849.285C531.626 849.285 529.892 847.551 529.892 845.412C529.892 843.273 531.626 841.539 533.766 841.539Z" fill="#6AB6F1"/>
		<path d="M383.969 184.549C385.124 184.549 386.061 183.612 386.061 182.457C386.061 181.302 385.124 180.366 383.969 180.366C382.814 180.366 381.877 181.302 381.877 182.457C381.877 183.612 382.814 184.549 383.969 184.549Z" fill="#2293EA"/>
		<path d="M308.716 765.174C310.514 765.174 311.971 766.63 311.971 768.428C311.971 770.226 310.514 771.682 308.716 771.682C306.918 771.682 305.461 770.226 305.461 768.428C305.461 766.63 306.918 765.174 308.716 765.174Z" fill="#44A3ED"/>
		<path d="M808.934 702.531C810.231 702.531 811.282 703.582 811.282 704.878C811.282 706.175 810.231 707.226 808.934 707.226C807.638 707.226 806.586 706.175 806.586 704.878C806.586 703.582 807.638 702.531 808.934 702.531Z" fill="#2C98EB"/>
		<path d="M206.456 635.262C208.558 635.262 210.266 636.969 210.266 639.071C210.266 641.172 208.558 642.879 206.456 642.879C204.353 642.879 202.645 641.172 202.645 639.071C202.645 636.969 204.353 635.262 206.456 635.262Z" fill="#1B90E9"/>
		<path d="M774.824 745.213C776.762 745.213 778.331 746.781 778.331 748.718C778.331 750.654 776.762 752.223 774.824 752.223C772.887 752.223 771.319 750.654 771.319 748.718C771.319 746.781 772.887 745.213 774.824 745.213Z" fill="#2293EA"/>
		<path d="M879.235 518.35C880.468 518.35 881.471 519.347 881.471 520.585C881.471 521.822 880.473 522.82 879.235 522.82C877.997 522.82 877 521.822 877 520.585C877 519.347 877.997 518.35 879.235 518.35Z" fill="#2C98EB"/>
		<path d="M478.188 843.875C479.575 843.875 480.701 845.001 480.701 846.388C480.701 847.775 479.575 848.9 478.188 848.9C476.8 848.9 475.674 847.775 475.674 846.388C475.674 845.001 476.8 843.875 478.188 843.875Z" fill="#46A5ED"/>
		<path d="M213.676 332.721C215.575 332.721 217.118 334.262 217.118 336.162C217.118 338.061 215.575 339.602 213.676 339.602C211.776 339.602 210.234 338.061 210.234 336.162C210.234 334.262 211.776 332.721 213.676 332.721Z" fill="#389EEC"/>
		<path d="M826.011 687.369C827.233 687.369 828.225 688.361 828.225 689.583C828.225 690.805 827.233 691.797 826.011 691.797C824.789 691.797 823.796 690.805 823.796 689.583C823.796 688.361 824.789 687.369 826.011 687.369Z" fill="#68B5F1"/>
		<path d="M178.541 551.92C179.817 551.92 180.846 552.955 180.846 554.224C180.846 555.494 179.811 556.529 178.541 556.529C177.271 556.529 176.236 555.494 176.236 554.224C176.236 552.955 177.271 551.92 178.541 551.92Z" fill="#2C98EB"/>
		<path d="M612.21 148.7C614.211 148.7 615.839 150.322 615.839 152.328C615.839 154.334 614.216 155.955 612.21 155.955C610.204 155.955 608.581 154.334 608.581 152.328C608.581 150.322 610.204 148.7 612.21 148.7Z" fill="#84C3F3"/>
		<path d="M295.007 764.615C296.538 764.615 297.776 765.853 297.776 767.384C297.776 768.915 296.538 770.153 295.007 770.153C293.475 770.153 292.237 768.915 292.237 767.384C292.237 765.853 293.475 764.615 295.007 764.615Z" fill="#4DA8EE"/>
		<path d="M878.318 563.223C879.705 563.223 880.826 564.348 880.826 565.73C880.826 567.112 879.7 568.237 878.318 568.237C876.936 568.237 875.81 567.112 875.81 565.73C875.81 564.348 876.936 563.223 878.318 563.223Z" fill="#6AB6F1"/>
		<path d="M716.37 191.861C718.206 191.861 719.7 193.35 719.7 195.19C719.7 197.031 718.211 198.519 716.37 198.519C714.529 198.519 713.04 197.031 713.04 195.19C713.04 193.35 714.529 191.861 716.37 191.861Z" fill="#3FA1EC"/>
		<path d="M545.244 852.246C546.664 852.246 547.811 853.398 547.811 854.812C547.811 856.226 546.658 857.378 545.244 857.378C543.83 857.378 542.677 856.226 542.677 854.812C542.677 853.398 543.83 852.246 545.244 852.246Z" fill="#71BAF1"/>
		<path d="M863.792 373.713C865.163 373.713 866.279 374.828 866.279 376.199C866.279 377.57 865.163 378.685 863.792 378.685C862.421 378.685 861.305 377.57 861.305 376.199C861.305 374.828 862.421 373.713 863.792 373.713Z" fill="#2C98EB"/>
		<path d="M666.908 170.123C668.428 170.123 669.661 168.891 669.661 167.371C669.661 165.851 668.428 164.618 666.908 164.618C665.387 164.618 664.154 165.851 664.154 167.371C664.154 168.891 665.387 170.123 666.908 170.123Z" fill="#7ABEF2"/>
		<path d="M579.407 850.881C581.126 850.881 582.524 852.273 582.524 853.996C582.524 855.719 581.131 857.112 579.407 857.112C577.684 857.112 576.291 855.719 576.291 853.996C576.291 852.273 577.684 850.881 579.407 850.881Z" fill="#7CBFF2"/>
		<path d="M443.485 144.901C445.743 144.901 447.578 146.731 447.578 148.993C447.578 151.255 445.748 153.085 443.485 153.085C441.223 153.085 439.392 151.255 439.392 148.993C439.392 146.731 441.223 144.901 443.485 144.901Z" fill="#339BEB"/>
		<path d="M190.244 623.761C191.617 623.761 192.731 622.648 192.731 621.275C192.731 619.902 191.617 618.789 190.244 618.789C188.87 618.789 187.757 619.902 187.757 621.275C187.757 622.648 188.87 623.761 190.244 623.761Z" fill="#1B90E9"/>
		<path d="M848.082 329.43C850.307 329.43 852.111 331.233 852.111 333.457C852.111 335.682 850.307 337.485 848.082 337.485C845.857 337.485 844.053 335.682 844.053 333.457C844.053 331.233 845.857 329.43 848.082 329.43Z" fill="#2C98EB"/>
		<path d="M177.042 421.794C178.592 421.794 179.849 420.537 179.849 418.988C179.849 417.438 178.592 416.182 177.042 416.182C175.491 416.182 174.235 417.438 174.235 418.988C174.235 420.537 175.491 421.794 177.042 421.794Z" fill="#62B3F0"/>
		<path d="M511.081 855.965C512.564 855.965 513.765 857.165 513.765 858.648C513.765 860.131 512.564 861.331 511.081 861.331C509.597 861.331 508.397 860.131 508.397 858.648C508.397 857.165 509.597 855.965 511.081 855.965Z" fill="#5BAFEF"/>
		<path d="M737.796 201.672C739.151 201.672 740.256 202.771 740.256 204.131C740.256 205.491 739.156 206.59 737.796 206.59C736.435 206.59 735.336 205.491 735.336 204.131C735.336 202.771 736.435 201.672 737.796 201.672Z" fill="#2997EA"/>
		<path d="M199.625 651.9C201.151 651.9 202.384 653.138 202.384 654.658C202.384 656.179 201.146 657.416 199.625 657.416C198.104 657.416 196.866 656.179 196.866 654.658C196.866 653.138 198.104 651.9 199.625 651.9Z" fill="#2C98EB"/>
		<path d="M215.906 681.219C218.121 681.219 219.919 683.011 219.919 685.23C219.919 687.45 218.121 689.242 215.906 689.242C213.692 689.242 211.893 687.45 211.893 685.23C211.893 683.011 213.686 681.219 215.906 681.219Z" fill="#57ADEF"/>
		<path d="M792.386 747.604C793.742 747.604 794.836 748.702 794.836 750.052C794.836 751.402 793.736 752.501 792.386 752.501C791.036 752.501 789.937 751.402 789.937 750.052C789.937 748.702 791.036 747.604 792.386 747.604Z" fill="#2796EA"/>
		<path d="M226.942 288.391C228.34 288.391 229.471 289.522 229.471 290.919C229.471 292.317 228.34 293.448 226.942 293.448C225.544 293.448 224.412 292.317 224.412 290.919C224.412 289.522 225.544 288.391 226.942 288.391Z" fill="#65B4F0"/>
		<path d="M182.816 369.529C184.513 369.529 185.889 370.906 185.889 372.602C185.889 374.298 184.513 375.675 182.816 375.675C181.119 375.675 179.742 374.298 179.742 372.602C179.742 370.906 181.119 369.529 182.816 369.529Z" fill="#1B90E9"/>
		<path d="M167.02 564.307C169 564.307 170.601 565.907 170.601 567.886C170.601 569.865 168.994 571.466 167.02 571.466C165.046 571.466 163.439 569.86 163.439 567.886C163.439 565.912 165.04 564.307 167.02 564.307Z" fill="#2C98EB"/>
		<path d="M877.805 379.762C879.881 379.762 881.562 381.442 881.562 383.517C881.562 385.592 879.881 387.273 877.805 387.273C875.729 387.273 874.049 385.592 874.049 383.517C874.049 381.442 875.729 379.762 877.805 379.762Z" fill="#2C98EB"/>
		<path d="M418.768 143.274C420.427 143.274 421.777 144.619 421.777 146.283C421.777 147.948 420.432 149.292 418.768 149.292C417.103 149.292 415.758 147.948 415.758 146.283C415.758 144.619 417.103 143.274 418.768 143.274Z" fill="#2997EA"/>
		<path d="M569.306 864.047C570.539 864.047 571.536 865.044 571.536 866.277C571.536 867.509 570.539 868.507 569.306 868.507C568.073 868.507 567.075 867.509 567.075 866.277C567.075 865.044 568.073 864.047 569.306 864.047Z" fill="#78BDF2"/>
		<path d="M440.897 854.955C442.717 854.955 444.19 856.427 444.19 858.247C444.19 860.066 442.717 861.538 440.897 861.538C439.078 861.538 437.605 860.066 437.605 858.247C437.605 856.427 439.078 854.955 440.897 854.955Z" fill="#339BEB"/>
		<path d="M184.07 357.047C186.001 357.047 187.565 358.61 187.565 360.541C187.565 362.472 186.001 364.035 184.07 364.035C182.138 364.035 180.574 362.472 180.574 360.541C180.574 358.61 182.138 357.047 184.07 357.047Z" fill="#128BE8"/>
		<path d="M779.835 767.309C781.639 767.309 783.101 768.77 783.101 770.573C783.101 772.376 781.639 773.838 779.835 773.838C778.032 773.838 776.569 772.376 776.569 770.573C776.569 768.77 778.032 767.309 779.835 767.309Z" fill="#1B90E9"/>
		<path d="M406.835 143.749C408.954 143.749 410.667 145.467 410.667 147.579C410.667 149.692 408.949 151.409 406.835 151.409C404.722 151.409 403.004 149.692 403.004 147.579C403.004 145.467 404.722 143.749 406.835 143.749Z" fill="#2594EA"/>
		<path d="M848.269 687.184C849.725 687.184 850.905 688.363 850.905 689.819C850.905 691.275 849.725 692.454 848.269 692.454C846.812 692.454 845.632 691.275 845.632 689.819C845.632 688.363 846.812 687.184 848.269 687.184Z" fill="#2C98EB"/>
		<path d="M604.809 861.598C606.159 861.598 607.258 862.691 607.258 864.046C607.258 865.401 606.164 866.495 604.809 866.495C603.453 866.495 602.359 865.401 602.359 864.046C602.359 862.691 603.453 861.598 604.809 861.598Z" fill="#84C3F3"/>
		<path d="M172.794 612.023C174.432 612.023 175.761 613.352 175.761 614.989C175.761 616.627 174.432 617.955 172.794 617.955C171.156 617.955 169.827 616.627 169.827 614.989C169.827 613.352 171.156 612.023 172.794 612.023Z" fill="#2293EA"/>
		<path d="M451.469 861.49C453.486 861.49 455.119 863.123 455.119 865.139C455.119 867.156 453.486 868.788 451.469 868.788C449.451 868.788 447.819 867.156 447.819 865.139C447.819 863.123 449.451 861.49 451.469 861.49Z" fill="#389EEC"/>
		<path d="M510.222 117.332C511.599 117.332 512.719 118.447 512.719 119.829C512.719 121.21 511.604 122.325 510.222 122.325C508.84 122.325 507.724 121.21 507.724 119.829C507.724 118.447 508.84 117.332 510.222 117.332Z" fill="#5BAFEF"/>
		<path d="M629.398 860.076C631.565 860.076 633.326 861.831 633.326 864.002C633.326 866.174 631.57 867.929 629.398 867.929C627.227 867.929 625.471 866.174 625.471 864.002C625.471 861.831 627.227 860.076 629.398 860.076Z" fill="#86C4F3"/>
		<path d="M795.268 223.48C797.264 223.48 798.881 225.097 798.881 227.092C798.881 229.087 797.264 230.703 795.268 230.703C793.272 230.703 791.655 229.087 791.655 227.092C791.655 225.097 793.272 223.48 795.268 223.48Z" fill="#2293EA"/>
		<path d="M820.114 740.273C821.683 740.273 822.953 741.543 822.953 743.111C822.953 744.68 821.683 745.949 820.114 745.949C818.545 745.949 817.275 744.68 817.275 743.111C817.275 741.543 818.545 740.273 820.114 740.273Z" fill="#2C98EB"/>
		<path d="M769.104 199.422C770.486 199.422 771.612 200.542 771.612 201.929C771.612 203.316 770.491 204.436 769.104 204.436C767.716 204.436 766.596 203.316 766.596 201.929C766.596 200.542 767.716 199.422 769.104 199.422Z" fill="#1B90E9"/>
		<path d="M687.308 842.947C689.235 842.947 690.798 844.51 690.798 846.436C690.798 848.362 689.235 849.925 687.308 849.925C685.382 849.925 683.818 848.362 683.818 846.436C683.818 844.51 685.382 842.947 687.308 842.947Z" fill="#75BCF2"/>
		<path d="M912.801 495.117C914.551 495.117 915.971 496.536 915.971 498.286C915.971 500.036 914.551 501.455 912.801 501.455C911.051 501.455 909.631 500.036 909.631 498.286C909.631 496.536 911.051 495.117 912.801 495.117Z" fill="#2C98EB"/>
		<path d="M745.185 178.428C745.362 176.299 743.778 174.431 741.649 174.255C739.519 174.079 737.65 175.661 737.474 177.79C737.298 179.919 738.881 181.787 741.011 181.963C743.14 182.14 745.009 180.557 745.185 178.428Z" fill="#339BEB"/>
		<path d="M741.728 815.896C743.468 815.896 744.877 817.305 744.877 819.044C744.877 820.783 743.468 822.191 741.728 822.191C739.989 822.191 738.58 820.783 738.58 819.044C738.58 817.305 739.989 815.896 741.728 815.896Z" fill="#339BEB"/>
		<path d="M462.851 122.512C464.887 121.669 465.855 119.335 465.011 117.299C464.167 115.263 461.832 114.296 459.796 115.139C457.759 115.982 456.792 118.317 457.635 120.353C458.479 122.389 460.814 123.355 462.851 122.512Z" fill="#3FA1EC"/>
		<path d="M179.646 329.756C181.108 329.756 182.293 330.94 182.293 332.402C182.293 333.863 181.108 335.048 179.646 335.048C178.184 335.048 176.999 333.863 176.999 332.402C176.999 330.94 178.184 329.756 179.646 329.756Z" fill="#2C98EB"/>
		<path d="M220.887 728.431C221.416 726.188 220.027 723.942 217.784 723.412C215.541 722.883 213.293 724.272 212.764 726.514C212.235 728.756 213.624 731.003 215.867 731.532C218.11 732.062 220.357 730.673 220.887 728.431Z" fill="#62B3F0"/>
		<path d="M916.131 494.547C918.196 494.547 919.872 496.222 919.872 498.286C919.872 500.351 918.196 502.026 916.131 502.026C914.066 502.026 912.39 500.351 912.39 498.286C912.39 496.222 914.066 494.547 916.131 494.547Z" fill="#2C98EB"/>
		<path d="M522.09 106.412C524.048 106.412 525.633 107.996 525.633 109.954C525.633 111.912 524.048 113.496 522.09 113.496C520.131 113.496 518.546 111.912 518.546 109.954C518.546 107.996 520.137 106.412 522.09 106.412Z" fill="#65B4F0"/>
		<path d="M193.872 295.428C195.383 295.428 196.605 296.649 196.605 298.159C196.605 299.669 195.383 300.89 193.872 300.89C192.362 300.89 191.14 299.669 191.14 298.159C191.14 296.649 192.362 295.428 193.872 295.428Z" fill="#57ADEF"/>
		<path d="M497.367 106.412C499.288 106.412 500.846 107.97 500.846 109.89C500.846 111.811 499.288 113.368 497.367 113.368C495.445 113.368 493.887 111.811 493.887 109.89C493.887 107.97 495.445 106.412 497.367 106.412Z" fill="#57ADEF"/>
		<path d="M910.24 408.803C912.027 408.803 913.479 410.254 913.479 412.041C913.479 413.828 912.027 415.279 910.24 415.279C908.452 415.279 907.001 413.828 907.001 412.041C907.001 410.254 908.452 408.803 910.24 408.803Z" fill="#2C98EB"/>
		<path d="M900.864 617.391C902.651 617.391 904.097 618.836 904.097 620.623C904.097 622.41 902.651 623.856 900.864 623.856C899.076 623.856 897.63 622.41 897.63 620.623C897.63 618.836 899.076 617.391 900.864 617.391Z" fill="#2C98EB"/>
		<path d="M713.489 840.787C715.202 840.787 716.594 842.174 716.594 843.886C716.594 845.599 715.207 846.991 713.489 846.991C711.77 846.991 710.383 845.604 710.383 843.886C710.383 842.169 711.77 840.787 713.489 840.787Z" fill="#59AEEF"/>
		<path d="M724.412 156.51C725.591 156.51 726.547 157.465 726.547 158.644C726.547 159.823 725.591 160.777 724.412 160.777C723.233 160.777 722.278 159.823 722.278 158.644C722.278 157.465 723.233 156.51 724.412 156.51Z" fill="#4DA8EE"/>
		<path d="M147.905 593.631C149.736 593.631 151.219 595.114 151.219 596.944C151.219 598.773 149.736 600.256 147.905 600.256C146.075 600.256 144.591 598.773 144.591 596.944C144.591 595.114 146.075 593.631 147.905 593.631Z" fill="#2C98EB"/>
		<path d="M838.039 744.817C839.692 744.817 841.033 743.478 841.033 741.825C841.033 740.172 839.692 738.832 838.039 738.832C836.385 738.832 835.045 740.172 835.045 741.825C835.045 743.478 836.385 744.817 838.039 744.817Z" fill="#2C98EB"/>
		<path d="M330.947 836.477C332.847 836.477 334.389 838.018 334.389 839.917C334.389 841.817 332.847 843.358 330.947 843.358C329.047 843.358 327.505 841.817 327.505 839.917C327.505 838.018 329.047 836.477 330.947 836.477Z" fill="#2C98EB"/>
		<path d="M767.391 181.807C768.693 181.807 769.75 182.863 769.75 184.165C769.75 185.466 768.693 186.522 767.391 186.522C766.089 186.522 765.032 185.466 765.032 184.165C765.032 182.863 766.089 181.807 767.391 181.807Z" fill="#2594EA"/>
		<path d="M600.763 109.582C601.143 107.462 599.732 105.436 597.612 105.056C595.491 104.676 593.464 106.087 593.084 108.207C592.704 110.326 594.115 112.353 596.235 112.733C598.356 113.113 600.383 111.702 600.763 109.582Z" fill="#84C3F3"/>
		<path d="M341.236 843.955C343.039 843.955 344.507 845.417 344.507 847.225C344.507 849.034 343.045 850.495 341.236 850.495C339.427 850.495 337.965 849.034 337.965 847.225C337.965 845.417 339.427 843.955 341.236 843.955Z" fill="#2796EA"/>
		<path d="M896.178 641.428C898.446 641.428 900.287 643.268 900.287 645.535C900.287 647.803 898.446 649.643 896.178 649.643C893.91 649.643 892.069 647.803 892.069 645.535C892.069 643.268 893.91 641.428 896.178 641.428Z" fill="#2C98EB"/>
		<path d="M855.099 271.172C856.3 271.172 857.276 272.148 857.276 273.348C857.276 274.549 856.3 275.525 855.099 275.525C853.899 275.525 852.922 274.549 852.922 273.348C852.922 272.148 853.899 271.172 855.099 271.172Z" fill="#7CBFF2"/>
		<path d="M670.184 866.383C671.993 866.383 673.461 867.85 673.461 869.658C673.461 871.467 671.993 872.934 670.184 872.934C668.375 872.934 666.908 871.467 666.908 869.658C666.908 867.85 668.375 866.383 670.184 866.383Z" fill="#7CBFF2"/>
		<path d="M892.838 334.904C894.983 334.904 896.717 336.643 896.717 338.783C896.717 340.922 894.978 342.661 892.838 342.661C890.698 342.661 888.958 340.922 888.958 338.783C888.958 336.643 890.698 334.904 892.838 334.904Z" fill="#2C98EB"/>
		<path d="M670.403 122.907C672.292 122.907 673.829 124.438 673.829 126.332C673.829 128.226 672.297 129.757 670.403 129.757C668.508 129.757 666.977 128.226 666.977 126.332C666.977 124.438 668.508 122.907 670.403 122.907Z" fill="#7CBFF2"/>
		<path d="M276.895 186.735C278.144 186.735 279.153 187.744 279.153 188.992C279.153 190.24 278.144 191.248 276.895 191.248C275.647 191.248 274.638 190.24 274.638 188.992C274.638 187.744 275.647 186.735 276.895 186.735Z" fill="#44A3ED"/>
		<path d="M622.317 882.615C624.121 882.615 625.583 884.077 625.583 885.88C625.583 887.683 624.121 889.145 622.317 889.145C620.513 889.145 619.051 887.683 619.051 885.88C619.051 884.077 620.513 882.615 622.317 882.615Z" fill="#84C3F3"/>
		<path d="M446.516 104.78C448.176 104.78 449.521 106.125 449.521 107.784C449.521 109.443 448.176 110.787 446.516 110.787C444.857 110.787 443.512 109.443 443.512 107.784C443.512 106.125 444.857 104.78 446.516 104.78Z" fill="#389EEC"/>
		<path d="M317.601 833.537C319.89 833.537 321.747 835.394 321.747 837.682C321.747 839.971 319.89 841.827 317.601 841.827C315.312 841.827 313.455 839.971 313.455 837.682C313.455 835.394 315.312 833.537 317.601 833.537Z" fill="#2C98EB"/>
		<path d="M790.044 797.277C791.719 797.277 793.08 798.638 793.08 800.313C793.08 801.988 791.719 803.348 790.044 803.348C788.368 803.348 787.007 801.988 787.007 800.313C787.007 798.638 788.368 797.277 790.044 797.277Z" fill="#168DE9"/>
		<path d="M683.13 865.518C684.448 865.518 685.515 866.584 685.515 867.902C685.515 869.22 684.448 870.287 683.13 870.287C681.812 870.287 680.745 869.22 680.745 867.902C680.745 866.584 681.812 865.518 683.13 865.518Z" fill="#7ABEF2"/>
		<path d="M881.407 692.32C882.731 692.32 883.803 693.393 883.803 694.716C883.803 696.039 882.731 697.111 881.407 697.111C880.084 697.111 879.011 696.039 879.011 694.716C879.011 693.393 880.084 692.32 881.407 692.32Z" fill="#6AB6F1"/>
		<path d="M470.733 95.2422C472.451 95.2422 473.839 96.6345 473.839 98.3469C473.839 100.059 472.446 101.452 470.733 101.452C469.02 101.452 467.627 100.059 467.627 98.3469C467.627 96.6345 469.02 95.2422 470.733 95.2422Z" fill="#46A5ED"/>
		<path d="M560.367 98.3356C562.51 98.3356 564.247 96.5992 564.247 94.4573C564.247 92.3155 562.51 90.5791 560.367 90.5791C558.225 90.5791 556.488 92.3155 556.488 94.4573C556.488 96.5992 558.225 98.3356 560.367 98.3356Z" fill="#75BCF2"/>
		<path d="M547.598 89.7578C549.044 89.7578 550.218 90.9314 550.218 92.3771C550.218 93.8228 549.044 94.9964 547.598 94.9964C546.151 94.9964 544.977 93.8228 544.977 92.3771C544.977 90.9314 546.151 89.7578 547.598 89.7578Z" fill="#71BAF1"/>
		<path d="M903.729 659.598C905.362 659.598 906.691 660.921 906.691 662.558C906.691 664.196 905.368 665.519 903.729 665.519C902.091 665.519 900.768 664.196 900.768 662.558C900.768 660.921 902.091 659.598 903.729 659.598Z" fill="#2C98EB"/>
		<path d="M733.628 850.145C735.693 850.145 737.369 851.82 737.369 853.884C737.369 855.949 735.693 857.624 733.628 857.624C731.563 857.624 729.887 855.949 729.887 853.884C729.887 851.82 731.563 850.145 733.628 850.145Z" fill="#4DA8EE"/>
		<path d="M119.281 534.752C120.701 534.752 121.853 535.904 121.853 537.323C121.853 538.742 120.701 539.894 119.281 539.894C117.862 539.894 116.709 538.742 116.709 537.323C116.709 535.904 117.862 534.752 119.281 534.752Z" fill="#2C98EB"/>
		<path d="M249.029 193.938C250.214 193.938 251.174 194.898 251.174 196.082C251.174 197.266 250.214 198.227 249.029 198.227C247.844 198.227 246.884 197.266 246.884 196.082C246.884 194.898 247.844 193.938 249.029 193.938Z" fill="#57ADEF"/>
		<path d="M534.817 81.8359C536.471 81.8359 537.816 83.1802 537.816 84.834C537.816 86.4877 536.471 87.832 534.817 87.832C533.163 87.832 531.818 86.4877 531.818 84.834C531.818 83.1802 533.163 81.8359 534.817 81.8359Z" fill="#6AB6F1"/>
		<path d="M127.793 391.883C129.191 391.883 130.327 393.019 130.327 394.417C130.327 395.814 129.191 396.951 127.793 396.951C126.394 396.951 125.258 395.814 125.258 394.417C125.258 393.019 126.394 391.883 127.793 391.883Z" fill="#2C98EB"/>
		<path d="M836.95 219.475C838.45 219.475 839.666 220.691 839.666 222.19C839.666 223.689 838.45 224.905 836.95 224.905C835.451 224.905 834.234 223.689 834.234 222.19C834.234 220.691 835.451 219.475 836.95 219.475Z" fill="#2C98EB"/>
		<path d="M129.031 377.17C131.202 377.17 132.963 378.93 132.963 381.102C132.963 383.273 131.202 385.033 129.031 385.033C126.859 385.033 125.098 383.273 125.098 381.102C125.098 378.93 126.859 377.17 129.031 377.17Z" fill="#2C98EB"/>
		<path d="M125.117 591.153C125.646 588.911 124.257 586.664 122.014 586.135C119.771 585.606 117.524 586.994 116.994 589.237C116.465 591.479 117.854 593.726 120.097 594.255C122.34 594.784 124.588 593.396 125.117 591.153Z" fill="#62B3F0"/>
		<path d="M613.955 85.1758C615.993 85.1758 617.642 86.8295 617.642 88.862C617.642 90.8945 615.988 92.5482 613.955 92.5482C611.922 92.5482 610.268 90.8945 610.268 88.862C610.268 86.8295 611.922 85.1758 613.955 85.1758Z" fill="#84C3F3"/>
		<path d="M900.554 687.855C901.824 687.855 902.859 688.885 902.859 690.16C902.859 691.435 901.83 692.465 900.554 692.465C899.279 692.465 898.249 691.435 898.249 690.16C898.249 688.885 899.279 687.855 900.554 687.855Z" fill="#2C98EB"/>
		<path d="M422.866 728.975L414.184 749.305C414.066 749.587 413.741 749.715 413.458 749.598C413.175 749.481 413.047 749.155 413.164 748.873C413.164 748.867 413.17 748.857 413.175 748.846L422.86 728.975H422.866Z" fill="#2293EA"/>
		<path d="M771.671 426.834L798.118 418.496C798.411 418.405 798.721 418.565 798.811 418.859C798.902 419.152 798.742 419.462 798.449 419.552C798.443 419.552 798.433 419.552 798.427 419.558L771.671 426.834Z" fill="#2C98EB"/>
		<path d="M757.316 389.29L784.579 375.708C784.852 375.569 785.182 375.681 785.321 375.959C785.46 376.231 785.348 376.561 785.07 376.7C785.065 376.7 785.06 376.705 785.054 376.711L757.316 389.295V389.29Z" fill="#2C98EB"/>
		<path d="M275.076 514.369L238.057 517.276C237.753 517.303 237.486 517.074 237.465 516.77C237.444 516.466 237.668 516.199 237.972 516.178C237.972 516.178 237.983 516.178 237.988 516.178L275.076 514.374V514.369Z" fill="#2C98EB"/>
		<path d="M362.122 306.625L335.569 276.836C335.366 276.607 335.387 276.26 335.611 276.058C335.841 275.855 336.188 275.876 336.39 276.1C336.39 276.1 336.396 276.111 336.401 276.111L362.117 306.625H362.122Z" fill="#4DA8EE"/>
		<path d="M350.297 317.54L320.728 288.296C320.509 288.083 320.509 287.73 320.728 287.512C320.942 287.293 321.294 287.293 321.513 287.512C321.513 287.512 321.518 287.517 321.523 287.522L350.302 317.54H350.297Z" fill="#5BAFEF"/>
		<path d="M681.887 700.098L709.043 734.847C709.23 735.087 709.187 735.434 708.947 735.621C708.707 735.807 708.36 735.765 708.174 735.525C708.174 735.525 708.168 735.514 708.163 735.514L681.887 700.098Z" fill="#2594EA"/>
		<path d="M781.82 506.33L826.043 507.178C826.347 507.184 826.592 507.434 826.587 507.744C826.582 508.048 826.331 508.293 826.021 508.288C826.021 508.288 826.011 508.288 826.005 508.288L781.82 506.335V506.33Z" fill="#2C98EB"/>
		<path d="M780.796 522.393L826.827 526.228C827.131 526.255 827.355 526.522 827.334 526.826C827.307 527.13 827.041 527.354 826.736 527.332H826.726L780.801 522.393H780.796Z" fill="#2C98EB"/>
		<path d="M603.576 740.455L618.341 786.082C618.438 786.37 618.277 786.685 617.984 786.781C617.696 786.877 617.381 786.717 617.285 786.423V786.413L603.57 740.455H603.576Z" fill="#84C3F3"/>
		<path d="M508.151 751.098L504.48 804.273C504.459 804.577 504.197 804.806 503.888 804.785C503.583 804.763 503.354 804.502 503.375 804.193V804.182L508.151 751.098Z" fill="#57ADEF"/>
		<path d="M292.734 592.543L239.664 614.377C239.381 614.495 239.061 614.361 238.943 614.079C238.826 613.796 238.959 613.476 239.242 613.359C239.242 613.359 239.247 613.359 239.253 613.359L292.734 592.554V592.543Z" fill="#128BE8"/>
		<path d="M302.766 614.494L249.819 642.405C249.547 642.549 249.216 642.442 249.072 642.175C248.928 641.903 249.034 641.572 249.301 641.428C249.301 641.428 249.307 641.428 249.312 641.428L302.766 614.505V614.494Z" fill="#389EEC"/>
		<path d="M374.615 296.473L336.823 247.741C336.636 247.501 336.678 247.154 336.919 246.968C337.159 246.781 337.506 246.824 337.692 247.064C337.692 247.064 337.692 247.069 337.698 247.069L374.609 296.473H374.615Z" fill="#3FA1EC"/>
		<path d="M777.359 450.29L838.204 438.005C838.503 437.946 838.797 438.138 838.855 438.437C838.914 438.736 838.722 439.029 838.423 439.088C838.423 439.088 838.418 439.088 838.412 439.088L777.359 450.285V450.29Z" fill="#6AB6F1"/>
		<path d="M779.91 530.389L843.85 537.99C844.154 538.028 844.368 538.3 844.336 538.604C844.298 538.908 844.026 539.121 843.722 539.089C843.722 539.089 843.717 539.089 843.711 539.089L779.91 530.389Z" fill="#2C98EB"/>
		<path d="M700.388 311.985L744.082 263.873C744.285 263.649 744.637 263.627 744.861 263.836C745.085 264.038 745.106 264.39 744.898 264.614C744.898 264.614 744.898 264.614 744.893 264.62L700.388 311.98V311.985Z" fill="#1B90E9"/>
		<path d="M437.717 261.381L413.751 200.22C413.639 199.938 413.778 199.618 414.066 199.506C414.349 199.394 414.669 199.532 414.781 199.82C414.781 199.82 414.781 199.826 414.781 199.831L437.712 261.387L437.717 261.381Z" fill="#2594EA"/>
		<path d="M415.598 271.054L385.559 211.717C385.421 211.445 385.533 211.114 385.805 210.976C386.077 210.837 386.408 210.949 386.547 211.221C386.547 211.221 386.547 211.226 386.547 211.232L415.592 271.059L415.598 271.054Z" fill="#2594EA"/>
		<path d="M328.839 341.518L276.09 300.751C275.849 300.564 275.801 300.217 275.988 299.977C276.175 299.737 276.522 299.689 276.762 299.876C276.762 299.876 276.767 299.876 276.767 299.881L328.834 341.518H328.839Z" fill="#65B4F0"/>
		<path d="M745.918 368.014L803.097 333.147C803.358 332.987 803.699 333.073 803.854 333.329C804.014 333.59 803.929 333.932 803.667 334.086H803.662L745.918 368.004V368.014Z" fill="#2C98EB"/>
		<path d="M408.442 274.745L375.863 215.126C375.719 214.859 375.815 214.523 376.082 214.373C376.349 214.229 376.685 214.325 376.834 214.592V214.598L408.442 274.74V274.745Z" fill="#2796EA"/>
		<path d="M732.545 347.919L788.918 305.739C789.163 305.557 789.51 305.605 789.692 305.851C789.873 306.096 789.825 306.443 789.579 306.624H789.574L732.545 347.914V347.919Z" fill="#2C98EB"/>
		<path d="M741.67 361.176L801.181 322.287C801.437 322.121 801.778 322.191 801.944 322.447C802.109 322.703 802.04 323.044 801.784 323.21H801.778L741.67 361.165V361.176Z" fill="#68B5F1"/>
		<path d="M773.811 434.59L842.922 416.095C843.215 416.015 843.519 416.192 843.599 416.485C843.679 416.778 843.503 417.082 843.21 417.162C843.21 417.162 843.204 417.162 843.199 417.162L773.811 434.585V434.59Z" fill="#6AB6F1"/>
		<path d="M277.749 458.218L206.973 447.459C206.669 447.411 206.466 447.133 206.509 446.829C206.557 446.525 206.834 446.322 207.139 446.365C207.139 446.365 207.144 446.365 207.149 446.365L277.749 458.218Z" fill="#2C98EB"/>
		<path d="M694.384 306.625L742.145 250.676C742.342 250.442 742.694 250.415 742.924 250.612C743.153 250.81 743.185 251.162 742.988 251.391C742.988 251.391 742.988 251.391 742.983 251.396L694.384 306.62V306.625Z" fill="#168DE9"/>
		<path d="M737.209 642.096L798.208 683.401C798.459 683.572 798.529 683.919 798.358 684.17C798.187 684.42 797.84 684.49 797.589 684.319H797.584L737.209 642.101V642.096Z" fill="#7CBFF2"/>
		<path d="M675.403 704.867L718.67 764.641C718.852 764.887 718.793 765.233 718.547 765.415C718.302 765.596 717.955 765.537 717.774 765.292C717.774 765.292 717.774 765.292 717.774 765.287L675.408 704.873L675.403 704.867Z" fill="#2997EA"/>
		<path d="M611.228 737.947L636.234 808.486C636.336 808.775 636.186 809.089 635.898 809.191C635.61 809.292 635.295 809.143 635.194 808.854V808.849L611.233 737.947H611.228Z" fill="#81C2F3"/>
		<path d="M722.592 335.272L780.406 286.05C780.641 285.852 780.988 285.879 781.185 286.114C781.383 286.349 781.356 286.695 781.121 286.893C781.121 286.893 781.121 286.893 781.116 286.893L722.587 335.267L722.592 335.272Z" fill="#2C98EB"/>
		<path d="M524.23 751.859L523.573 827.84C523.573 828.144 523.323 828.389 523.013 828.389C522.709 828.389 522.463 828.139 522.463 827.829V827.824L524.224 751.859H524.23Z" fill="#65B4F0"/>
		<path d="M640.909 271.054L674.501 202.051C674.635 201.779 674.965 201.662 675.243 201.795C675.515 201.929 675.632 202.26 675.499 202.537V202.542L640.92 271.054H640.909Z" fill="#67B5F0"/>
		<path d="M274.563 498.286L197.501 498.841C197.197 498.841 196.946 498.595 196.946 498.291C196.946 497.987 197.192 497.736 197.496 497.736H197.501L274.563 498.291V498.286Z" fill="#2C98EB"/>
		<path d="M401.408 278.656L362.362 212.15C362.208 211.888 362.298 211.547 362.56 211.392C362.821 211.237 363.163 211.328 363.317 211.589V211.595L401.408 278.656Z" fill="#2C98EB"/>
		<path d="M306.565 621.59L238.687 659.977C238.42 660.127 238.084 660.036 237.935 659.769C237.785 659.503 237.876 659.167 238.143 659.017H238.148L306.56 621.601L306.565 621.59Z" fill="#48A6ED"/>
		<path d="M387.731 287.143L342.895 220.77C342.725 220.519 342.789 220.172 343.045 220.002C343.296 219.831 343.642 219.895 343.813 220.151C343.813 220.151 343.813 220.151 343.813 220.156L387.731 287.143Z" fill="#339BEB"/>
		<path d="M314.837 361.176L246.254 317.768C245.998 317.603 245.918 317.261 246.083 317.005C246.249 316.749 246.59 316.669 246.846 316.834C246.846 316.834 246.846 316.834 246.852 316.834L314.837 361.17V361.176Z" fill="#5EB0EF"/>
		<path d="M773.811 561.98L852.687 581.868C852.986 581.942 853.162 582.241 853.087 582.54C853.013 582.833 852.714 583.015 852.415 582.94H852.41L773.811 561.986V561.98Z" fill="#6AB6F1"/>
		<path d="M445.278 737.947L418.976 815.613C418.88 815.901 418.565 816.056 418.277 815.96C417.988 815.864 417.834 815.549 417.93 815.261V815.256L445.278 737.953V737.947Z" fill="#2594EA"/>
		<path d="M387.731 709.434L342.618 778.212C342.452 778.468 342.106 778.538 341.855 778.372C341.599 778.207 341.529 777.86 341.695 777.61C341.695 777.61 341.695 777.61 341.695 777.604L387.726 709.439L387.731 709.434Z" fill="#339BEB"/>
		<path d="M779.91 466.182L862.004 455.15C862.308 455.107 862.586 455.321 862.623 455.625C862.666 455.929 862.453 456.206 862.148 456.249H862.143L779.91 466.182Z" fill="#2C98EB"/>
		<path d="M350.297 679.031L292.136 738.891C291.923 739.109 291.576 739.115 291.352 738.901C291.133 738.688 291.127 738.341 291.341 738.117L350.292 679.037L350.297 679.031Z" fill="#5BAFEF"/>
		<path d="M328.839 655.059L262.839 707.647C262.599 707.839 262.252 707.796 262.06 707.562C261.868 707.321 261.911 706.975 262.146 706.783C262.146 706.783 262.146 706.783 262.151 706.783L328.834 655.064L328.839 655.059Z" fill="#65B4F0"/>
		<path d="M339.187 667.381L275.887 724.733C275.663 724.936 275.31 724.92 275.108 724.696C274.905 724.472 274.921 724.119 275.145 723.917L339.181 667.386L339.187 667.381Z" fill="#62B3F0"/>
		<path d="M595.854 253.85L618.256 170.78C618.336 170.486 618.64 170.31 618.934 170.39C619.227 170.47 619.403 170.775 619.323 171.068V171.073L595.854 253.845V253.85Z" fill="#86C4F3"/>
		<path d="M333.914 661.301L268.09 717.234C267.856 717.431 267.509 717.405 267.311 717.17C267.114 716.935 267.141 716.588 267.375 716.391C267.375 716.391 267.375 716.391 267.381 716.391L333.914 661.306V661.301Z" fill="#65B4F0"/>
		<path d="M274.692 490.24L186.925 488.011C186.62 488.005 186.38 487.749 186.386 487.445C186.391 487.141 186.647 486.901 186.951 486.906H186.957L274.686 490.246L274.692 490.24Z" fill="#2C98EB"/>
		<path d="M356.124 684.586L296.928 749.465C296.72 749.689 296.373 749.705 296.149 749.502C295.925 749.294 295.909 748.948 296.112 748.724L356.119 684.591L356.124 684.586Z" fill="#57ADEF"/>
		<path d="M287.232 419.152L203.126 392.122C202.838 392.026 202.677 391.716 202.768 391.428C202.864 391.135 203.174 390.98 203.462 391.071C203.462 391.071 203.462 391.071 203.467 391.071L287.227 419.152H287.232Z" fill="#2293EA"/>
		<path d="M757.316 607.287L837.495 644.827C837.772 644.955 837.889 645.285 837.761 645.563C837.633 645.84 837.302 645.958 837.025 645.829C837.025 645.829 837.025 645.829 837.02 645.829L757.316 607.292V607.287Z" fill="#2C98EB"/>
		<path d="M633.646 267.596L670.019 186.649C670.141 186.372 670.472 186.244 670.75 186.372C671.027 186.495 671.155 186.826 671.027 187.103C671.027 187.103 671.027 187.103 671.027 187.108L633.651 267.596H633.646Z" fill="#75BCF2"/>
		<path d="M306.565 374.981L228.329 332.097C228.062 331.947 227.961 331.611 228.11 331.345C228.26 331.078 228.591 330.976 228.863 331.126C228.863 331.126 228.863 331.126 228.868 331.126L306.571 374.976L306.565 374.981Z" fill="#48A6ED"/>
		<path d="M344.651 673.297L280.001 735.685C279.782 735.898 279.43 735.893 279.217 735.669C279.003 735.45 279.009 735.098 279.233 734.885L344.646 673.297H344.651Z" fill="#5BAFEF"/>
		<path d="M763.768 404.029L847.644 369.866C847.927 369.749 848.247 369.887 848.365 370.17C848.482 370.453 848.343 370.773 848.061 370.89C848.061 370.89 848.061 370.89 848.055 370.89L763.768 404.029Z" fill="#2C98EB"/>
		<path d="M295.845 396.609L212.603 360.798C212.32 360.676 212.192 360.35 212.315 360.073C212.438 359.79 212.763 359.662 213.041 359.785C213.041 359.785 213.041 359.785 213.046 359.785L295.845 396.609Z" fill="#1B90E9"/>
		<path d="M415.598 725.518L375.554 807.531C375.42 807.804 375.089 807.921 374.812 807.787C374.54 807.654 374.422 807.323 374.556 807.046C374.556 807.046 374.556 807.046 374.556 807.041L415.592 725.518H415.598Z" fill="#2594EA"/>
		<path d="M548.361 751.098L556.152 842.095C556.178 842.399 555.954 842.666 555.65 842.692C555.346 842.719 555.079 842.495 555.052 842.191V842.186L548.366 751.103L548.361 751.098Z" fill="#75BCF2"/>
		<path d="M381.098 704.867L328.082 780.245C327.906 780.496 327.559 780.554 327.313 780.378C327.062 780.202 327.004 779.855 327.18 779.61C327.18 779.61 327.18 779.61 327.18 779.605L381.098 704.867Z" fill="#359DEB"/>
		<path d="M640.909 725.518L682.34 807.841C682.479 808.113 682.367 808.444 682.095 808.582C681.823 808.721 681.492 808.609 681.353 808.337C681.353 808.337 681.353 808.337 681.353 808.332L640.914 725.518H640.909Z" fill="#67B5F0"/>
		<path d="M771.671 569.736L861.017 595.385C861.311 595.47 861.481 595.774 861.396 596.068C861.311 596.361 861.007 596.532 860.713 596.447C860.713 596.447 860.713 596.447 860.708 596.447L771.676 569.736H771.671Z" fill="#2C98EB"/>
		<path d="M460.652 742.721L436.34 832.704C436.26 832.998 435.956 833.174 435.662 833.094C435.369 833.014 435.193 832.71 435.273 832.416C435.273 832.416 435.273 832.416 435.273 832.411L460.652 742.721Z" fill="#2E99EB"/>
		<path d="M460.652 253.849L435.235 164.02C435.15 163.727 435.321 163.423 435.62 163.337C435.913 163.252 436.217 163.423 436.303 163.721C436.303 163.721 436.303 163.721 436.303 163.727L460.652 253.849Z" fill="#2E99EB"/>
		<path d="M532.277 751.859L534.315 845.401C534.321 845.705 534.081 845.961 533.776 845.967C533.472 845.972 533.216 845.732 533.211 845.428V845.423L532.277 751.859Z" fill="#6AB6F1"/>
		<path d="M422.866 267.597L383.468 182.686C383.339 182.409 383.457 182.078 383.734 181.95C384.012 181.822 384.343 181.939 384.471 182.217C384.471 182.217 384.471 182.217 384.471 182.222L422.86 267.592L422.866 267.597Z" fill="#2293EA"/>
		<path d="M368.291 695.121L309.143 768.776C308.951 769.016 308.604 769.053 308.364 768.861C308.124 768.669 308.086 768.322 308.278 768.082L368.28 695.126L368.291 695.121Z" fill="#44A3ED"/>
		<path d="M732.545 648.652L809.26 704.431C809.505 704.612 809.564 704.954 809.383 705.204C809.201 705.45 808.86 705.508 808.609 705.327L732.55 648.658L732.545 648.652Z" fill="#2C98EB"/>
		<path d="M295.845 599.963L206.674 639.578C206.397 639.7 206.066 639.577 205.943 639.295C205.821 639.017 205.943 638.687 206.226 638.564C206.226 638.564 206.226 638.564 206.231 638.564L295.845 599.963Z" fill="#1B90E9"/>
		<path d="M706.215 679.031L775.219 748.333C775.433 748.552 775.433 748.898 775.219 749.117C775.001 749.33 774.654 749.33 774.435 749.117L706.215 679.037V679.031Z" fill="#2293EA"/>
		<path d="M781.431 514.369L879.268 520.029C879.572 520.045 879.807 520.306 879.785 520.61C879.769 520.914 879.508 521.149 879.204 521.128C879.204 521.128 879.204 521.128 879.198 521.128L781.431 514.363V514.369Z" fill="#2C98EB"/>
		<path d="M492.148 749.31L478.732 846.463C478.689 846.768 478.412 846.976 478.108 846.933C477.804 846.89 477.595 846.613 477.638 846.309C477.638 846.309 477.638 846.309 477.638 846.303L492.148 749.305V749.31Z" fill="#46A5ED"/>
		<path d="M302.766 382.076L213.425 336.658C213.153 336.519 213.046 336.188 213.185 335.916C213.323 335.644 213.654 335.537 213.927 335.676C213.927 335.676 213.927 335.676 213.932 335.676L302.766 382.081V382.076Z" fill="#389EEC"/>
		<path d="M741.67 635.395L826.315 689.114C826.571 689.279 826.651 689.621 826.486 689.877C826.32 690.133 825.979 690.213 825.723 690.047L741.675 635.4L741.67 635.395Z" fill="#68B5F1"/>
		<path d="M277.749 538.354L178.627 554.768C178.328 554.816 178.04 554.613 177.992 554.315C177.944 554.016 178.146 553.728 178.445 553.68C178.445 553.68 178.445 553.68 178.45 553.68L277.749 538.354Z" fill="#2C98EB"/>
		<path d="M588.063 251.828L611.671 152.194C611.74 151.895 612.039 151.714 612.338 151.783C612.637 151.853 612.818 152.151 612.749 152.45L588.063 251.833V251.828Z" fill="#84C3F3"/>
		<path d="M362.122 689.951L295.423 767.745C295.226 767.975 294.874 768.001 294.644 767.804C294.415 767.607 294.388 767.255 294.585 767.025L362.122 689.951Z" fill="#4DA8EE"/>
		<path d="M777.359 546.281L878.419 565.187C878.718 565.246 878.915 565.534 878.862 565.833C878.803 566.131 878.515 566.329 878.216 566.275H878.211L777.359 546.281Z" fill="#6AB6F1"/>
		<path d="M662.009 282.789L715.901 194.897C716.061 194.635 716.402 194.555 716.658 194.715C716.92 194.875 717 195.217 716.84 195.478L662.009 282.789Z" fill="#3FA1EC"/>
		<path d="M540.324 751.604L545.794 854.785C545.81 855.089 545.575 855.35 545.271 855.366C544.967 855.382 544.705 855.148 544.689 854.844L540.324 751.604Z" fill="#71BAF1"/>
		<path d="M766.649 411.545L863.605 375.675C863.893 375.568 864.208 375.718 864.315 376.001C864.422 376.289 864.272 376.603 863.99 376.71H863.984L766.649 411.54V411.545Z" fill="#2C98EB"/>
		<path d="M626.266 264.37L666.401 167.158C666.518 166.875 666.838 166.742 667.121 166.859C667.404 166.976 667.537 167.296 667.42 167.579L626.266 264.37Z" fill="#7ABEF2"/>
		<path d="M564.359 749.311L579.957 853.916C580 854.22 579.792 854.498 579.493 854.546C579.189 854.589 578.911 854.38 578.863 854.082L564.359 749.311Z" fill="#7CBFF2"/>
		<path d="M468.444 251.828L442.952 149.122C442.877 148.823 443.059 148.524 443.357 148.449C443.656 148.375 443.955 148.556 444.03 148.855L468.449 251.828H468.444Z" fill="#339BEB"/>
		<path d="M289.863 585.025L190.431 621.791C190.142 621.898 189.828 621.749 189.721 621.466C189.614 621.178 189.764 620.863 190.046 620.756H190.052L289.863 585.025Z" fill="#1B90E9"/>
		<path d="M753.746 382.076L847.826 332.966C848.098 332.827 848.429 332.929 848.573 333.201C848.712 333.473 848.61 333.804 848.338 333.948L753.751 382.076H753.746Z" fill="#2C98EB"/>
		<path d="M280.796 442.411L176.919 419.526C176.62 419.462 176.433 419.163 176.497 418.87C176.561 418.571 176.86 418.384 177.154 418.448H177.159L280.796 442.416V442.411Z" fill="#62B3F0"/>
		<path d="M516.183 751.603L511.636 858.668C511.625 858.972 511.364 859.212 511.06 859.196C510.755 859.185 510.515 858.924 510.531 858.62L516.183 751.598V751.603Z" fill="#5BAFEF"/>
		<path d="M675.403 291.703L737.342 203.805C737.518 203.554 737.865 203.496 738.11 203.672C738.361 203.848 738.42 204.195 738.244 204.44L675.403 291.698V291.703Z" fill="#2997EA"/>
		<path d="M299.191 607.287L199.86 655.165C199.582 655.298 199.257 655.181 199.123 654.909C198.99 654.632 199.107 654.306 199.38 654.173L299.185 607.292L299.191 607.287Z" fill="#2C98EB"/>
		<path d="M310.589 628.557L216.189 685.701C215.928 685.861 215.586 685.775 215.431 685.514C215.271 685.253 215.357 684.911 215.618 684.756L310.589 628.557Z" fill="#57ADEF"/>
		<path d="M711.861 673.298L792.765 749.658C792.989 749.866 793 750.218 792.787 750.436C792.579 750.66 792.226 750.666 792.002 750.458L711.861 673.293V673.298Z" fill="#2796EA"/>
		<path d="M319.293 354.476L226.627 291.373C226.376 291.203 226.307 290.856 226.483 290.605C226.654 290.354 227.001 290.285 227.251 290.461L319.287 354.476H319.293Z" fill="#65B4F0"/>
		<path d="M289.863 411.545L182.629 373.114C182.341 373.013 182.191 372.693 182.293 372.405C182.394 372.117 182.714 371.967 183.002 372.069L289.857 411.539L289.863 411.545Z" fill="#1B90E9"/>
		<path d="M279.147 546.281L167.121 568.43C166.823 568.489 166.529 568.297 166.47 567.993C166.412 567.694 166.604 567.401 166.908 567.342L279.142 546.281H279.147Z" fill="#2C98EB"/>
		<path d="M769.28 419.153L877.629 382.995C877.917 382.899 878.232 383.054 878.328 383.342C878.424 383.63 878.27 383.945 877.981 384.041L769.285 419.148L769.28 419.153Z" fill="#2C98EB"/>
		<path d="M452.925 256.117L418.234 146.448C418.143 146.155 418.303 145.846 418.597 145.755C418.89 145.664 419.2 145.824 419.29 146.118L452.925 256.122V256.117Z" fill="#2997EA"/>
		<path d="M556.37 750.328L569.855 866.217C569.893 866.521 569.674 866.793 569.37 866.83C569.066 866.867 568.794 866.649 568.756 866.345L556.37 750.328Z" fill="#78BDF2"/>
		<path d="M468.444 744.744L441.436 858.376C441.367 858.675 441.068 858.856 440.769 858.787C440.47 858.718 440.289 858.419 440.358 858.12L468.438 744.744H468.444Z" fill="#339BEB"/>
		<path d="M292.734 404.029L183.862 361.053C183.579 360.941 183.44 360.621 183.552 360.338C183.664 360.056 183.984 359.917 184.267 360.029L292.728 404.034L292.734 404.029Z" fill="#128BE8"/>
		<path d="M700.388 684.586L780.241 770.201C780.449 770.425 780.438 770.771 780.214 770.979C779.99 771.188 779.643 771.177 779.435 770.953L700.393 684.586H700.388Z" fill="#1B90E9"/>
		<path d="M445.278 258.629L406.312 147.766C406.211 147.478 406.36 147.163 406.649 147.062C406.937 146.961 407.252 147.11 407.353 147.398L445.273 258.629H445.278Z" fill="#2594EA"/>
		<path d="M745.918 628.557L848.557 689.339C848.818 689.494 848.909 689.835 848.749 690.096C848.594 690.358 848.253 690.443 847.991 690.288L745.923 628.557H745.918Z" fill="#2C98EB"/>
		<path d="M580.213 746.519L605.353 863.933C605.417 864.232 605.225 864.525 604.926 864.589C604.627 864.653 604.334 864.461 604.27 864.163L580.213 746.514V746.519Z" fill="#84C3F3"/>
		<path d="M287.232 577.419L172.97 615.514C172.682 615.61 172.367 615.455 172.271 615.162C172.175 614.874 172.33 614.559 172.623 614.463L287.232 577.414V577.419Z" fill="#2293EA"/>
		<path d="M476.299 746.52L452.013 865.257C451.954 865.555 451.661 865.747 451.362 865.689C451.063 865.63 450.871 865.337 450.93 865.038L476.299 746.52Z" fill="#389EEC"/>
		<path d="M516.183 244.968L509.667 119.851C509.651 119.547 509.886 119.285 510.19 119.269C510.494 119.253 510.755 119.488 510.771 119.792L516.183 244.963V244.968Z" fill="#5BAFEF"/>
		<path d="M595.854 742.721L629.932 863.848C630.017 864.141 629.841 864.445 629.548 864.531C629.254 864.616 628.95 864.44 628.865 864.146L595.854 742.721Z" fill="#86C4F3"/>
		<path d="M706.215 317.54L794.873 226.703C795.087 226.484 795.439 226.479 795.658 226.692C795.876 226.905 795.882 227.257 795.668 227.476L706.22 317.54H706.215Z" fill="#2293EA"/>
		<path d="M722.592 661.301L820.466 742.685C820.701 742.883 820.733 743.229 820.536 743.464C820.338 743.699 819.991 743.731 819.757 743.533L722.592 661.301Z" fill="#2C98EB"/>
		<path d="M688.216 301.45L768.677 201.581C768.869 201.341 769.216 201.304 769.456 201.496C769.696 201.688 769.734 202.034 769.542 202.275L688.226 301.45H688.216Z" fill="#1B90E9"/>
		<path d="M633.646 728.975L687.81 846.207C687.938 846.485 687.815 846.816 687.538 846.944C687.26 847.072 686.93 846.949 686.801 846.672L633.641 728.975H633.646Z" fill="#75BCF2"/>
		<path d="M781.943 498.285L912.796 497.73C913.1 497.73 913.351 497.976 913.351 498.28C913.351 498.584 913.105 498.835 912.801 498.835L781.949 498.28L781.943 498.285Z" fill="#2C98EB"/>
		<path d="M668.775 287.143L740.885 177.811C741.056 177.555 741.398 177.485 741.654 177.656C741.91 177.821 741.979 178.168 741.809 178.424L668.781 287.148L668.775 287.143Z" fill="#339BEB"/>
		<path d="M668.775 709.434L742.187 818.739C742.358 818.995 742.289 819.337 742.038 819.507C741.782 819.678 741.44 819.609 741.27 819.358L668.775 709.439V709.434Z" fill="#339BEB"/>
		<path d="M484.202 248.531L460.781 118.916C460.727 118.618 460.925 118.33 461.229 118.276C461.528 118.223 461.816 118.42 461.869 118.724L484.202 248.531Z" fill="#3FA1EC"/>
		<path d="M299.191 389.289L179.406 332.902C179.128 332.774 179.011 332.444 179.139 332.166C179.267 331.889 179.598 331.771 179.875 331.899L299.185 389.283L299.191 389.289Z" fill="#2C98EB"/>
		<path d="M323.962 648.652L217.155 727.951C216.91 728.132 216.563 728.084 216.381 727.839C216.2 727.593 216.248 727.247 216.493 727.065L323.957 648.652H323.962Z" fill="#62B3F0"/>
		<path d="M781.943 498.285L916.126 497.73C916.43 497.73 916.681 497.976 916.681 498.28C916.681 498.584 916.435 498.835 916.131 498.835L781.949 498.28L781.943 498.285Z" fill="#2C98EB"/>
		<path d="M524.23 244.711L521.54 109.965C521.535 109.661 521.775 109.405 522.084 109.4C522.389 109.394 522.645 109.634 522.65 109.944L524.235 244.711H524.23Z" fill="#65B4F0"/>
		<path d="M310.589 368.016L193.59 298.634C193.328 298.479 193.243 298.138 193.398 297.877C193.552 297.615 193.894 297.53 194.155 297.684L310.589 368.016Z" fill="#57ADEF"/>
		<path d="M508.151 245.474L496.817 109.928C496.79 109.624 497.02 109.357 497.324 109.33C497.628 109.304 497.895 109.533 497.921 109.837L508.151 245.474Z" fill="#57ADEF"/>
		<path d="M775.71 442.417L910.117 411.503C910.416 411.433 910.709 411.62 910.779 411.919C910.848 412.218 910.661 412.511 910.362 412.58L775.71 442.417Z" fill="#2C98EB"/>
		<path d="M769.28 577.418L901.04 620.095C901.328 620.191 901.488 620.5 901.397 620.793C901.301 621.082 900.992 621.242 900.698 621.151L769.285 577.418H769.28Z" fill="#2C98EB"/>
		<path d="M648.065 721.826L713.979 843.625C714.124 843.892 714.022 844.228 713.755 844.372C713.489 844.516 713.152 844.42 713.008 844.148L648.07 721.82L648.065 721.826Z" fill="#59AEEF"/>
		<path d="M655.098 278.655L723.932 158.366C724.081 158.099 724.423 158.008 724.684 158.158C724.951 158.307 725.042 158.648 724.892 158.91L655.104 278.65L655.098 278.655Z" fill="#4DA8EE"/>
		<path d="M282.696 561.98L148.049 597.476C147.756 597.556 147.452 597.38 147.372 597.081C147.292 596.788 147.468 596.484 147.766 596.404L282.696 561.975V561.98Z" fill="#2C98EB"/>
		<path d="M727.667 655.059L838.38 741.393C838.621 741.58 838.663 741.927 838.476 742.167C838.29 742.407 837.943 742.45 837.703 742.263L727.673 655.059H727.667Z" fill="#2C98EB"/>
		<path d="M401.408 717.916L331.427 840.19C331.278 840.457 330.937 840.547 330.675 840.393C330.408 840.243 330.318 839.902 330.472 839.641L401.414 717.916H401.408Z" fill="#2C98EB"/>
		<path d="M681.887 296.473L766.948 183.828C767.13 183.583 767.476 183.535 767.722 183.721C767.967 183.903 768.015 184.249 767.829 184.495L681.887 296.473Z" fill="#2594EA"/>
		<path d="M572.31 248.531L596.393 108.802C596.446 108.504 596.729 108.301 597.033 108.349C597.332 108.402 597.535 108.685 597.487 108.989L572.315 248.531H572.31Z" fill="#84C3F3"/>
		<path d="M408.442 721.826L341.721 847.488C341.577 847.76 341.241 847.861 340.974 847.717C340.702 847.573 340.601 847.237 340.745 846.97L408.442 721.831V721.826Z" fill="#2796EA"/>
		<path d="M763.768 592.542L896.381 645.019C896.664 645.131 896.803 645.451 896.691 645.734C896.579 646.016 896.258 646.155 895.976 646.043L763.773 592.537L763.768 592.542Z" fill="#2C98EB"/>
		<path d="M737.209 354.476L854.784 272.889C855.035 272.713 855.382 272.777 855.553 273.027C855.729 273.278 855.665 273.625 855.414 273.796L737.214 354.476H737.209Z" fill="#7CBFF2"/>
		<path d="M618.79 735.195L670.702 869.461C670.814 869.744 670.67 870.064 670.387 870.176C670.104 870.288 669.784 870.144 669.672 869.862L618.795 735.195H618.79Z" fill="#7CBFF2"/>
		<path d="M760.656 396.608L892.614 338.274C892.891 338.151 893.222 338.274 893.345 338.557C893.467 338.839 893.345 339.165 893.062 339.288L760.662 396.613L760.656 396.608Z" fill="#2C98EB"/>
		<path d="M618.79 261.382L669.891 126.134C669.997 125.846 670.318 125.702 670.606 125.814C670.894 125.921 671.038 126.241 670.926 126.529L618.795 261.382H618.79Z" fill="#7CBFF2"/>
		<path d="M368.291 301.45L276.468 189.344C276.276 189.109 276.308 188.757 276.549 188.565C276.783 188.373 277.136 188.405 277.328 188.645L368.291 301.456V301.45Z" fill="#44A3ED"/>
		<path d="M588.063 744.744L622.856 885.753C622.931 886.052 622.749 886.351 622.45 886.42C622.152 886.495 621.853 886.313 621.783 886.015L588.068 744.744H588.063Z" fill="#84C3F3"/>
		<path d="M476.299 250.057L445.978 107.896C445.913 107.597 446.106 107.304 446.404 107.24C446.703 107.176 446.997 107.368 447.061 107.667L476.299 250.057Z" fill="#389EEC"/>
		<path d="M394.503 713.781L318.071 837.976C317.911 838.237 317.569 838.317 317.308 838.157C317.046 837.997 316.966 837.656 317.126 837.394L394.498 713.781H394.503Z" fill="#2C98EB"/>
		<path d="M694.384 689.951L790.465 799.95C790.668 800.18 790.641 800.532 790.412 800.729C790.183 800.932 789.83 800.905 789.633 800.676L694.39 689.951H694.384Z" fill="#168DE9"/>
		<path d="M626.266 732.201L683.642 867.689C683.76 867.972 683.632 868.297 683.349 868.414C683.066 868.532 682.746 868.404 682.623 868.121L626.266 732.201Z" fill="#7ABEF2"/>
		<path d="M749.946 621.59L881.674 694.231C881.941 694.38 882.037 694.716 881.893 694.983C881.743 695.25 881.407 695.346 881.141 695.202L749.952 621.595L749.946 621.59Z" fill="#6AB6F1"/>
		<path d="M492.148 247.262L470.183 98.427C470.141 98.123 470.349 97.8456 470.647 97.7975C470.952 97.7549 471.229 97.9629 471.277 98.2616L492.148 247.257V247.262Z" fill="#46A5ED"/>
		<path d="M548.361 245.474L559.818 94.4093C559.839 94.1052 560.106 93.8758 560.41 93.9025C560.714 93.9238 560.944 94.1906 560.917 94.4946L548.355 245.474H548.361Z" fill="#75BCF2"/>
		<path d="M540.324 244.968L547.043 92.3507C547.059 92.0467 547.315 91.8119 547.619 91.8226C547.923 91.8386 548.158 92.0947 548.147 92.3988L540.324 244.968Z" fill="#71BAF1"/>
		<path d="M760.656 599.963L903.948 662.052C904.231 662.175 904.359 662.5 904.236 662.778C904.113 663.055 903.788 663.188 903.51 663.066L760.662 599.963H760.656Z" fill="#2C98EB"/>
		<path d="M655.098 717.916L734.108 853.612C734.263 853.873 734.172 854.215 733.911 854.369C733.649 854.524 733.308 854.433 733.153 854.172L655.104 717.921L655.098 717.916Z" fill="#4DA8EE"/>
		<path d="M275.711 522.393L119.329 537.874C119.025 537.906 118.753 537.682 118.726 537.377C118.694 537.073 118.918 536.801 119.222 536.775L275.705 522.393H275.711Z" fill="#2C98EB"/>
		<path d="M356.124 311.986L248.623 196.455C248.415 196.231 248.426 195.884 248.65 195.676C248.874 195.468 249.221 195.479 249.429 195.703L356.113 311.986H356.124Z" fill="#57ADEF"/>
		<path d="M532.277 244.712L534.262 84.8235C534.262 84.5194 534.518 84.274 534.822 84.2794C535.127 84.2794 535.372 84.5354 535.367 84.8395L532.277 244.717V244.712Z" fill="#6AB6F1"/>
		<path d="M282.696 434.591L127.654 394.945C127.36 394.87 127.179 394.566 127.254 394.272C127.328 393.979 127.632 393.798 127.926 393.872L282.691 434.586L282.696 434.591Z" fill="#2C98EB"/>
		<path d="M717.32 329.19L836.582 221.778C836.812 221.575 837.158 221.591 837.361 221.821C837.564 222.05 837.548 222.397 837.318 222.6L717.32 329.19Z" fill="#2C98EB"/>
		<path d="M284.841 426.834L128.876 381.629C128.582 381.543 128.412 381.239 128.497 380.946C128.582 380.652 128.886 380.482 129.18 380.567L284.836 426.834H284.841Z" fill="#2C98EB"/>
		<path d="M280.796 554.16L121.175 590.766C120.877 590.835 120.583 590.649 120.514 590.35C120.444 590.051 120.631 589.758 120.93 589.688L280.796 554.16Z" fill="#62B3F0"/>
		<path d="M580.213 250.056L613.416 88.7493C613.48 88.4506 613.768 88.2585 614.067 88.3172C614.366 88.3812 614.558 88.6693 614.499 88.968L580.219 250.051L580.213 250.056Z" fill="#84C3F3"/>
		<path d="M753.746 614.494L900.805 689.664C901.077 689.802 901.184 690.139 901.045 690.405C900.906 690.677 900.57 690.784 900.303 690.645L753.751 614.494H753.746Z" fill="#2C98EB"/>


	</g>
</svg>
