<svg width="23" height="23" viewBox="0 0 23 23" fill="none" xmlns="http://www.w3.org/2000/svg">
<circle cx="10" cy="10" r="10" fill="#1E6129"/>
<path d="M10.0861 13.85C10.1731 13.9895 10.326 14.0824 10.5 14.0824C10.674 14.0824 10.8269 13.9895 10.9165 13.85L13.8216 9.19609C14.2118 8.56992 14.4385 7.88086 14.4385 7.08242C14.4359 4.77461 12.688 3 10.5 3C8.31195 3 6.56415 4.77461 6.56415 7.08242C6.56415 7.88086 6.79086 8.56992 7.18102 9.19609L10.0861 13.85ZM10.5 4.75C11.7417 4.75 12.7487 5.79453 12.7487 7.08242C12.7487 8.37031 11.7417 9.41484 10.5 9.41484C9.25835 9.41484 8.25132 8.37031 8.25132 7.08242C8.25132 5.79453 9.25835 4.75 10.5 4.75ZM13.384 11.8457L10.5 15.8324L7.61599 11.8457C6.63005 12.3816 6 13.1828 6 14.0824C6 15.693 8.01406 17 10.5 17C12.9859 17 15 15.693 15 14.0824C15 13.1828 14.3699 12.3816 13.384 11.8457Z" fill="#95FC7B"/>
</svg>
