<svg width="40" height="40" viewBox="0 0 40 40" fill="none" xmlns="http://www.w3.org/2000/svg">
<rect width="40" height="40" rx="12" fill="#6B4A1C"/>
<path d="M28.8108 25.3096H10.6927C9.75927 25.3096 9 26.0687 9 27.002C9 27.9355 9.75927 28.6949 10.6927 28.6949H28.8108C29.7443 28.6949 30.5037 27.9355 30.5037 27.002C30.5037 26.0688 29.7443 25.3096 28.8108 25.3096Z" fill="#FFD600"/>
<path d="M27.7591 24.0517C27.3514 23.3744 27.1359 22.6023 27.1359 21.8187V18.1051C27.1359 14.4235 24.4173 11.3082 20.7876 10.7984C21.0558 10.4906 21.2019 10.1031 21.2019 9.69248C21.2019 8.75917 20.4424 8 19.5089 8C18.5757 8 17.8164 8.75917 17.8164 9.69248C17.8164 10.1318 17.9921 10.5533 18.3029 10.8701C14.8549 11.556 12.3679 14.5752 12.3679 18.1052V21.8188C12.3679 22.6021 12.1524 23.3742 11.7448 24.0517L11.6765 24.1653H27.8274L27.7591 24.0517Z" fill="#FFD600"/>
<path d="M17.2057 30.1794C17.3986 31.3049 18.3672 32.1217 19.5088 32.1217C20.6506 32.1217 21.6194 31.3049 21.8124 30.1794L21.8275 30.0918H17.1906L17.2057 30.1794Z" fill="#FFD600"/>
</svg>
