<svg width="32" height="32" viewBox="0 0 32 32" fill="none" xmlns="http://www.w3.org/2000/svg">
<circle cx="16" cy="16" r="15.5" fill="#FF8C05" stroke="white"/>
<path d="M5.65595 17.1192L9.36572 19.1959L10.6147 18.7933L5.21973 15.7695L5.65595 17.1192Z" fill="white"/>
<path d="M22.9635 19.8892V20.6013H19.9808L16.3195 16.94L23.4929 14.6209C23.5759 14.5943 23.6527 14.5515 23.7191 14.4951C23.7854 14.4386 23.8399 14.3695 23.8794 14.2919C23.9189 14.2142 23.9427 14.1295 23.9493 14.0427C23.9559 13.9558 23.9453 13.8685 23.918 13.7858L22.5198 9.4608C22.4652 9.29289 22.3462 9.15349 22.1889 9.07312C22.0317 8.99276 21.849 8.97798 21.6809 9.03204L5.43995 14.2928C5.33323 14.327 5.23692 14.3877 5.15999 14.4692C5.08306 14.5507 5.02802 14.6504 5 14.7589L11.6142 18.4873L14.6603 17.4993L19.3469 22.171H22.9635V22.6594C22.9623 22.9557 23.0655 23.2429 23.2551 23.4707C23.4447 23.6984 23.7084 23.8521 24 23.9047V18.6513C23.7093 18.703 23.4462 18.8554 23.2566 19.0818C23.0671 19.3081 22.9633 19.594 22.9635 19.8892ZM16.1256 12.1788C16.0585 11.9738 16.1256 11.7724 16.2412 11.7314L20.9502 10.2102C21.0807 10.1692 21.2372 10.2997 21.323 10.501C21.4088 10.7024 21.323 10.9074 21.2074 10.9484L16.4798 12.4696C16.3642 12.5144 16.1927 12.3802 16.1256 12.1788Z" fill="white"/>
</svg>
