<svg width="23" height="23" viewBox="0 0 23 23" fill="none" xmlns="http://www.w3.org/2000/svg">
<g id="settings-svgrepo-com 1">
<g id="Page-1">
<g id="ic-settings">
<path id="Combined-Shape" fill-rule="evenodd" clip-rule="evenodd" d="M0.958252 4.79163C0.958252 4.26235 1.38247 3.83329 1.91559 3.83329H2.87592C3.40464 3.83329 3.83325 4.25866 3.83325 4.79163C3.83325 5.3209 3.40904 5.74996 2.87592 5.74996H1.91559C1.38686 5.74996 0.958252 5.32459 0.958252 4.79163ZM11.4999 4.79163C11.4999 4.26235 11.9262 3.83329 12.454 3.83329H21.0875C21.6144 3.83329 22.0416 4.25866 22.0416 4.79163C22.0416 5.3209 21.6153 5.74996 21.0875 5.74996H12.454C11.9271 5.74996 11.4999 5.32459 11.4999 4.79163ZM7.66658 5.74996C7.13731 5.74996 6.70825 5.3209 6.70825 4.79163C6.70825 4.26235 7.13731 3.83329 7.66658 3.83329C8.19586 3.83329 8.62492 4.26235 8.62492 4.79163C8.62492 5.3209 8.19586 5.74996 7.66658 5.74996ZM7.66658 7.66663C6.07877 7.66663 4.79158 6.37944 4.79158 4.79163C4.79158 3.20381 6.07877 1.91663 7.66658 1.91663C9.2544 1.91663 10.5416 3.20381 10.5416 4.79163C10.5416 6.37944 9.2544 7.66663 7.66658 7.66663ZM0.958252 18.2083C0.958252 17.679 1.38247 17.25 1.91559 17.25H2.87592C3.40464 17.25 3.83325 17.6753 3.83325 18.2083C3.83325 18.7376 3.40904 19.1666 2.87592 19.1666H1.91559C1.38686 19.1666 0.958252 18.7413 0.958252 18.2083ZM11.4999 18.2083C11.4999 17.679 11.9262 17.25 12.454 17.25H21.0875C21.6144 17.25 22.0416 17.6753 22.0416 18.2083C22.0416 18.7376 21.6153 19.1666 21.0875 19.1666H12.454C11.9271 19.1666 11.4999 18.7413 11.4999 18.2083ZM7.66658 19.1666C7.13731 19.1666 6.70825 18.7376 6.70825 18.2083C6.70825 17.679 7.13731 17.25 7.66658 17.25C8.19586 17.25 8.62492 17.679 8.62492 18.2083C8.62492 18.7376 8.19586 19.1666 7.66658 19.1666ZM7.66658 21.0833C6.07877 21.0833 4.79158 19.7961 4.79158 18.2083C4.79158 16.6205 6.07877 15.3333 7.66658 15.3333C9.2544 15.3333 10.5416 16.6205 10.5416 18.2083C10.5416 19.7961 9.2544 21.0833 7.66658 21.0833ZM0.958252 11.5C0.958252 10.9707 1.39493 10.5416 1.91217 10.5416H9.58766C10.1145 10.5416 10.5416 10.967 10.5416 11.5C10.5416 12.0292 10.1049 12.4583 9.58766 12.4583H1.91217C1.38534 12.4583 0.958252 12.0329 0.958252 11.5ZM18.2083 11.5C18.2083 10.9707 18.6331 10.5416 19.1756 10.5416H21.0743C21.6085 10.5416 22.0416 10.967 22.0416 11.5C22.0416 12.0292 21.6167 12.4583 21.0743 12.4583H19.1756C18.6413 12.4583 18.2083 12.0329 18.2083 11.5ZM14.3749 12.4583C13.8456 12.4583 13.4166 12.0292 13.4166 11.5C13.4166 10.9707 13.8456 10.5416 14.3749 10.5416C14.9042 10.5416 15.3333 10.9707 15.3333 11.5C15.3333 12.0292 14.9042 12.4583 14.3749 12.4583ZM14.3749 14.375C12.7871 14.375 11.4999 13.0878 11.4999 11.5C11.4999 9.91214 12.7871 8.62496 14.3749 8.62496C15.9627 8.62496 17.2499 9.91214 17.2499 11.5C17.2499 13.0878 15.9627 14.375 14.3749 14.375Z" fill="#FFF84D"/>
</g>
</g>
</g>
</svg>
