<svg width="20" height="20" viewBox="0 0 20 20" fill="none" xmlns="http://www.w3.org/2000/svg">
<g id="Group" opacity="0.6">
<path id="Vector" d="M11.6663 7.32422C11.2719 7.32422 10.9521 7.64395 10.9521 8.03832V13.0847C10.9521 13.4791 11.2719 13.7988 11.6663 13.7988C12.0606 13.7988 12.3804 13.4791 12.3804 13.0847V8.03832C12.3804 7.64395 12.0607 7.32422 11.6663 7.32422Z" fill="#FFD600"/>
<path id="Vector_2" d="M10 0C4.47715 0 0 4.47715 0 10C0 15.5229 4.47715 20 10 20C15.5229 20 20 15.5229 20 10C20 4.47715 15.5229 0 10 0ZM14.2847 6.37207V14.2749C14.2847 15.0637 13.6452 15.7031 12.8565 15.7031H7.14359C6.3548 15.7031 5.71539 15.0636 5.71539 14.2749V6.37207C5.18953 6.37207 4.76324 5.94578 4.76324 5.41992C4.76324 4.89406 5.18953 4.46777 5.71539 4.46777H7.66055C7.7868 4.46777 7.90789 4.41762 7.99719 4.32832L8.67047 3.65504C8.75977 3.56578 8.88082 3.51559 9.00711 3.51559H10.9931C11.1193 3.51559 11.2404 3.56574 11.3297 3.65504L12.003 4.32832C12.0923 4.41762 12.2134 4.46777 12.3396 4.46777H14.2848C14.8106 4.46777 15.2369 4.89406 15.2369 5.41992C15.2369 5.94578 14.8105 6.37207 14.2847 6.37207Z" fill="#FFD600"/>
<path id="Vector_3" d="M8.33373 7.32422C7.93936 7.32422 7.61963 7.64395 7.61963 8.03832V13.0847C7.61963 13.4791 7.93936 13.7988 8.33373 13.7988C8.7281 13.7988 9.04783 13.4791 9.04783 13.0847V8.03832C9.04783 7.64395 8.7281 7.32422 8.33373 7.32422Z" fill="#FFD600"/>
</g>
</svg>
