<svg width="44" height="50" viewBox="0 0 44 50" fill="none" xmlns="http://www.w3.org/2000/svg">
<g id="Indicator 1" filter="url(#filter0_d_1550_1272)">
<rect id="Place" x="1" y="1" width="40" height="40" rx="10" fill="#988645"/>
<path id="Rectangle 136" d="M15 40.364L27.728 40.364L21.364 46.728L15 40.364Z" fill="#988645"/>
<g id="Group 2969">
<path id="Rectangle 175" d="M8 18.2414H34L32.9679 15.5517H9.15114L8 18.2414Z" fill="white"/>
<path id="Rectangle 176" d="M8.89658 19.1379H33.1035L32.1426 24.5172H9.96833L8.89658 19.1379Z" fill="white"/>
<rect id="Rectangle 177" x="15.9391" y="20.46" width="10.515" height="2.28036" fill="#988645"/>
<g id="Group 2968">
<path id="Ellipse 8" d="M18.8106 25.3471C18.8106 25.8268 18.7161 26.3018 18.5325 26.7449C18.349 27.1881 18.0799 27.5908 17.7407 27.93C17.4015 28.2692 16.9988 28.5382 16.5557 28.7218C16.1125 28.9054 15.6375 28.9999 15.1578 28.9999C14.6781 28.9999 14.2031 28.9054 13.7599 28.7218C13.3168 28.5382 12.9141 28.2692 12.5749 27.93C12.2357 27.5908 11.9666 27.1881 11.7831 26.7449C11.5995 26.3018 11.505 25.8268 11.505 25.3471L15.1578 25.3471H18.8106Z" fill="white"/>
<circle id="Ellipse 9" cx="16.0446" cy="27.3319" r="0.865692" fill="#988645"/>
<circle id="Ellipse 10" cx="14.7241" cy="26.7586" r="0.448276" fill="#988645"/>
</g>
</g>
</g>
<defs>
<filter id="filter0_d_1550_1272" x="0" y="0" width="44" height="49.728" filterUnits="userSpaceOnUse" color-interpolation-filters="sRGB">
<feFlood flood-opacity="0" result="BackgroundImageFix"/>
<feColorMatrix in="SourceAlpha" type="matrix" values="0 0 0 0 0 0 0 0 0 0 0 0 0 0 0 0 0 0 127 0" result="hardAlpha"/>
<feOffset dx="1" dy="1"/>
<feGaussianBlur stdDeviation="1"/>
<feComposite in2="hardAlpha" operator="out"/>
<feColorMatrix type="matrix" values="0 0 0 0 0 0 0 0 0 0 0 0 0 0 0 0 0 0 0.15 0"/>
<feBlend mode="normal" in2="BackgroundImageFix" result="effect1_dropShadow_1550_1272"/>
<feBlend mode="normal" in="SourceGraphic" in2="effect1_dropShadow_1550_1272" result="shape"/>
</filter>
</defs>
</svg>
