<svg width="19" height="27" viewBox="0 0 19 27" fill="none" xmlns="http://www.w3.org/2000/svg">
<path d="M8.67206 20.925C8.84608 21.1939 9.15194 21.3732 9.49999 21.3732C9.84804 21.3732 10.1539 21.1939 10.3332 20.925L16.1445 11.9496C16.925 10.742 17.3785 9.41309 17.3785 7.87324C17.3732 3.42246 13.8769 0 9.49999 0C5.12303 0 1.62675 3.42246 1.62675 7.87324C1.62675 9.41309 2.08026 10.742 2.86073 11.9496L8.67206 20.925ZM9.49999 3.375C11.9838 3.375 13.9982 5.38945 13.9982 7.87324C13.9982 10.357 11.9838 12.3715 9.49999 12.3715C7.0162 12.3715 5.00175 10.357 5.00175 7.87324C5.00175 5.38945 7.0162 3.375 9.49999 3.375ZM15.2691 17.0596L9.49999 24.7482L3.73085 17.0596C1.75858 18.0932 0.49823 19.6383 0.49823 21.3732C0.49823 24.4793 4.52714 27 9.49999 27C14.4728 27 18.5017 24.4793 18.5017 21.3732C18.5017 19.6383 17.2414 18.0932 15.2691 17.0596Z" fill="#95FC7B"/>
</svg>
