<svg width="23" height="23" viewBox="0 0 23 23" fill="none" xmlns="http://www.w3.org/2000/svg">
<g id="hotel-1-svgrepo-com 1" clip-path="url(#clip0_1069_6328)">
<g id="Group">
<path id="Vector" d="M18.3186 8.54423H14.1786V3.71145C14.1782 1.66112 12.5175 0.000449219 10.4672 0H4.6814C2.63107 0.000449219 0.970402 1.66112 0.969908 3.71145V23H2.63242V3.71145C2.63287 3.14318 2.86062 2.6362 3.23271 2.26276C3.60619 1.89063 4.11314 1.66292 4.6814 1.66242H10.4672C11.0354 1.66287 11.5424 1.89063 11.9158 2.26276C12.2879 2.6362 12.5157 3.14318 12.5161 3.71145V23H14.1786V10.2067H18.3186C18.8869 10.2071 19.3939 10.4349 19.7673 10.807C20.1394 11.1805 20.3671 11.6875 20.3676 12.2557V23H22.0301V12.2557C22.0296 10.2054 20.3689 8.54468 18.3186 8.54423Z" fill="white"/>
<path id="Vector_2" d="M6.42962 5.91156H5.00075V8.33626H6.42962V5.91156Z" fill="white"/>
<path id="Vector_3" d="M9.96291 5.91156H8.53403V8.33626H9.96291V5.91156Z" fill="white"/>
<path id="Vector_4" d="M6.42962 11.4538H5.00075V13.8785H6.42962V11.4538Z" fill="white"/>
<path id="Vector_5" d="M9.96291 11.4538H8.53403V13.8785H9.96291V11.4538Z" fill="white"/>
<path id="Vector_6" d="M6.42962 16.996H5.00075V19.4207H6.42962V16.996Z" fill="white"/>
<path id="Vector_7" d="M9.96291 16.996H8.53403V19.4207H9.96291V16.996Z" fill="white"/>
<path id="Vector_8" d="M17.7566 13.0125H16.3278V15.4372H17.7566V13.0125Z" fill="white"/>
<path id="Vector_9" d="M17.7566 18.3238H16.3278V20.7485H17.7566V18.3238Z" fill="white"/>
</g>
</g>
<defs>
<clipPath id="clip0_1069_6328">
<rect width="23" height="23" fill="white"/>
</clipPath>
</defs>
</svg>
