<svg width="44" height="50" viewBox="0 0 44 50" fill="none" xmlns="http://www.w3.org/2000/svg">
<g filter="url(#filter0_d_1550_1282)">
<rect x="1" y="1" width="40" height="40" rx="10" fill="#752E6E"/>
<path d="M27.3186 16.5442H23.1786V11.7114C23.1782 9.66112 21.5175 8.00045 19.4672 8H13.6814C11.6311
8.00045 9.9704 9.66112 9.96991 11.7114V31H11.6324V11.7114C11.6329 11.1432 11.8606 10.6362 12.2327
10.2628C12.6062 9.89063 13.1131 9.66292 13.6814 9.66242H19.4672C20.0354 9.66287 20.5424 9.89063 20.9158
10.2628C21.2879 10.6362 21.5157 11.1432 21.5161 11.7114V31H23.1786V18.2067H27.3186C27.8869 18.2071 28.3939
18.4349 28.7673 18.807C29.1394 19.1805 29.3671 19.6875 29.3676 20.2557V31H31.0301V20.2557C31.0296
18.2054 29.3689 16.5447 27.3186 16.5442Z" fill="white"/>
<path d="M15.4296 13.9116H14.0007V16.3363H15.4296V13.9116Z" fill="white"/>
<path d="M18.9629 13.9116H17.534V16.3363H18.9629V13.9116Z" fill="white"/>
<path d="M15.4296 19.4538H14.0007V21.8785H15.4296V19.4538Z" fill="white"/>
<path d="M18.9629 19.4538H17.534V21.8785H18.9629V19.4538Z" fill="white"/>
<path d="M15.4296 24.996H14.0007V27.4207H15.4296V24.996Z" fill="white"/>
<path d="M18.9629 24.996H17.534V27.4207H18.9629V24.996Z" fill="white"/>
<path d="M26.7566 21.0125H25.3278V23.4372H26.7566V21.0125Z" fill="white"/>
<path d="M26.7566 26.3238H25.3278V28.7485H26.7566V26.3238Z" fill="white"/>
<path d="M15 40.364L27.728 40.364L21.364 46.728L15 40.364Z" fill="#752E6E"/>
</g>
<defs>
<filter id="filter0_d_1550_1282" x="0" y="0" width="44" height="49.728" filterUnits="userSpaceOnUse" color-interpolation-filters="sRGB">
<feFlood flood-opacity="0" result="BackgroundImageFix"/>
<feColorMatrix in="SourceAlpha" type="matrix" values="0 0 0 0 0 0 0 0 0 0 0 0 0 0 0 0 0 0 127 0" result="hardAlpha"/>
<feOffset dx="1" dy="1"/>
<feGaussianBlur stdDeviation="1"/>
<feComposite in2="hardAlpha" operator="out"/>
<feColorMatrix type="matrix" values="0 0 0 0 0 0 0 0 0 0 0 0 0 0 0 0 0 0 0.15 0"/>
<feBlend mode="normal" in2="BackgroundImageFix" result="effect1_dropShadow_1550_1282"/>
<feBlend mode="normal" in="SourceGraphic" in2="effect1_dropShadow_1550_1282" result="shape"/>
</filter>
</defs>
</svg>
