<svg width="9" height="9" viewBox="0 0 9 9" fill="none" xmlns="http://www.w3.org/2000/svg">
<path id="Vector" fill-rule="evenodd" clip-rule="evenodd" d="M4.5 8.51735C6.9853 8.51735 9 6.73924 9 4.54579C9 2.35235 6.9853 0.574219 4.5 0.574219C2.01472 0.574219 0 2.35235 0 4.54579C0 6.73924 2.01472 8.51735 4.5 8.51735ZM5 2.11872C5 1.875 4.77615 1.67743 4.5 1.67743C4.22385 1.67743 4 1.875 4 2.11872V4.43546C4 4.74013 4.2798 4.98707 4.625 4.98707H6.25C6.52615 4.98707 6.75 4.78951 6.75 4.54579C6.75 4.30206 6.52615 4.1045 6.25 4.1045H5V2.11872Z" fill="#FFD600"/>
</svg>
