<svg width="6" height="6" viewBox="0 0 6 6" fill="none" xmlns="http://www.w3.org/2000/svg">
<path id="Vector" fill-rule="evenodd" clip-rule="evenodd" d="M3 6C4.65687 6 6 4.65687 6 3C6 1.34315 4.65687 0 3 0C1.34315 0 0 1.34315 0 3C0 4.65687 1.34315 6 3 6ZM3.33333 1.16667C3.33333 0.982573 3.1841 0.833333 3 0.833333C2.8159 0.833333 2.66667 0.982573 2.66667 1.16667V2.91667C2.66667 3.1468 2.8532 3.33333 3.08333 3.33333H4.16667C4.35077 3.33333 4.5 3.1841 4.5 3C4.5 2.8159 4.35077 2.66667 4.16667 2.66667H3.33333V1.16667Z" fill="#FFD600"/>
</svg>
