<svg width="27" height="27" viewBox="0 0 27 27" fill="none" xmlns="http://www.w3.org/2000/svg">
<g id="location-3-svgrepo-com 1">
<path id="Vector" d="M12.6721 20.925C12.8461 21.1939 13.1519 21.3732 13.5 21.3732C13.848 21.3732 14.1539 21.1939 14.3332 20.925L20.1445 11.9496C20.925 10.742 21.3785 9.41309 21.3785 7.87324C21.3732 3.42246 17.8769 0 13.5 0C9.12304 0 5.62675 3.42246 5.62675 7.87324C5.62675 9.41309 6.08026 10.742 6.86073 11.9496L12.6721 20.925ZM13.5 3.375C15.9838 3.375 17.9982 5.38945 17.9982 7.87324C17.9982 10.357 15.9838 12.3715 13.5 12.3715C11.0162 12.3715 9.00175 10.357 9.00175 7.87324C9.00175 5.38945 11.0162 3.375 13.5 3.375ZM19.2691 17.0596L13.5 24.7482L7.73085 17.0596C5.75858 18.0932 4.49823 19.6383 4.49823 21.3732C4.49823 24.4793 8.52714 27 13.5 27C18.4728 27 22.5017 24.4793 22.5017 21.3732C22.5017 19.6383 21.2414 18.0932 19.2691 17.0596Z" fill="#95FC7B"/>
</g>
</svg>
