<svg width="40" height="40" viewBox="0 0 40 40" fill="none" xmlns="http://www.w3.org/2000/svg">
<rect width="40" height="40" rx="11" fill="#988645"/>
<path d="M7 17.6897H33L31.9679 15H8.15114L7 17.6897Z" fill="white"/>
<path d="M7.89655 18.5862H32.1034L31.1426 23.9655H8.96831L7.89655 18.5862Z" fill="white"/>
<rect x="14.939" y="19.9083" width="10.515" height="2.28036" fill="#988645"/>
<path d="M17.8106 24.7953C17.8106 25.275 17.7161 25.75 17.5325 26.1932C17.349 26.6364 17.0799 27.0391 16.7407 27.3783C16.4015 27.7175 15.9988 27.9865 15.5557 28.1701C15.1125 28.3537 14.6375 28.4481 14.1578 28.4481C13.6781 28.4481 13.2031 28.3537 12.7599 28.1701C12.3168 27.9865 11.9141 27.7175 11.5749 27.3783C11.2357 27.0391 10.9666 26.6364 10.783 26.1932C10.5995 25.75 10.505 25.275 10.505 24.7953L14.1578 24.7953H17.8106Z" fill="white"/>
<circle cx="15.0446" cy="26.7802" r="0.865692" fill="#988645"/>
<circle cx="13.7241" cy="26.2069" r="0.448276" fill="#988645"/>
</svg>
