<svg width="14" height="14" viewBox="0 0 14 14" fill="none" xmlns="http://www.w3.org/2000/svg">
<g id="task-svgrepo-com 1" clip-path="url(#clip0_2139_8181)">
<path id="Path 40" fill-rule="evenodd" clip-rule="evenodd" d="M8.90638 3.48975L6.26429 6.32324L5.05345 5.02526L3.9375 6.2224L6.31042 8.74743L10.0608 4.72705L8.90638 3.48975Z" fill="#C3C3C3"/>
<path id="Path 41" fill-rule="evenodd" clip-rule="evenodd" d="M13.125 1.54433e-07H0.875C0.760074 -6.81436e-05 0.646262 0.0225178 0.540071 0.0664665C0.433881 0.110415 0.337394 0.174865 0.256129 0.256129C0.174865 0.337394 0.110415 0.433881 0.0664665 0.540071C0.0225178 0.646262 -6.81436e-05 0.760074 1.54433e-07 0.875V13.125C-6.81436e-05 13.2399 0.0225178 13.3537 0.0664665 13.4599C0.110415 13.5661 0.174865 13.6626 0.256129 13.7439C0.337394 13.8251 0.433881 13.8896 0.540071 13.9335C0.646262 13.9775 0.760074 14.0001 0.875 14H13.125C13.2399 14.0001 13.3537 13.9775 13.4599 13.9335C13.5661 13.8896 13.6626 13.8251 13.7439 13.7439C13.8251 13.6626 13.8896 13.5661 13.9335 13.4599C13.9775 13.3537 14.0001 13.2399 14 13.125V0.875C14.0001 0.760074 13.9775 0.646262 13.9335 0.540071C13.8896 0.433881 13.8251 0.337394 13.7439 0.256129C13.6626 0.174865 13.5661 0.110415 13.4599 0.0664665C13.3537 0.0225178 13.2399 -6.81436e-05 13.125 1.54433e-07ZM12.25 9.625H9.625V12.25H4.375V9.625H1.75V1.75H12.25V9.625Z" fill="#C3C3C3"/>
</g>
<defs>
<clipPath id="clip0_2139_8181">
<rect width="14" height="14" fill="white"/>
</clipPath>
</defs>
</svg>
