<svg width="22" height="21" viewBox="0 0 22 21" fill="none" xmlns="http://www.w3.org/2000/svg">
<path fill-rule="evenodd" clip-rule="evenodd" d="M1 0.25C0.585786 0.25 0.25 0.585786 0.25 1C0.25 1.41421 0.585786 1.75 1 1.75H3V11.2774C3 12.6175 3 13.2875 3.2681 13.8783C3.5362 14.4692 4.04046 14.9104 5.04897 15.7928L7.04897 17.5429C8.93152 19.1901 9.8728 20.0137 11 20.0137C12.1272 20.0137 13.0685 19.1901 14.951 17.5429L16.951 15.7929C17.9595 14.9104 18.4638 14.4692 18.7319 13.8783C19 13.2875 19 12.6175 19 11.2774V1.75H21C21.4142 1.75 21.75 1.41421 21.75 1C21.75 0.585786 21.4142 0.25 21 0.25H1ZM7.5 11.25C7.08579 11.25 6.75 11.5858 6.75 12C6.75 12.4142 7.08579 12.75 7.5 12.75H14.5C14.9142 12.75 15.25 12.4142 15.25 12C15.25 11.5858 14.9142 11.25 14.5 11.25H7.5ZM6.75 7C6.75 6.58579 7.08579 6.25 7.5 6.25H14.5C14.9142 6.25 15.25 6.58579 15.25 7C15.25 7.41421 14.9142 7.75 14.5 7.75H7.5C7.08579 7.75 6.75 7.41421 6.75 7Z" fill="#FFD600"/>
</svg>
