<svg width="18" height="18" viewBox="0 0 18 18" fill="none" xmlns="http://www.w3.org/2000/svg">
<path d="M6.26384 15.1814C6.89466 15.9833 7.88564 16.5 9 16.5C10.1144 16.5 11.1053 15.9833 11.7362 15.1814C9.91982 15.4275 8.08018 15.4275 6.26384 15.1814Z" fill="#FFD600"/>
<path d="M14.0618 6.75V7.27808C14.0618 7.91182 14.2427 8.53138 14.5817 9.05869L15.4122 10.3509C16.1709 11.5311 15.5917 13.1354 14.2722 13.5087C10.8204 14.4851 7.17956 14.4851 3.72777 13.5087C2.40828 13.1354 1.82912 11.5311 2.58777 10.3509L3.41835 9.05869C3.75729 8.53138 3.93815 7.91182 3.93815 7.27808V6.75C3.93815 3.8505 6.20442 1.5 9 1.5C11.7956 1.5 14.0618 3.8505 14.0618 6.75Z" fill="#FFD600"/>
<circle cx="5" cy="4" r="2.75" fill="#FF0012" stroke="#343434" stroke-width="0.5"/>
</svg>
