<svg width="18" height="18" viewBox="0 0 18 18" fill="none" xmlns="http://www.w3.org/2000/svg">
<path fill-rule="evenodd" clip-rule="evenodd" d="M0.46728 5.24047C0 6.09415 0 7.12394 0 9.18353V10.5525C0 14.0633 0 15.8187 1.05442 16.9093C2.10883 18 3.80589 18 7.2 18H10.8C14.1941 18 15.8912 18 16.9456 16.9093C18 15.8187 18 14.0633 18 10.5525V9.18353C18 7.12394 18 6.09415 17.5327 5.24047C17.0654 4.38679 16.2118 3.85696 14.5044 2.79731L12.7044 1.68018C10.8996 0.560061 9.99714 0 9 0C8.00286 0 7.10045 0.560061 5.29563 1.68018L3.49563 2.79731C1.78825 3.85696 0.934561 4.38679 0.46728 5.24047ZM6.3 13.725C5.92721 13.725 5.625 14.0272 5.625 14.4C5.625 14.7728 5.92721 15.075 6.3 15.075H11.7C12.0728 15.075 12.375 14.7728 12.375 14.4C12.375 14.0272 12.0728 13.725 11.7 13.725H6.3Z" fill="#FFD600"/>
</svg>
