<svg width="18" height="16" viewBox="0 0 18 16" fill="none" xmlns="http://www.w3.org/2000/svg">
<path d="M10.1221 0C8.6222 0 7.35728 1.06828 7.35728 2.43531C7.35728 3.12581 7.68027 3.73988 8.19302 4.17872L8.51392 3.55416C8.21563 3.24686 8.03898 2.85478 8.03898 2.43531C8.03898 1.48479 8.94455 0.674393 10.1221 0.674393C11.2996 0.674393 12.2051 1.48479 12.2051 2.43531C12.2051 3.08733 11.7789 3.67342 11.1312 3.97719L10.8478 4.78481C10.9198 4.76751 10.9907 4.74787 11.0604 4.72562L11.4072 5.32557C11.0162 5.59768 10.6376 5.93499 10.2319 6.35484L13.3129 13.076C15.2167 13.1628 17.0535 12.1642 18 10.5279L13.916 4.35208C13.1523 4.50296 12.5378 4.6913 11.9892 4.97394L11.6828 4.44402C12.4045 4.00885 12.8869 3.2792 12.8869 2.43534C12.8869 1.06831 11.622 3.75886e-05 10.1221 3.75886e-05V0ZM5.47623 0.222812C5.37548 0.223936 5.26966 0.240421 5.16748 0.273316C4.93379 0.348399 4.73609 0.503134 4.65011 0.670084L4.63921 0.69144L2.18102 4.14946C2.10016 4.31626 2.09081 4.55961 2.16371 4.78526C2.23833 5.01594 2.39266 5.20882 2.55011 5.28814L7.99194 8.02917C8.14616 8.10691 8.39303 8.11927 8.62247 8.04517C8.84763 7.97248 9.03894 7.82468 9.1301 7.65207L10.0906 4.86983C10.0925 4.86983 10.0944 4.86994 10.0963 4.86998L10.3359 4.18697C10.3326 4.18727 10.3293 4.18734 10.326 4.18764L10.5118 3.64944L10.5228 3.62816C10.6088 3.46121 10.619 3.21153 10.5436 2.98066C10.4683 2.7498 10.3126 2.55524 10.1485 2.47255L8.93353 1.86061C8.68572 2.16701 8.60971 2.60499 8.92043 3.01719L9.00034 3.14953L9.38999 3.35184L9.0773 3.95932L9.07177 3.9567L8.76431 4.55503C8.76601 4.5559 8.76772 4.55665 8.76942 4.55747L8.5307 5.02115L4.68306 3.0831L5.38775 1.71416L5.54235 1.41368L6.71092 2.00235C6.76986 1.6348 6.89734 1.2812 7.10235 0.938155L5.82243 0.293548C5.72722 0.245591 5.60576 0.221426 5.47623 0.222812ZM13.7301 5.14513L14.6422 6.7869L11.9204 8.26644L11.1724 6.92028L11.0083 6.62478L13.7301 5.14517V5.14513ZM13.4609 6.06095L11.9341 6.89098L12.1895 7.35069L13.7163 6.52066L13.4609 6.06095ZM3.64077 6.59432L2.85033 8.13018L5.48289 9.45618L6.27344 7.92037L3.64077 6.59432ZM14.8975 7.24661L15.8095 8.88827L13.0878 10.3678L12.3399 9.02165L12.1758 8.72615L14.8976 7.24654L14.8975 7.24661ZM14.6284 8.16236L13.1015 8.99239L13.3569 9.4521L14.8838 8.62207L14.6284 8.16236H14.6284ZM3.08099 9.0031H3.08091L0 14.9886L0.231904 15.694L3.15821 10.009L3.76564 10.3151L0.839405 16L1.68684 15.7274L2.17799 15.5694L1.9134 14.7618L2.72755 14.5007L2.46258 13.6949L3.27763 13.4327L3.07425 12.8143L4.63353 9.7851L3.08099 9.0031Z" fill="#C2C2C2"/>
</svg>
