<svg width="15" height="13" viewBox="0 0 15 13" fill="none" xmlns="http://www.w3.org/2000/svg">
<path id="Vector" fill-rule="evenodd" clip-rule="evenodd" d="M0.0261386 7.80217V12.4583C0.0261386 12.7573 0.277248 13 0.58665 13H1.79287C1.92561 13 2.05405 12.9545 2.15533 12.8716C2.25661 12.7887 2.32414 12.6737 2.34591 12.5472L2.64186 10.8333H12.3574L12.6526 12.5472C12.6744 12.6737 12.7419 12.7887 12.8432 12.8716C12.9445 12.9545 13.0729 13 13.2056 13H14.4126C14.5613 13 14.7038 12.9429 14.8089 12.8413C14.9141 12.7398 14.9731 12.602 14.9731 12.4583V7.80217C14.9732 6.95314 14.7131 6.1231 14.2258 5.41667L13.6428 4.57167C13.5908 4.49644 13.5463 4.41664 13.5098 4.33333H14.2527C14.3568 4.33333 14.4589 4.30528 14.5475 4.25234C14.6361 4.1994 14.7076 4.12366 14.7541 4.03361L14.941 3.6725C14.9836 3.58997 15.0037 3.49829 14.9994 3.40615C14.9951 3.314 14.9665 3.22444 14.9164 3.14596C14.8662 3.06748 14.7962 3.00267 14.7129 2.95768C14.6295 2.91269 14.5357 2.88901 14.4403 2.88889H13.1795L12.9478 1.77233C12.8773 1.43228 12.707 1.11904 12.4572 0.870056C12.2073 0.621076 11.8886 0.446894 11.539 0.368333C10.4464 0.122778 9.0997 0 7.49963 0C5.8988 0 4.55283 0.122778 3.46021 0.368333C3.11052 0.446771 2.79162 0.6209 2.54166 0.869889C2.29169 1.11888 2.12125 1.43219 2.05071 1.77233L1.81903 2.88889H0.559746C0.464297 2.88901 0.370462 2.91269 0.287135 2.95768C0.203809 3.00267 0.13375 3.06748 0.0836006 3.14596C0.0334508 3.22444 0.00487085 3.314 0.000569512 3.40615C-0.00373182 3.49829 0.0163879 3.58997 0.0590219 3.6725L0.245859 4.03361C0.292322 4.12355 0.363767 4.19922 0.452199 4.25215C0.540631 4.30509 0.642561 4.3332 0.746583 4.33333H1.49019C1.45368 4.41663 1.40914 4.49643 1.35717 4.57167L0.773487 5.41667C0.286216 6.123 0.0261386 6.95283 0.0261386 7.80217ZM11.9546 4.33622C12.0061 4.58602 12.0915 4.82813 12.2087 5.05628H2.79058C2.90792 4.82878 2.99311 4.58683 3.04468 4.33622L3.517 2.05617C3.53095 1.988 3.56494 1.92516 3.61492 1.8752C3.6649 1.82524 3.72873 1.79028 3.79875 1.7745C4.76881 1.55783 6.00493 1.44444 7.49963 1.44444C8.99432 1.44444 10.2304 1.55711 11.2005 1.77522C11.2706 1.79082 11.3345 1.82563 11.3846 1.87546C11.4347 1.92529 11.4689 1.98804 11.483 2.05617L11.9546 4.33622ZM2.64186 8.66667C2.93917 8.66667 3.22431 8.55253 3.43454 8.34937C3.64477 8.1462 3.76288 7.87065 3.76288 7.58333C3.76288 7.29602 3.64477 7.02046 3.43454 6.8173C3.22431 6.61414 2.93917 6.5 2.64186 6.5C2.34455 6.5 2.05941 6.61414 1.84918 6.8173C1.63894 7.02046 1.52084 7.29602 1.52084 7.58333C1.52084 7.87065 1.63894 8.1462 1.84918 8.34937C2.05941 8.55253 2.34455 8.66667 2.64186 8.66667ZM13.4784 7.58333C13.4784 7.87065 13.3603 8.1462 13.1501 8.34937C12.9398 8.55253 12.6547 8.66667 12.3574 8.66667C12.0601 8.66667 11.7749 8.55253 11.5647 8.34937C11.3545 8.1462 11.2364 7.87065 11.2364 7.58333C11.2364 7.29602 11.3545 7.02046 11.5647 6.8173C11.7749 6.61414 12.0601 6.5 12.3574 6.5C12.6547 6.5 12.9398 6.61414 13.1501 6.8173C13.3603 7.02046 13.4784 7.29602 13.4784 7.58333Z" fill="#5B5845"/>
</svg>
