<svg width="19" height="19" viewBox="0 0 19 19" fill="none" xmlns="http://www.w3.org/2000/svg">
<path d="M15.0772 18.9104C14.8677 18.8408 14.5463 18.7074 14.363 18.6126C13.4116 18.1205 2.87121 11.8647 2.76958 11.7319C2.57668 11.4798 2.62484 11.0025 2.86476 10.7881C2.98259 10.682 3.7432 10.3276 4.55498 9.99893C5.36675 9.67039 6.06805 9.37937 6.11341 9.35214C6.1587 9.32522 5.15194 8.85576 3.87602 8.30935C2.6001 7.76279 1.47913 7.24598 1.38498 7.1608C0.997203 6.80993 1.4393 6.33161 2.07917 6.40982C2.51368 6.46366 7.42316 8.61953 7.57831 8.82552C7.72131 9.01521 7.73351 9.46313 7.60238 9.70823C7.55012 9.8064 6.90666 10.1965 6.17245 10.5762C5.43823 10.9561 4.87037 11.2968 4.91051 11.3334C4.95058 11.3698 7.44742 12.7182 10.4589 14.3294C17.0953 17.8798 16.7126 17.6653 16.8904 17.9365C17.3157 18.5855 16.0901 19.2439 15.0772 18.9104ZM16.2484 18.4484C16.5518 18.145 16.2579 17.801 15.6961 17.801C15.1128 17.801 14.7917 18.2242 15.1962 18.4598C15.4271 18.5944 16.1099 18.5865 16.2484 18.444V18.4484ZM2.25974 7.05108C2.48125 6.91016 2.30488 6.66221 1.98399 6.66221C1.80442 6.66221 1.66988 6.72079 1.63385 6.81421C1.57193 6.97571 1.74581 7.13499 1.98399 7.13499C2.06254 7.13499 2.18664 7.09699 2.25974 7.05108ZM15.2429 15.9208C13.7531 14.0129 12.4599 11.468 12.3033 10.1357C12.1714 9.01362 12.798 7.72146 13.7978 7.05393C16.3843 5.32714 19.6397 7.68124 18.8908 10.7369C18.6615 11.6722 17.7687 13.4557 16.8557 14.8021C15.6806 16.5348 15.7078 16.5159 15.2429 15.9208ZM16.3653 11.4505C16.9264 11.0639 17.0078 10.5294 16.572 10.0936L16.3051 9.82682L16.5244 9.57207C16.8406 9.20441 16.815 8.76551 16.4574 8.42288C16.1945 8.17113 16.1014 8.14548 15.3147 8.10779L14.4582 8.06663V9.83949V11.6124H15.294C15.9259 11.6124 16.1873 11.5731 16.3653 11.4505ZM15.22 10.5237C15.22 10.217 15.245 10.1848 15.4819 10.1861C15.85 10.1861 16.0037 10.3127 15.9663 10.5762C15.9399 10.7631 15.8707 10.8088 15.5771 10.833C15.2258 10.8615 15.22 10.8568 15.22 10.5237ZM15.22 9.17908C15.22 8.85561 15.2343 8.8412 15.5199 8.86954C16.1185 8.9297 16.095 9.51823 15.4941 9.51823C15.2435 9.51823 15.22 9.48973 15.22 9.17908ZM1.24218 4.82095C0.18656 3.22494 -0.176335 2.1535 0.0779058 1.3832C0.330895 0.616868 1.15627 0.00411668 1.94149 0C2.49544 0 3.23675 0.395201 3.56822 0.873844C3.81011 1.22313 3.84069 1.349 3.83945 1.9893C3.83823 2.62565 3.7967 2.7957 3.4889 3.42523C3.05406 4.31444 2.15729 5.65346 1.97259 5.68941C1.88882 5.70524 1.60138 5.36403 1.24218 4.82095ZM1.47344 2.90162C1.51081 2.80504 1.66291 2.75912 1.94957 2.75912C2.23621 2.75912 2.38838 2.80504 2.42568 2.90162C2.47113 3.02037 2.93623 3.11886 2.93623 3.01087C2.93623 2.99187 2.71775 2.50991 2.4507 1.93975L1.96518 0.903136L1.76874 1.28393C1.66074 1.4934 1.43035 1.97537 1.25683 2.3549L0.941347 3.04523H1.17999C1.31127 3.04523 1.4433 2.97921 1.47344 2.90162ZM1.79354 2.29046C1.79354 2.24296 1.82094 2.13181 1.85436 2.04456C1.90297 1.9179 1.93148 1.91156 1.99578 2.0129C2.12089 2.21034 2.09365 2.37801 1.93639 2.37801C1.85784 2.37801 1.79354 2.33796 1.79354 2.29046Z" fill="#FFD600"/>
</svg>
