<svg width="19" height="15" viewBox="0 0 19 15" fill="none" xmlns="http://www.w3.org/2000/svg">
<path d="M15.3 7.63003V4.90002H2.94995V7.63003C2.94995 9.31946 3.60053 10.9397 4.75857 12.1343C5.91661 13.3289 7.48724 14 9.12495 14C10.7627 14 12.3333 13.3289 13.4913 12.1343C14.6494 10.9397 15.3 9.31946 15.3 7.63003Z" fill="#C2C2C2"/>
<path d="M8.79999 9.44995H9.44999" stroke="#C2C2C2" stroke-width="4" stroke-linecap="round" stroke-linejoin="round"/>
<path d="M9.125 14C7.44898 14 5.84161 13.3152 4.65648 12.0962C3.47135 10.8772 2.80556 9.22391 2.80556 7.5V4.71429H15.4445V7.5C15.4445 9.22391 14.7787 10.8772 13.5935 12.0962C12.4084 13.3152 10.801 14 9.125 14ZM17.25 3.78572V1H1V3.78572C1 4.03199 1.09511 4.26817 1.26442 4.44231C1.43372 4.61646 1.66335 4.71429 1.90278 4.71429H16.3472C16.5867 4.71429 16.8163 4.61646 16.9856 4.44231C17.1549 4.26817 17.25 4.03199 17.25 3.78572Z" stroke="#C2C2C2" stroke-width="2" stroke-linecap="round" stroke-linejoin="round"/>
</svg>
