<svg width="17" height="17" viewBox="0 0 17 17" fill="none" xmlns="http://www.w3.org/2000/svg">
<g id="Vector">
<path d="M5.81579 2.72C5.81579 4.22221 7.01755 5.43999 8.5 5.43999C9.98245 5.43999 11.1842 4.22221 11.1842 2.72C11.1842 1.21778 9.98245 0 8.5 0C7.01755 0 5.81579 1.21778 5.81579 2.72Z" fill="#5B5845"/>
<path d="M0 13.6C0 15.1022 1.20176 16.32 2.68421 16.32C4.16666 16.32 5.36842 15.1022 5.36842 13.6C5.36842 12.0978 4.16666 10.88 2.68421 10.88C1.20176 10.88 0 12.0978 0 13.6Z" fill="#5B5845"/>
<path d="M14.3158 16.32C12.8333 16.32 11.6316 15.1022 11.6316 13.6C11.6316 12.0978 12.8333 10.88 14.3158 10.88C15.7982 10.88 17 12.0978 17 13.6C17 15.1022 15.7982 16.32 14.3158 16.32Z" fill="#5B5845"/>
<path d="M4.20945 4.13649C4.48731 3.88797 4.51375 3.45825 4.26851 3.17669C4.02326 2.89512 3.5992 2.86832 3.32134 3.11684C1.6971 4.56951 0.671053 6.6971 0.671053 9.06668C0.671053 9.44223 0.971493 9.74668 1.34211 9.74668C1.71272 9.74668 2.01316 9.44223 2.01316 9.06668C2.01316 7.10349 2.86162 5.34195 4.20945 4.13649Z" fill="#5B5845"/>
<path d="M13.6787 3.11684C13.4008 2.86832 12.9767 2.89512 12.7315 3.17669C12.4862 3.45825 12.5127 3.88797 12.7906 4.13649C14.1384 5.34195 14.9868 7.10349 14.9868 9.06668C14.9868 9.44223 15.2873 9.74668 15.6579 9.74668C16.0285 9.74668 16.3289 9.44223 16.3289 9.06668C16.3289 6.6971 15.3029 4.56951 13.6787 3.11684Z" fill="#5B5845"/>
<path d="M6.87779 15.433C6.51888 15.3393 6.15303 15.5583 6.06065 15.922C5.96828 16.2857 6.18435 16.6564 6.54326 16.75C7.1694 16.9133 7.8252 17 8.5 17C9.1748 17 9.8306 16.9133 10.4567 16.75C10.8157 16.6564 11.0317 16.2857 10.9393 15.922C10.847 15.5583 10.4811 15.3393 10.1222 15.433C9.60444 15.568 9.06101 15.64 8.5 15.64C7.93899 15.64 7.39556 15.568 6.87779 15.433Z" fill="#5B5845"/>
</g>
</svg>
