<svg width="20" height="20" viewBox="0 0 20 20" fill="none" xmlns="http://www.w3.org/2000/svg">
<g id="log-out-exit-svgrepo-com 1">
<path id="Vector" fill-rule="evenodd" clip-rule="evenodd" d="M15.7681 9.06255H5.76624C5.24874 9.06255 4.82874 9.48255 4.82874 10C4.82874 10.5175 5.24874 10.9375 5.76624 10.9375H15.79L13.8437 12.8838C13.4781 13.2494 13.4781 13.8438 13.8437 14.2094C14.21 14.5757 14.8037 14.5757 15.17 14.2094C15.17 14.2094 16.7744 12.605 17.8212 11.5582C18.6756 10.7038 18.6756 9.3188 17.8212 8.46442L15.17 5.81255C14.8037 5.44692 14.21 5.44692 13.8437 5.81255C13.4781 6.1788 13.4781 6.77255 13.8437 7.1388L15.7681 9.06255Z" fill="#5B5845"/>
<path id="Vector_2" fill-rule="evenodd" clip-rule="evenodd" d="M12.5 15V12.1875H5.76625C4.55875 12.1875 3.57875 11.2075 3.57875 10C3.57875 8.7925 4.55875 7.8125 5.76625 7.8125H12.5V5C12.5 3.27438 11.1006 1.875 9.375 1.875C8.02125 1.875 6.35375 1.875 5 1.875C4.17125 1.875 3.37625 2.20438 2.79 2.79C2.20438 3.37625 1.875 4.17125 1.875 5C1.875 7.77437 1.875 12.2256 1.875 15C1.875 15.8287 2.20438 16.6237 2.79 17.21C3.37625 17.7956 4.17125 18.125 5 18.125C6.35375 18.125 8.02125 18.125 9.375 18.125C10.2037 18.125 10.9987 17.7956 11.585 17.21C12.1706 16.6237 12.5 15.8287 12.5 15Z" fill="#5B5845"/>
</g>
</svg>
