<svg width="20" height="20" viewBox="0 0 20 20" fill="none" xmlns="http://www.w3.org/2000/svg">
<g id="Group 3379">
<path id="primary" d="M10 20C15.5228 20 20 15.5228 20 10C20 4.47715 15.5228 0 10 0C4.47715 0 0 4.47715 0 10C0 15.5228 4.47715 20 10 20Z" fill="#FFD600"/>
<path id="Vector" d="M15 5.715C15 5.32013 14.5062 5 13.8971 5L6.10293 5C5.49382 5 5 5.32013 5 5.715C5 6.10987 5.49382 6.43 6.10293 6.43L13.8971 6.43C14.5062 6.43 15 6.10987 15 5.715Z" fill="black"/>
<path id="Vector_2" d="M15 9.7141C15 9.31973 14.5062 9 13.8971 9H6.10293C5.49382 9 5 9.31973 5 9.7141C5 10.1085 5.49382 10.4282 6.10293 10.4282H13.8971C14.5062 10.4282 15 10.1085 15 9.7141Z" fill="black"/>
<path id="Vector_3" d="M15 13.7141C15 13.3197 14.5062 13 13.8971 13H6.10293C5.49382 13 5 13.3197 5 13.7141C5 14.1085 5.49382 14.4282 6.10293 14.4282H13.8971C14.5062 14.4282 15 14.1085 15 13.7141Z" fill="black"/>
</g>
</svg>
