<svg width="20" height="20" viewBox="0 0 20 20" fill="none" xmlns="http://www.w3.org/2000/svg">
<g id="Group 2785" opacity="0.6">
<path id="primary" d="M10 20C15.5228 20 20 15.5228 20 10C20 4.47715 15.5228 0 10 0C4.47715 0 0 4.47715 0 10C0 15.5228 4.47715 20 10 20Z" fill="#FFD600"/>
<path id="secondary" d="M13.3665 6.71271C13.1664 6.48681 12.9286 6.30756 12.6668 6.18526C12.405 6.06296 12.1243 6 11.8408 6C11.5574 6 11.2767 6.06296 11.0149 6.18526C10.753 6.30756 10.5153 6.48681 10.3152 6.71271L6.20844 11.3329C6.14016 11.4103 6.08651 11.5024 6.05072 11.6038C6.01494 11.7051 5.99776 11.8136 6.00023 11.9226L6.03613 14.1519C6.03613 14.3661 6.11177 14.5716 6.24642 14.723C6.38106 14.8745 6.56368 14.9596 6.75409 14.9596L8.75002 15C8.93837 14.9991 9.11886 14.915 9.25259 14.7658L13.3665 10.1132C13.5673 9.88812 13.7266 9.62062 13.8353 9.32608C13.944 9.03154 14 8.71575 14 8.39682C14 8.0779 13.944 7.76211 13.8353 7.46757C13.7266 7.17303 13.5673 6.90552 13.3665 6.6804V6.71271Z" fill="#25210E"/>
</g>
</svg>
