<svg width="21" height="20" viewBox="0 0 21 20" fill="none" xmlns="http://www.w3.org/2000/svg">
<path d="M20.0837 9.60046C20.0837 11.4959 19.5217 13.3489 18.4686 14.9249C17.4155 16.5009 15.9187 17.7293 14.1675 18.4547C12.4163 19.1801 10.4894 19.3698 8.63031 19.0001C6.77124 18.6303 5.06359 17.7175 3.72328 16.3772C2.38297 15.0369 1.4702 13.3292 1.10041 11.4702C0.730622 9.61109 0.920412 7.68412 1.64578 5.93292C2.37115 4.18172 3.59952 2.68495 5.17556 1.63187C6.7516 0.5788 8.60452 0.0167236 10.5 0.0167236C11.7586 0.0167236 13.0048 0.264614 14.1675 0.746242C15.3303 1.22787 16.3868 1.9338 17.2767 2.82374C18.1667 3.71367 18.8726 4.77017 19.3542 5.93292C19.8358 7.09568 20.0837 8.34191 20.0837 9.60046ZM15.3046 7.83915L14.387 5.47257C14.3135 5.29857 14.1916 5.1493 14.0359 5.04246C13.8801 4.93561 13.697 4.87566 13.5082 4.86972H7.53905C7.35005 4.87544 7.16666 4.93528 7.01066 5.04214C6.85466 5.149 6.73261 5.29839 6.659 5.47257L5.74263 7.83915C5.37758 7.9392 5.05539 8.15615 4.82538 8.45677C4.59538 8.75739 4.47025 9.12511 4.46916 9.50362V11.9804C4.46948 12.082 4.51001 12.1795 4.58191 12.2513C4.6538 12.3232 4.75122 12.3638 4.8529 12.3641H5.45332V13.7526C5.45364 13.8288 5.48413 13.9017 5.53813 13.9555C5.59212 14.0093 5.66522 14.0395 5.74142 14.0395H6.82121C6.8972 14.0391 6.96999 14.0088 7.02373 13.9551C7.07746 13.9013 7.10779 13.8286 7.10811 13.7526V12.3641H13.9403V13.7526C13.9406 13.8286 13.971 13.9013 14.0247 13.9551C14.0784 14.0088 14.1512 14.0391 14.2272 14.0395H15.307C15.3832 14.0395 15.4563 14.0093 15.5103 13.9555C15.5643 13.9017 15.5948 13.8288 15.5951 13.7526V12.3641H16.1955C16.2972 12.3638 16.3946 12.3232 16.4665 12.2513C16.5384 12.1795 16.5789 12.082 16.5793 11.9804V9.50362C16.5782 9.12511 16.453 8.75739 16.223 8.45677C15.993 8.15615 15.6708 7.9392 15.3058 7.83915H15.3046ZM6.29221 8.54367C6.10259 8.54367 5.91723 8.5999 5.75957 8.70525C5.6019 8.8106 5.47902 8.96033 5.40645 9.13552C5.33389 9.3107 5.3149 9.50347 5.3519 9.68945C5.38889 9.87543 5.4802 10.0463 5.61428 10.1803C5.74836 10.3144 5.91919 10.4057 6.10517 10.4427C6.29115 10.4797 6.48392 10.4607 6.65911 10.3882C6.83429 10.3156 6.98403 10.1927 7.08937 10.0351C7.19472 9.87739 7.25095 9.69203 7.25095 9.50241C7.25095 9.24814 7.14994 9.00428 6.97014 8.82448C6.79034 8.64468 6.54649 8.54367 6.29221 8.54367ZM13.507 5.63599C13.5414 5.64132 13.5741 5.65432 13.6028 5.67401C13.6315 5.69371 13.6554 5.7196 13.6728 5.74978L14.4596 7.77862H6.58637L7.37321 5.74978C7.39044 5.71974 7.41417 5.69394 7.44265 5.67426C7.47114 5.65457 7.50366 5.64149 7.53784 5.63599H13.5057H13.507ZM14.7659 8.54367C14.5763 8.54367 14.3909 8.5999 14.2333 8.70525C14.0756 8.8106 13.9527 8.96033 13.8801 9.13552C13.8076 9.3107 13.7886 9.50347 13.8256 9.68945C13.8626 9.87543 13.9539 10.0463 14.088 10.1803C14.222 10.3144 14.3929 10.4057 14.5789 10.4427C14.7648 10.4797 14.9576 10.4607 15.1328 10.3882C15.308 10.3156 15.4577 10.1927 15.5631 10.0351C15.6684 9.87739 15.7246 9.69203 15.7246 9.50241C15.7246 9.24835 15.6238 9.00467 15.4443 8.82491C15.2647 8.64514 15.02 8.54399 14.7659 8.54367Z" fill="#FFD600"/>
</svg>
