<svg width="20" height="20" viewBox="0 0 20 20" fill="none" xmlns="http://www.w3.org/2000/svg">
<circle cx="10" cy="10" r="10" fill="#CDCDCD"/>
<ellipse cx="9.875" cy="9.25" rx="3.375" ry="4.5" fill="white"/>
<path fill-rule="evenodd" clip-rule="evenodd" d="M9.05529 9.28923C9.05529 9.75253 9.42234 10.1281 9.87515 10.1281C10.328 10.1281 10.695 9.75253 10.695 9.28923V6.7727C10.695 6.30942 10.328 5.93385 9.87515 5.93385C9.42234 5.93385 9.05529 6.30942 9.05529 6.7727V9.28923ZM10.695 11.7964C10.695 11.3331 10.328 10.9575 9.87515 10.9575C9.42234 10.9575 9.05529 11.3331 9.05529 11.7964V11.8058C9.05529 12.2691 9.42234 12.6446 9.87515 12.6446C10.328 12.6446 10.695 12.2691 10.695 11.8058V11.7964ZM7.72494 2.2944C8.66209 0.568533 11.088 0.568533 12.0251 2.2944L17.437 12.2613C18.3477 13.9387 17.1622 16 15.2869 16H4.46313C2.58773 16 1.40229 13.9387 2.31306 12.2613L7.72494 2.2944Z" fill="#E71D36"/>
</svg>
