<svg width="10" height="10" viewBox="0 0 10 10" fill="none" xmlns="http://www.w3.org/2000/svg">
<g id="Group 2546">
<path id="Vector" d="M5.63108 4.19647C5.78649 4.33856 5.875 4.53943 5.875 4.74999C5.875 4.96056 5.78649 5.16143 5.63108 5.30352L1.25608 9.30352C0.950381 9.58302 0.475982 9.56177 0.196483 9.25607C-0.0830153 8.95037 -0.0617741 8.47597 0.243928 8.19647L3.1932 5.49999L3.14955 5.5399C3.14955 5.5399 3.6293 5.16421 3.6293 4.74999C3.6293 4.33578 3.14955 3.96008 3.14955 3.96008L3.1932 3.99999L0.243928 1.30352C-0.0617744 1.02402 -0.0830156 0.54962 0.196482 0.243918C0.475982 -0.0617829 0.950379 -0.083025 1.25608 0.196473L5.63108 4.19647Z" fill="#009739"/>
<path id="Vector_2" d="M4.24392 4.19647C4.08851 4.33856 4 4.53943 4 4.74999C4 4.96056 4.08851 5.16143 4.24392 5.30352L8.61892 9.30352C8.92462 9.58302 9.39902 9.56177 9.67852 9.25607C9.95802 8.95037 9.93677 8.47597 9.63107 8.19647L6.6818 5.49999L6.72545 5.5399C6.72545 5.5399 6.2457 5.16421 6.2457 4.74999C6.2457 4.33578 6.72545 3.96008 6.72545 3.96008L6.6818 3.99999L9.63107 1.30352C9.93677 1.02402 9.95802 0.54962 9.67852 0.243918C9.39902 -0.0617829 8.92462 -0.083025 8.61892 0.196473L4.24392 4.19647Z" fill="#009739"/>
</g>
</svg>
