<svg width="9" height="9" viewBox="0 0 9 9" fill="none" xmlns="http://www.w3.org/2000/svg">
<g id="Group 3213">
<path id="Vector" d="M6.38939 0H2.61609C0.977095 0 0 0.977095 0 2.61609V6.38489C0 8.02839 0.977095 9.00548 2.61609 9.00548H6.38489C8.02389 9.00548 9.00098 8.02839 9.00098 6.38939V2.61609C9.00548 0.977095 8.02839 0 6.38939 0Z" fill="#3D3D3D"/>
<path id="Vector_2" d="M3.86314 6.11504C3.77308 6.11504 3.68753 6.07901 3.62449 6.01597L2.35019 4.7417C2.21961 4.61112 2.21961 4.39499 2.35019 4.26441C2.48077 4.13383 2.6969 4.13383 2.82748 4.26441L3.86314 5.30004L6.17755 2.98563C6.30813 2.85505 6.52426 2.85505 6.65484 2.98563C6.78542 3.11621 6.78542 3.33234 6.65484 3.46292L4.10178 6.01597C4.03874 6.07901 3.95319 6.11504 3.86314 6.11504Z" fill="#979797"/>
</g>
</svg>
