<svg width="8" height="8" viewBox="0 0 8 8" fill="none" xmlns="http://www.w3.org/2000/svg">
<g id="Group 2547">
<circle id="Ellipse 4" cx="4" cy="4" r="2" fill="#009739"/>
<path id="Vector" fill-rule="evenodd" clip-rule="evenodd" d="M4 8C6.20914 8 8 6.20914 8 4C8 1.79086 6.20914 0 4 0C1.79086 0 0 1.79086 0 4C0 6.20914 1.79086 8 4 8ZM4.3 2.8C4.3 2.63431 4.16569 2.5 4 2.5C3.83431 2.5 3.7 2.63431 3.7 2.8L3.7 3.70001H2.8C2.63431 3.70001 2.5 3.83432 2.5 4.00001C2.5 4.1657 2.63431 4.30001 2.8 4.30001H3.7V5.2C3.7 5.36569 3.83431 5.5 4 5.5C4.16569 5.5 4.3 5.36569 4.3 5.2L4.3 4.30001H5.2C5.36569 4.30001 5.5 4.1657 5.5 4.00001C5.5 3.83432 5.36569 3.70001 5.2 3.70001H4.3V2.8Z" fill="#009739"/>
<path id="Line 106" d="M2 4H6" stroke="white" stroke-width="0.7" stroke-linecap="round"/>
</g>
</svg>
