<svg width="608" height="408" viewBox="0 0 608 408" fill="none" xmlns="http://www.w3.org/2000/svg">
<g opacity="0.4">
<path d="M492.748 122.515C488.241 120.056 486.192 122.105 484.539 120.056C482.886 118.007 489.06 112.666 476.753 107.339C476.753 107.339 475.934 95.8518 459.105 95.442C442.277 95.0323 446.855 106.873 442.291 109.798C437.727 112.723 436.54 108.159 432.032 111.027C427.525 113.896 429.56 119.646 425.872 120.466C422.184 121.285 417.253 116.778 412.745 119.646C408.238 122.515 408.224 124.973 406.175 124.973C404.126 124.973 400.028 123.334 397.556 124.973C395.083 126.612 392.229 128.675 392.229 128.675H496.026C496.026 128.675 497.27 124.917 492.748 122.515Z" fill="white" stroke="#263238" stroke-miterlimit="10"/>
<path d="M237.169 157.84C235.12 156.724 234.187 157.657 233.452 156.724C232.718 155.792 235.501 153.375 229.906 150.959C229.906 150.959 229.538 145.731 221.894 145.548C214.25 145.364 216.313 150.761 214.264 152.076C212.215 153.39 211.664 151.327 209.615 152.627C207.567 153.927 208.485 156.541 206.789 156.866C205.094 157.19 202.876 155.198 200.827 156.498C198.778 157.798 198.778 158.914 197.845 158.914C196.913 158.914 195.019 158.18 193.931 158.914C192.843 159.649 191.515 160.596 191.515 160.596H238.638C238.759 160.037 238.677 159.453 238.408 158.949C238.139 158.444 237.7 158.052 237.169 157.84Z" fill="white" stroke="#263238" stroke-miterlimit="10"/>
<path d="M275.347 39.1497C272.521 37.6237 271.25 38.8954 270.218 37.6237C269.187 36.352 273.044 33.0033 265.357 29.6828C265.357 29.6828 264.849 22.5049 254.35 22.2505C243.852 21.9962 246.664 29.4285 243.838 31.2088C241.012 32.9892 240.263 30.1914 237.437 31.9859C234.611 33.7804 235.911 37.3553 233.594 37.8781C231.276 38.4009 228.224 35.5749 225.413 37.3553C222.601 39.1356 222.587 40.6899 221.315 40.6899C220.043 40.6899 217.472 39.6584 215.931 40.6899C214.391 41.7214 212.597 42.993 212.597 42.993H277.396C277.575 42.2131 277.466 41.3947 277.09 40.6886C276.713 39.9824 276.095 39.436 275.347 39.1497Z" fill="white" stroke="#263238" stroke-miterlimit="10"/>
<path d="M93.2708 180.025H81.7408V191.64H93.2708V180.025Z" stroke="#706945" stroke-miterlimit="10"/>
<path d="M73.9694 187.047H69.2925V191.625H73.9694V187.047Z" stroke="#706945" stroke-miterlimit="10"/>
<path d="M542.739 253.357H499.05V161.203H501.975V151.651H399.633V161.203H403.179V298.248H376.333V4.2207H284.277V226.581H250.634V201.967H259.437V191.553H185.849V42.3711H190.611V34.5715H101.268V42.3711H107.683V191.808H37.0766V298.671H0" stroke="#706945" stroke-miterlimit="10"/>
<path d="M379.992 1H280.18V4.19334H379.992V1Z" stroke="#706945" stroke-miterlimit="10"/>
<path d="M126.914 51.0469H115.666V63.0855H126.914V51.0469Z" stroke="#706945" stroke-miterlimit="10"/>
<path d="M143.403 51.0469H132.156V63.0855H143.403V51.0469Z" stroke="#706945" stroke-miterlimit="10"/>
<path d="M159.893 51.0469H148.645V63.0855H159.893V51.0469Z" stroke="#706945" stroke-miterlimit="10"/>
<path d="M176.396 51.0469H165.149V63.0855H176.396V51.0469Z" stroke="#706945" stroke-miterlimit="10"/>
<path d="M126.914 70.1367H115.666V82.1753H126.914V70.1367Z" stroke="#706945" stroke-miterlimit="10"/>
<path d="M143.403 70.1367H132.156V82.1753H143.403V70.1367Z" stroke="#706945" stroke-miterlimit="10"/>
<path d="M159.893 70.1367H148.645V82.1753H159.893V70.1367Z" stroke="#706945" stroke-miterlimit="10"/>
<path d="M176.396 70.1367H165.149V82.1753H176.396V70.1367Z" stroke="#706945" stroke-miterlimit="10"/>
<path d="M126.914 89.2129H115.666V101.251H126.914V89.2129Z" stroke="#706945" stroke-miterlimit="10"/>
<path d="M143.403 89.2129H132.156V101.251H143.403V89.2129Z" stroke="#706945" stroke-miterlimit="10"/>
<path d="M159.893 89.2129H148.645V101.251H159.893V89.2129Z" stroke="#706945" stroke-miterlimit="10"/>
<path d="M176.396 89.2129H165.149V101.251H176.396V89.2129Z" stroke="#706945" stroke-miterlimit="10"/>
<path d="M126.914 108.287H115.666V120.326H126.914V108.287Z" stroke="#706945" stroke-miterlimit="10"/>
<path d="M143.403 108.287H132.156V120.326H143.403V108.287Z" stroke="#706945" stroke-miterlimit="10"/>
<path d="M159.893 108.287H148.645V120.326H159.893V108.287Z" stroke="#706945" stroke-miterlimit="10"/>
<path d="M176.396 108.287H165.149V120.326H176.396V108.287Z" stroke="#706945" stroke-miterlimit="10"/>
<path d="M126.914 127.377H115.666V139.416H126.914V127.377Z" stroke="#706945" stroke-miterlimit="10"/>
<path d="M143.403 127.377H132.156V139.416H143.403V127.377Z" stroke="#706945" stroke-miterlimit="10"/>
<path d="M159.893 127.377H148.645V139.416H159.893V127.377Z" stroke="#706945" stroke-miterlimit="10"/>
<path d="M176.396 127.377H165.149V139.416H176.396V127.377Z" stroke="#706945" stroke-miterlimit="10"/>
<path d="M126.914 146.451H115.666V158.49H126.914V146.451Z" stroke="#706945" stroke-miterlimit="10"/>
<path d="M143.403 146.451H132.156V158.49H143.403V146.451Z" stroke="#706945" stroke-miterlimit="10"/>
<path d="M159.893 146.451H148.645V158.49H159.893V146.451Z" stroke="#706945" stroke-miterlimit="10"/>
<path d="M176.396 146.451H165.149V158.49H176.396V146.451Z" stroke="#706945" stroke-miterlimit="10"/>
<path d="M126.914 165.541H115.666V177.58H126.914V165.541Z" stroke="#706945" stroke-miterlimit="10"/>
<path d="M143.403 165.541H132.156V177.58H143.403V165.541Z" stroke="#706945" stroke-miterlimit="10"/>
<path d="M159.893 165.541H148.645V177.58H159.893V165.541Z" stroke="#706945" stroke-miterlimit="10"/>
<path d="M176.396 165.541H165.149V177.58H176.396V165.541Z" stroke="#706945" stroke-miterlimit="10"/>
<path d="M126.914 184.617H115.666V196.656H126.914V184.617Z" stroke="#706945" stroke-miterlimit="10"/>
<path d="M143.403 184.617H132.156V196.656H143.403V184.617Z" stroke="#706945" stroke-miterlimit="10"/>
<path d="M159.893 184.617H148.645V196.656H159.893V184.617Z" stroke="#706945" stroke-miterlimit="10"/>
<path d="M176.396 184.617H165.149V196.656H176.396V184.617Z" stroke="#706945" stroke-miterlimit="10"/>
<path d="M126.914 202.066H115.666V214.105H126.914V202.066Z" stroke="#706945" stroke-miterlimit="10"/>
<path d="M143.403 202.066H132.156V214.105H143.403V202.066Z" stroke="#706945" stroke-miterlimit="10"/>
<path d="M159.893 202.066H148.645V214.105H159.893V202.066Z" stroke="#706945" stroke-miterlimit="10"/>
<path d="M176.396 202.066H165.149V214.105H176.396V202.066Z" stroke="#706945" stroke-miterlimit="10"/>
<path d="M126.914 221.156H115.666V233.195H126.914V221.156Z" stroke="#706945" stroke-miterlimit="10"/>
<path d="M143.403 221.156H132.156V233.195H143.403V221.156Z" stroke="#706945" stroke-miterlimit="10"/>
<path d="M159.893 221.156H148.645V233.195H159.893V221.156Z" stroke="#706945" stroke-miterlimit="10"/>
<path d="M176.396 221.156H165.149V233.195H176.396V221.156Z" stroke="#706945" stroke-miterlimit="10"/>
<path d="M126.914 240.232H115.666V252.271H126.914V240.232Z" stroke="#706945" stroke-miterlimit="10"/>
<path d="M143.403 240.232H132.156V252.271H143.403V240.232Z" stroke="#706945" stroke-miterlimit="10"/>
<path d="M159.893 240.232H148.645V252.271H159.893V240.232Z" stroke="#706945" stroke-miterlimit="10"/>
<path d="M176.396 240.232H165.149V252.271H176.396V240.232Z" stroke="#706945" stroke-miterlimit="10"/>
<path d="M126.914 259.307H115.666V271.345H126.914V259.307Z" stroke="#706945" stroke-miterlimit="10"/>
<path d="M143.403 259.307H132.156V271.345H143.403V259.307Z" stroke="#706945" stroke-miterlimit="10"/>
<path d="M159.893 259.307H148.645V271.345H159.893V259.307Z" stroke="#706945" stroke-miterlimit="10"/>
<path d="M176.396 259.307H165.149V271.345H176.396V259.307Z" stroke="#706945" stroke-miterlimit="10"/>
<path d="M126.914 278.396H115.666V290.435H126.914V278.396Z" stroke="#706945" stroke-miterlimit="10"/>
<path d="M143.403 278.396H132.156V290.435H143.403V278.396Z" stroke="#706945" stroke-miterlimit="10"/>
<path d="M159.893 278.396H148.645V290.435H159.893V278.396Z" stroke="#706945" stroke-miterlimit="10"/>
<path d="M176.396 278.396H165.149V290.435H176.396V278.396Z" stroke="#706945" stroke-miterlimit="10"/>
<path d="M126.914 297.471H115.666V309.509H126.914V297.471Z" stroke="#706945" stroke-miterlimit="10"/>
<path d="M143.403 297.471H132.156V309.509H143.403V297.471Z" stroke="#706945" stroke-miterlimit="10"/>
<path d="M159.893 297.471H148.645V309.509H159.893V297.471Z" stroke="#706945" stroke-miterlimit="10"/>
<path d="M176.396 297.471H165.149V309.509H176.396V297.471Z" stroke="#706945" stroke-miterlimit="10"/>
<path d="M126.914 316.561H115.666V328.599H126.914V316.561Z" stroke="#706945" stroke-miterlimit="10"/>
<path d="M143.403 316.561H132.156V328.599H143.403V316.561Z" stroke="#706945" stroke-miterlimit="10"/>
<path d="M159.893 316.561H148.645V328.599H159.893V316.561Z" stroke="#706945" stroke-miterlimit="10"/>
<path d="M176.396 316.561H165.149V328.599H176.396V316.561Z" stroke="#706945" stroke-miterlimit="10"/>
<path d="M126.914 335.637H115.666V347.675H126.914V335.637Z" stroke="#706945" stroke-miterlimit="10"/>
<path d="M143.403 335.637H132.156V347.675H143.403V335.637Z" stroke="#706945" stroke-miterlimit="10"/>
<path d="M159.893 335.637H148.645V347.675H159.893V335.637Z" stroke="#706945" stroke-miterlimit="10"/>
<path d="M176.396 335.637H165.149V347.675H176.396V335.637Z" stroke="#706945" stroke-miterlimit="10"/>
<path d="M191.331 202.066H180.084V214.105H191.331V202.066Z" stroke="#706945" stroke-miterlimit="10"/>
<path d="M207.821 202.066H196.574V214.105H207.821V202.066Z" stroke="#706945" stroke-miterlimit="10"/>
<path d="M224.31 202.066H213.063V214.105H224.31V202.066Z" stroke="#706945" stroke-miterlimit="10"/>
<path d="M240.8 202.066H229.553V214.105H240.8V202.066Z" stroke="#706945" stroke-miterlimit="10"/>
<path d="M191.331 221.156H180.084V233.195H191.331V221.156Z" stroke="#706945" stroke-miterlimit="10"/>
<path d="M207.821 221.156H196.574V233.195H207.821V221.156Z" stroke="#706945" stroke-miterlimit="10"/>
<path d="M224.31 221.156H213.063V233.195H224.31V221.156Z" stroke="#706945" stroke-miterlimit="10"/>
<path d="M240.8 221.156H229.553V233.195H240.8V221.156Z" stroke="#706945" stroke-miterlimit="10"/>
<path d="M191.331 240.232H180.084V252.271H191.331V240.232Z" stroke="#706945" stroke-miterlimit="10"/>
<path d="M207.821 240.232H196.574V252.271H207.821V240.232Z" stroke="#706945" stroke-miterlimit="10"/>
<path d="M224.31 240.232H213.063V252.271H224.31V240.232Z" stroke="#706945" stroke-miterlimit="10"/>
<path d="M240.8 240.232H229.553V252.271H240.8V240.232Z" stroke="#706945" stroke-miterlimit="10"/>
<path d="M191.331 259.307H180.084V271.345H191.331V259.307Z" stroke="#706945" stroke-miterlimit="10"/>
<path d="M207.821 259.307H196.574V271.345H207.821V259.307Z" stroke="#706945" stroke-miterlimit="10"/>
<path d="M224.31 259.307H213.063V271.345H224.31V259.307Z" stroke="#706945" stroke-miterlimit="10"/>
<path d="M240.8 259.307H229.553V271.345H240.8V259.307Z" stroke="#706945" stroke-miterlimit="10"/>
<path d="M191.331 278.396H180.084V290.435H191.331V278.396Z" stroke="#706945" stroke-miterlimit="10"/>
<path d="M207.821 278.396H196.574V290.435H207.821V278.396Z" stroke="#706945" stroke-miterlimit="10"/>
<path d="M224.31 278.396H213.063V290.435H224.31V278.396Z" stroke="#706945" stroke-miterlimit="10"/>
<path d="M240.8 278.396H229.553V290.435H240.8V278.396Z" stroke="#706945" stroke-miterlimit="10"/>
<path d="M191.331 297.471H180.084V309.509H191.331V297.471Z" stroke="#706945" stroke-miterlimit="10"/>
<path d="M207.821 297.471H196.574V309.509H207.821V297.471Z" stroke="#706945" stroke-miterlimit="10"/>
<path d="M224.31 297.471H213.063V309.509H224.31V297.471Z" stroke="#706945" stroke-miterlimit="10"/>
<path d="M240.8 297.471H229.553V309.509H240.8V297.471Z" stroke="#706945" stroke-miterlimit="10"/>
<path d="M191.331 316.561H180.084V328.599H191.331V316.561Z" stroke="#706945" stroke-miterlimit="10"/>
<path d="M207.821 316.561H196.574V328.599H207.821V316.561Z" stroke="#706945" stroke-miterlimit="10"/>
<path d="M224.31 316.561H213.063V328.599H224.31V316.561Z" stroke="#706945" stroke-miterlimit="10"/>
<path d="M240.8 316.561H229.553V328.599H240.8V316.561Z" stroke="#706945" stroke-miterlimit="10"/>
<path d="M191.331 335.637H180.084V347.675H191.331V335.637Z" stroke="#706945" stroke-miterlimit="10"/>
<path d="M207.821 335.637H196.574V347.675H207.821V335.637Z" stroke="#706945" stroke-miterlimit="10"/>
<path d="M224.31 335.637H213.063V347.675H224.31V335.637Z" stroke="#706945" stroke-miterlimit="10"/>
<path d="M240.8 335.637H229.553V347.675H240.8V335.637Z" stroke="#706945" stroke-miterlimit="10"/>
<path d="M61.6059 202.066H50.3586V214.105H61.6059V202.066Z" stroke="#706945" stroke-miterlimit="10"/>
<path d="M78.0953 202.066H66.848V214.105H78.0953V202.066Z" stroke="#706945" stroke-miterlimit="10"/>
<path d="M94.5848 202.066H83.3375V214.105H94.5848V202.066Z" stroke="#706945" stroke-miterlimit="10"/>
<path d="M111.074 202.066H99.827V214.105H111.074V202.066Z" stroke="#706945" stroke-miterlimit="10"/>
<path d="M61.6059 221.156H50.3586V233.195H61.6059V221.156Z" stroke="#706945" stroke-miterlimit="10"/>
<path d="M78.0953 221.156H66.848V233.195H78.0953V221.156Z" stroke="#706945" stroke-miterlimit="10"/>
<path d="M94.5848 221.156H83.3375V233.195H94.5848V221.156Z" stroke="#706945" stroke-miterlimit="10"/>
<path d="M111.074 221.156H99.827V233.195H111.074V221.156Z" stroke="#706945" stroke-miterlimit="10"/>
<path d="M61.6059 240.232H50.3586V252.271H61.6059V240.232Z" stroke="#706945" stroke-miterlimit="10"/>
<path d="M78.0953 240.232H66.848V252.271H78.0953V240.232Z" stroke="#706945" stroke-miterlimit="10"/>
<path d="M94.5848 240.232H83.3375V252.271H94.5848V240.232Z" stroke="#706945" stroke-miterlimit="10"/>
<path d="M111.074 240.232H99.827V252.271H111.074V240.232Z" stroke="#706945" stroke-miterlimit="10"/>
<path d="M61.6059 259.307H50.3586V271.345H61.6059V259.307Z" stroke="#706945" stroke-miterlimit="10"/>
<path d="M78.0953 259.307H66.848V271.345H78.0953V259.307Z" stroke="#706945" stroke-miterlimit="10"/>
<path d="M94.5848 259.307H83.3375V271.345H94.5848V259.307Z" stroke="#706945" stroke-miterlimit="10"/>
<path d="M111.074 259.307H99.827V271.345H111.074V259.307Z" stroke="#706945" stroke-miterlimit="10"/>
<path d="M61.6059 278.396H50.3586V290.435H61.6059V278.396Z" stroke="#706945" stroke-miterlimit="10"/>
<path d="M78.0953 278.396H66.848V290.435H78.0953V278.396Z" stroke="#706945" stroke-miterlimit="10"/>
<path d="M94.5848 278.396H83.3375V290.435H94.5848V278.396Z" stroke="#706945" stroke-miterlimit="10"/>
<path d="M111.074 278.396H99.827V290.435H111.074V278.396Z" stroke="#706945" stroke-miterlimit="10"/>
<path d="M61.6059 297.471H50.3586V309.509H61.6059V297.471Z" stroke="#706945" stroke-miterlimit="10"/>
<path d="M78.0953 297.471H66.848V309.509H78.0953V297.471Z" stroke="#706945" stroke-miterlimit="10"/>
<path d="M94.5848 297.471H83.3375V309.509H94.5848V297.471Z" stroke="#706945" stroke-miterlimit="10"/>
<path d="M111.074 297.471H99.827V309.509H111.074V297.471Z" stroke="#706945" stroke-miterlimit="10"/>
<path d="M61.6059 316.561H50.3586V328.599H61.6059V316.561Z" stroke="#706945" stroke-miterlimit="10"/>
<path d="M78.0953 316.561H66.848V328.599H78.0953V316.561Z" stroke="#706945" stroke-miterlimit="10"/>
<path d="M94.5848 316.561H83.3375V328.599H94.5848V316.561Z" stroke="#706945" stroke-miterlimit="10"/>
<path d="M111.074 316.561H99.827V328.599H111.074V316.561Z" stroke="#706945" stroke-miterlimit="10"/>
<path d="M61.6059 335.637H50.3586V347.675H61.6059V335.637Z" stroke="#706945" stroke-miterlimit="10"/>
<path d="M78.0953 335.637H66.848V347.675H78.0953V335.637Z" stroke="#706945" stroke-miterlimit="10"/>
<path d="M94.5848 335.637H83.3375V347.675H94.5848V335.637Z" stroke="#706945" stroke-miterlimit="10"/>
<path d="M111.074 335.637H99.827V347.675H111.074V335.637Z" stroke="#706945" stroke-miterlimit="10"/>
<path d="M429.955 164.666H418.708V176.705H429.955V164.666Z" stroke="#706945" stroke-miterlimit="10"/>
<path d="M446.445 164.666H435.198V176.705H446.445V164.666Z" stroke="#706945" stroke-miterlimit="10"/>
<path d="M462.934 164.666H451.687V176.705H462.934V164.666Z" stroke="#706945" stroke-miterlimit="10"/>
<path d="M479.424 164.666H468.176V176.705H479.424V164.666Z" stroke="#706945" stroke-miterlimit="10"/>
<path d="M429.955 183.754H418.708V195.792H429.955V183.754Z" stroke="#706945" stroke-miterlimit="10"/>
<path d="M446.445 183.754H435.198V195.792H446.445V183.754Z" stroke="#706945" stroke-miterlimit="10"/>
<path d="M462.934 183.754H451.687V195.792H462.934V183.754Z" stroke="#706945" stroke-miterlimit="10"/>
<path d="M479.424 183.754H468.176V195.792H479.424V183.754Z" stroke="#706945" stroke-miterlimit="10"/>
<path d="M429.955 202.83H418.708V214.869H429.955V202.83Z" stroke="#706945" stroke-miterlimit="10"/>
<path d="M446.445 202.83H435.198V214.869H446.445V202.83Z" stroke="#706945" stroke-miterlimit="10"/>
<path d="M462.934 202.83H451.687V214.869H462.934V202.83Z" stroke="#706945" stroke-miterlimit="10"/>
<path d="M479.424 202.83H468.176V214.869H479.424V202.83Z" stroke="#706945" stroke-miterlimit="10"/>
<path d="M429.955 221.904H418.708V233.943H429.955V221.904Z" stroke="#706945" stroke-miterlimit="10"/>
<path d="M446.445 221.904H435.198V233.943H446.445V221.904Z" stroke="#706945" stroke-miterlimit="10"/>
<path d="M462.934 221.904H451.687V233.943H462.934V221.904Z" stroke="#706945" stroke-miterlimit="10"/>
<path d="M479.424 221.904H468.176V233.943H479.424V221.904Z" stroke="#706945" stroke-miterlimit="10"/>
<path d="M429.955 240.994H418.708V253.033H429.955V240.994Z" stroke="#706945" stroke-miterlimit="10"/>
<path d="M446.445 240.994H435.198V253.033H446.445V240.994Z" stroke="#706945" stroke-miterlimit="10"/>
<path d="M462.934 240.994H451.687V253.033H462.934V240.994Z" stroke="#706945" stroke-miterlimit="10"/>
<path d="M479.424 240.994H468.176V253.033H479.424V240.994Z" stroke="#706945" stroke-miterlimit="10"/>
<path d="M429.955 260.07H418.708V272.109H429.955V260.07Z" stroke="#706945" stroke-miterlimit="10"/>
<path d="M446.445 260.07H435.198V272.109H446.445V260.07Z" stroke="#706945" stroke-miterlimit="10"/>
<path d="M462.934 260.07H451.687V272.109H462.934V260.07Z" stroke="#706945" stroke-miterlimit="10"/>
<path d="M479.424 260.07H468.176V272.109H479.424V260.07Z" stroke="#706945" stroke-miterlimit="10"/>
<path d="M429.955 279.158H418.708V291.197H429.955V279.158Z" stroke="#706945" stroke-miterlimit="10"/>
<path d="M446.445 279.158H435.198V291.197H446.445V279.158Z" stroke="#706945" stroke-miterlimit="10"/>
<path d="M462.934 279.158H451.687V291.197H462.934V279.158Z" stroke="#706945" stroke-miterlimit="10"/>
<path d="M479.424 279.158H468.176V291.197H479.424V279.158Z" stroke="#706945" stroke-miterlimit="10"/>
<path d="M429.955 298.234H418.708V310.273H429.955V298.234Z" stroke="#706945" stroke-miterlimit="10"/>
<path d="M446.445 298.234H435.198V310.273H446.445V298.234Z" stroke="#706945" stroke-miterlimit="10"/>
<path d="M462.934 298.234H451.687V310.273H462.934V298.234Z" stroke="#706945" stroke-miterlimit="10"/>
<path d="M479.424 298.234H468.176V310.273H479.424V298.234Z" stroke="#706945" stroke-miterlimit="10"/>
<path d="M292.953 11.1602V359.813" stroke="#706945" stroke-miterlimit="10"/>
<path d="M304.101 11.1602V359.813" stroke="#706945" stroke-miterlimit="10"/>
<path d="M315.25 11.1602V359.813" stroke="#706945" stroke-miterlimit="10"/>
<path d="M326.398 11.1602V359.813" stroke="#706945" stroke-miterlimit="10"/>
<path d="M337.561 11.1602V359.813" stroke="#706945" stroke-miterlimit="10"/>
<path d="M348.709 11.1602V359.813" stroke="#706945" stroke-miterlimit="10"/>
<path d="M359.857 11.1602V359.813" stroke="#706945" stroke-miterlimit="10"/>
<path d="M371.006 11.1602V359.813" stroke="#706945" stroke-miterlimit="10"/>
<path d="M257.84 353.736H57.9039V365.012H257.84V353.736Z" stroke="#706945" stroke-miterlimit="10"/>
<path d="M560.077 353.736H380.544V365.012H560.077V353.736Z" stroke="#706945" stroke-miterlimit="10"/>
<path d="M363.771 353.298C363.771 353.298 383.369 355.233 393.303 367.427C393.303 367.427 403.801 353.298 422.65 353.637C427.276 348.076 430.226 341.314 431.156 334.141C432.085 326.967 430.956 319.677 427.9 313.121C424.844 306.564 419.987 301.012 413.896 297.111C407.804 293.21 400.729 291.121 393.495 291.088C386.262 291.055 379.168 293.079 373.041 296.925C366.914 300.77 362.007 306.278 358.891 312.806C355.776 319.334 354.58 326.614 355.444 333.795C356.308 340.977 359.196 347.765 363.771 353.368V353.298Z" fill="#FFF6C9"/>
<path opacity="0.5" d="M363.771 353.298C363.771 353.298 383.369 355.233 393.303 367.427C393.303 367.427 403.801 353.298 422.65 353.637C427.276 348.076 430.226 341.314 431.156 334.141C432.085 326.967 430.956 319.677 427.9 313.121C424.844 306.564 419.987 301.012 413.896 297.111C407.804 293.21 400.729 291.121 393.495 291.088C386.262 291.055 379.168 293.079 373.041 296.925C366.914 300.77 362.007 306.278 358.891 312.806C355.776 319.334 354.58 326.614 355.444 333.795C356.308 340.977 359.196 347.765 363.771 353.368V353.298Z" fill="white"/>
<path d="M392.653 293.881L392.003 392.125H395.309L392.653 293.881Z" fill="#263238"/>
<path d="M393.656 363.683C393.656 363.683 400.269 351.772 412.18 348.141C412.18 348.141 399.605 351.108 393.317 361.366L393.656 363.683Z" fill="#263238"/>
<path d="M393.656 329.941C393.656 329.941 400.269 318.03 412.18 314.398C412.18 314.398 399.605 317.366 393.317 327.624L393.656 329.941Z" fill="#263238"/>
<path d="M393.656 346.812C393.656 346.812 400.269 334.901 412.18 331.27C412.18 331.27 399.605 334.237 393.317 344.495L393.656 346.812Z" fill="#263238"/>
<path d="M392.667 338.547C392.667 338.547 386.28 326.635 374.793 323.004C374.793 323.004 386.93 325.985 392.992 336.244L392.667 338.547Z" fill="#263238"/>
<path d="M392.667 355.078C392.667 355.078 386.28 343.167 374.793 339.535C374.793 339.535 386.93 342.517 392.992 352.761L392.667 355.078Z" fill="#263238"/>
<path d="M456.081 345.851C456.081 345.851 479.438 348.154 491.279 362.637C491.279 362.637 503.784 345.865 526.25 346.204C531.738 339.582 535.232 331.536 536.324 323.005C537.417 314.473 536.064 305.807 532.422 298.015C528.781 290.223 523 283.626 515.754 278.991C508.509 274.357 500.095 271.876 491.494 271.838C482.893 271.8 474.459 274.206 467.172 278.776C459.885 283.346 454.047 289.892 450.336 297.651C446.626 305.411 445.196 314.065 446.213 322.606C447.23 331.146 450.652 339.222 456.081 345.893V345.851Z" fill="#FFF6C9"/>
<path opacity="0.5" d="M456.081 345.851C456.081 345.851 479.438 348.154 491.279 362.637C491.279 362.637 503.784 345.865 526.25 346.204C531.738 339.582 535.232 331.536 536.324 323.005C537.417 314.473 536.064 305.807 532.422 298.015C528.781 290.223 523 283.626 515.754 278.991C508.509 274.357 500.095 271.876 491.494 271.838C482.893 271.8 474.459 274.206 467.172 278.776C459.885 283.346 454.047 289.892 450.336 297.651C446.626 305.411 445.196 314.065 446.213 322.606C447.23 331.146 450.652 339.222 456.081 345.893V345.851Z" fill="white"/>
<path d="M490.502 275.047L489.71 392.126H493.667L490.502 275.047Z" fill="#263238"/>
<path d="M491.688 358.228C491.688 358.228 499.573 344.027 513.759 339.689C513.759 339.689 498.782 343.25 491.293 355.458L491.688 358.228Z" fill="#263238"/>
<path d="M491.688 318.014C491.688 318.014 499.573 303.814 513.759 299.49C513.759 299.49 498.782 303.037 491.293 315.259L491.688 318.014Z" fill="#263238"/>
<path d="M491.688 338.122C491.688 338.122 499.573 323.992 513.759 319.584C513.759 319.584 498.782 323.145 491.293 335.367L491.688 338.122Z" fill="#263238"/>
<path d="M490.516 328.259C490.516 328.259 482.914 314.129 469.222 309.734C469.222 309.734 483.677 313.281 490.897 325.503L490.516 328.259Z" fill="#263238"/>
<path d="M490.516 347.969C490.516 347.969 482.914 333.84 469.222 329.445C469.222 329.445 483.677 332.992 490.897 345.214L490.516 347.969Z" fill="#263238"/>
<path d="M550.101 359.373C550.101 359.373 566.633 361.012 575.012 371.256C578.023 367.61 581.805 364.676 586.085 362.666C590.366 360.655 595.038 359.618 599.767 359.628C603.654 354.939 606.129 349.243 606.904 343.202C607.679 337.161 606.722 331.024 604.144 325.506C601.566 319.989 597.474 315.317 592.344 312.034C587.213 308.752 581.256 306.995 575.166 306.967C569.076 306.939 563.103 308.642 557.943 311.878C552.783 315.113 548.649 319.748 546.021 325.242C543.393 330.736 542.38 336.864 543.1 342.911C543.82 348.959 546.243 354.678 550.087 359.402L550.101 359.373Z" fill="#FFF6C9"/>
<path opacity="0.5" d="M550.101 359.373C550.101 359.373 566.633 361.012 575.012 371.256C578.023 367.61 581.805 364.676 586.085 362.666C590.366 360.655 595.038 359.618 599.767 359.628C603.654 354.939 606.129 349.243 606.904 343.202C607.679 337.161 606.722 331.024 604.144 325.506C601.566 319.989 597.474 315.317 592.344 312.034C587.213 308.752 581.256 306.995 575.166 306.967C569.076 306.939 563.103 308.642 557.943 311.878C552.783 315.113 548.649 319.748 546.021 325.242C543.393 330.736 542.38 336.864 543.1 342.911C543.82 348.959 546.243 354.678 550.087 359.402L550.101 359.373Z" fill="white"/>
<path d="M574.461 309.254L573.91 392.125H576.693L574.461 309.254Z" fill="#263238"/>
<path d="M575.309 368.134C575.309 368.134 580.876 358.088 590.851 355.021C590.851 355.021 580.254 357.522 574.955 366.184L575.309 368.134Z" fill="#263238"/>
<path d="M575.309 339.661C575.309 339.661 580.876 329.615 590.851 326.549C590.851 326.549 580.254 329.064 574.955 337.711L575.309 339.661Z" fill="#263238"/>
<path d="M575.309 353.906C575.309 353.906 580.876 343.86 590.851 340.779C590.851 340.779 580.254 343.294 574.955 351.942L575.309 353.906Z" fill="#263238"/>
<path d="M574.475 346.925C574.475 346.925 569.091 336.879 559.398 333.812C559.398 333.812 569.628 336.313 574.743 344.975L574.475 346.925Z" fill="#263238"/>
<path d="M574.475 360.87C574.475 360.87 569.091 350.824 559.398 347.758C559.398 347.758 569.628 350.273 574.743 358.92L574.475 360.87Z" fill="#263238"/>
<path d="M22.4946 353.298C22.4946 353.298 42.0926 355.233 52.0259 367.427C52.0259 367.427 62.5243 353.298 81.3735 353.637C85.9995 348.076 88.9493 341.314 89.8788 334.141C90.8083 326.967 89.6792 319.677 86.6232 313.121C83.5672 306.564 78.7103 301.012 72.6187 297.111C66.5272 293.21 59.4521 291.121 52.2186 291.088C44.9851 291.055 37.8913 293.079 31.7645 296.925C25.6376 300.77 20.7302 306.278 17.6145 312.806C14.4989 319.334 13.3033 326.614 14.1674 333.795C15.0314 340.977 17.9195 347.765 22.4946 353.368V353.298Z" fill="#FFF6C9"/>
<path opacity="0.5" d="M22.4946 353.298C22.4946 353.298 42.0926 355.233 52.0259 367.427C52.0259 367.427 62.5243 353.298 81.3735 353.637C85.9995 348.076 88.9493 341.314 89.8788 334.141C90.8083 326.967 89.6792 319.677 86.6232 313.121C83.5672 306.564 78.7103 301.012 72.6187 297.111C66.5272 293.21 59.4521 291.121 52.2186 291.088C44.9851 291.055 37.8913 293.079 31.7645 296.925C25.6376 300.77 20.7302 306.278 17.6145 312.806C14.4989 319.334 13.3033 326.614 14.1674 333.795C15.0314 340.977 17.9195 347.765 22.4946 353.368V353.298Z" fill="white"/>
<path d="M51.3759 293.881L50.7118 392.125H54.0182L51.3759 293.881Z" fill="#263238"/>
<path d="M52.365 363.683C52.365 363.683 58.9919 351.772 70.8891 348.141C70.8891 348.141 58.3278 351.108 52.04 361.366L52.365 363.683Z" fill="#263238"/>
<path d="M52.365 329.941C52.365 329.941 58.9919 318.03 70.8891 314.398C70.8891 314.398 58.3278 317.366 52.04 327.624L52.365 329.941Z" fill="#263238"/>
<path d="M52.365 346.812C52.365 346.812 58.9919 334.901 70.8891 331.27C70.8891 331.27 58.3278 334.237 52.04 344.495L52.365 346.812Z" fill="#263238"/>
<path d="M51.3901 338.547C51.3901 338.547 45.0034 326.635 33.5159 323.004C33.5159 323.004 45.6392 325.985 51.715 336.244L51.3901 338.547Z" fill="#263238"/>
<path d="M51.3901 355.078C51.3901 355.078 45.0034 343.167 33.5159 339.535C33.5159 339.535 45.6392 342.517 51.715 352.761L51.3901 355.078Z" fill="#263238"/>
<path d="M114.805 345.85C114.805 345.85 138.161 348.153 150.002 362.636C150.002 362.636 162.507 345.864 184.973 346.203C190.459 339.58 193.951 331.535 195.042 323.004C196.133 314.474 194.778 305.809 191.136 298.018C187.494 290.227 181.713 283.631 174.468 278.998C167.223 274.364 158.81 271.884 150.21 271.846C141.61 271.808 133.176 274.214 125.89 278.783C118.604 283.351 112.766 289.896 109.055 297.654C105.344 305.412 103.912 314.065 104.928 322.605C105.943 331.145 109.364 339.221 114.79 345.893L114.805 345.85Z" fill="#FFF6C9"/>
<path opacity="0.5" d="M114.805 345.85C114.805 345.85 138.161 348.153 150.002 362.636C150.002 362.636 162.507 345.864 184.973 346.203C190.459 339.58 193.951 331.535 195.042 323.004C196.133 314.474 194.778 305.809 191.136 298.018C187.494 290.227 181.713 283.631 174.468 278.998C167.223 274.364 158.81 271.884 150.21 271.846C141.61 271.808 133.176 274.214 125.89 278.783C118.604 283.351 112.766 289.896 109.055 297.654C105.344 305.412 103.912 314.065 104.928 322.605C105.943 331.145 109.364 339.221 114.79 345.893L114.805 345.85Z" fill="white"/>
<path d="M149.225 275.047L148.433 392.126H152.376L149.225 275.047Z" fill="#263238"/>
<path d="M150.412 358.228C150.412 358.228 158.296 344.027 172.482 339.689C172.482 339.689 157.505 343.25 150.016 355.458L150.412 358.228Z" fill="#263238"/>
<path d="M150.412 318.014C150.412 318.014 158.296 303.814 172.482 299.49C172.482 299.49 157.505 303.037 150.016 315.259L150.412 318.014Z" fill="#263238"/>
<path d="M150.412 338.122C150.412 338.122 158.296 323.992 172.482 319.584C172.482 319.584 157.505 323.145 150.016 335.367L150.412 338.122Z" fill="#263238"/>
<path d="M149.239 328.259C149.239 328.259 141.637 314.129 127.931 309.734C127.931 309.734 142.386 313.281 149.62 325.503L149.239 328.259Z" fill="#263238"/>
<path d="M149.239 347.969C149.239 347.969 141.637 333.84 127.931 329.445C127.931 329.445 142.386 332.992 149.62 345.214L149.239 347.969Z" fill="#263238"/>
<path d="M208.824 359.373C208.824 359.373 225.356 361.012 233.735 371.256C236.745 367.609 240.527 364.674 244.807 362.663C249.088 360.652 253.761 359.616 258.49 359.628C262.377 354.939 264.852 349.243 265.627 343.202C266.402 337.161 265.445 331.024 262.867 325.506C260.289 319.989 256.197 315.317 251.067 312.034C245.937 308.752 239.98 306.995 233.889 306.967C227.799 306.939 221.826 308.642 216.666 311.878C211.507 315.113 207.372 319.748 204.744 325.242C202.116 330.736 201.103 336.864 201.823 342.911C202.543 348.959 204.966 354.678 208.81 359.402L208.824 359.373Z" fill="#FFF6C9"/>
<path opacity="0.5" d="M208.824 359.373C208.824 359.373 225.356 361.012 233.735 371.256C236.745 367.609 240.527 364.674 244.807 362.663C249.088 360.652 253.761 359.616 258.49 359.628C262.377 354.939 264.852 349.243 265.627 343.202C266.402 337.161 265.445 331.024 262.867 325.506C260.289 319.989 256.197 315.317 251.067 312.034C245.937 308.752 239.98 306.995 233.889 306.967C227.799 306.939 221.826 308.642 216.666 311.878C211.507 315.113 207.372 319.748 204.744 325.242C202.116 330.736 201.103 336.864 201.823 342.911C202.543 348.959 204.966 354.678 208.81 359.402L208.824 359.373Z" fill="white"/>
<path d="M233.184 309.254L232.619 392.125H235.416L233.184 309.254Z" fill="#263238"/>
<path d="M234.018 368.134C234.018 368.134 239.599 358.088 249.645 355.021C249.645 355.021 239.048 357.522 233.749 366.184L234.018 368.134Z" fill="#263238"/>
<path d="M234.018 339.661C234.018 339.661 239.599 329.615 249.645 326.549C249.645 326.549 239.048 329.064 233.749 337.711L234.018 339.661Z" fill="#263238"/>
<path d="M234.018 353.906C234.018 353.906 239.599 343.86 249.645 340.779C249.645 340.779 239.048 343.294 233.749 351.942L234.018 353.906Z" fill="#263238"/>
<path d="M233.198 346.925C233.198 346.925 227.815 336.879 218.122 333.812C218.122 333.812 228.352 336.313 233.467 344.975L233.198 346.925Z" fill="#263238"/>
<path d="M233.198 360.87C233.198 360.87 227.815 350.824 218.122 347.758C218.122 347.758 228.352 350.273 233.467 358.92L233.198 360.87Z" fill="#263238"/>
<path d="M429.332 391.109C449.669 386.365 462.309 366.034 457.566 345.697C452.822 325.36 432.49 312.72 412.154 317.463C391.817 322.207 379.176 342.539 383.92 362.876C388.664 383.212 408.995 395.853 429.332 391.109Z" fill="#263238" stroke="#263238" stroke-miterlimit="10"/>
<path d="M182.662 381.028C197.428 366.261 197.428 342.321 182.662 327.554C167.896 312.788 143.955 312.788 129.189 327.554C114.422 342.321 114.422 366.261 129.189 381.028C143.955 395.794 167.896 395.794 182.662 381.028Z" fill="#263238" stroke="#263238" stroke-miterlimit="10"/>
<path d="M395.238 282.635C395.238 282.635 385.206 276.361 339.398 261.299C293.589 246.236 264.086 241.206 218.913 242.478C173.74 243.75 112.855 260.677 101.565 265.086C90.2752 269.494 85.245 270.737 87.7601 273.86C90.2752 276.983 104.066 288.301 102.187 293.317C100.307 298.333 69.5892 325.985 67.6676 330.323C65.7459 334.661 73.9553 349.78 75.1987 353.552C76.4422 357.325 83.3658 358.568 89.0035 359.204C94.6413 359.84 496.281 359.204 496.281 359.204C496.281 359.204 501.933 352.309 500.675 343.52C499.417 334.731 498.075 323.145 492.409 315.727C487.831 309.707 483.098 303.363 471.214 302.106C463.683 301.3 397.132 283.271 395.238 282.635Z" fill="#FFD600"/>
<mask id="mask0_876_16462" style="mask-type:luminance" maskUnits="userSpaceOnUse" x="67" y="242" width="434" height="118">
<path d="M395.238 282.635C395.238 282.635 385.206 276.361 339.398 261.299C293.589 246.236 264.086 241.206 218.913 242.478C173.74 243.75 112.855 260.677 101.565 265.086C90.2752 269.494 85.245 270.737 87.7601 273.86C90.2752 276.983 104.066 288.301 102.187 293.317C100.307 298.333 69.5892 325.985 67.6676 330.323C65.7459 334.661 73.9553 349.78 75.1987 353.552C76.4422 357.325 83.3658 358.568 89.0035 359.204C94.6413 359.84 496.281 359.204 496.281 359.204C496.281 359.204 501.933 352.309 500.675 343.52C499.417 334.731 498.075 323.145 492.409 315.727C487.831 309.707 483.098 303.363 471.214 302.106C463.683 301.3 397.132 283.271 395.238 282.635Z" fill="white"/>
</mask>
<g mask="url(#mask0_876_16462)">
<path d="M395.238 282.635C395.238 282.635 385.206 276.361 339.398 261.299C293.589 246.236 264.086 241.206 218.913 242.478C173.74 243.75 112.855 260.677 101.565 265.086C90.2752 269.494 85.245 270.737 87.7601 273.86C90.2752 276.983 104.066 288.301 102.187 293.317C100.307 298.333 69.5892 325.985 67.6676 330.323C65.7459 334.661 73.9553 349.78 75.1987 353.552C76.4422 357.325 83.3658 358.568 89.0035 359.204C94.6413 359.84 496.281 359.204 496.281 359.204C496.281 359.204 501.933 352.309 500.675 343.52C499.417 334.731 498.075 323.145 492.409 315.727C487.831 309.707 483.098 303.363 471.214 302.106C463.683 301.3 397.132 283.271 395.238 282.635Z" fill="#FFD600"/>
<mask id="mask1_876_16462" style="mask-type:luminance" maskUnits="userSpaceOnUse" x="67" y="242" width="434" height="118">
<path d="M395.238 282.635C395.238 282.635 385.206 276.361 339.398 261.299C293.589 246.236 264.086 241.206 218.913 242.478C173.74 243.75 112.855 260.677 101.565 265.086C90.2752 269.494 85.245 270.737 87.7601 273.86C90.2752 276.983 104.066 288.301 102.187 293.317C100.307 298.333 69.5892 325.985 67.6676 330.323C65.7459 334.661 73.9553 349.78 75.1987 353.552C76.4422 357.325 83.3658 358.568 89.0035 359.204C94.6413 359.84 496.281 359.204 496.281 359.204C496.281 359.204 501.933 352.309 500.675 343.52C499.417 334.731 498.075 323.145 492.409 315.727C487.831 309.707 483.098 303.363 471.214 302.106C463.683 301.3 397.132 283.271 395.238 282.635Z" fill="white"/>
</mask>
<g mask="url(#mask1_876_16462)">
<path opacity="0.15" d="M395.238 282.635C395.238 282.635 385.206 276.361 339.398 261.299C293.589 246.236 264.086 241.206 218.913 242.478C173.74 243.75 112.855 260.677 101.565 265.086C90.2752 269.494 85.245 270.737 87.7601 273.86C90.2752 276.983 104.066 288.301 102.187 293.317C100.307 298.333 69.5892 325.985 67.6676 330.323C65.7459 334.661 73.9553 349.78 75.1987 353.552C76.4422 357.325 83.3658 358.568 89.0035 359.204C94.6413 359.84 496.281 359.204 496.281 359.204C496.281 359.204 501.933 352.309 500.675 343.52C499.417 334.731 498.075 323.145 492.409 315.727C487.831 309.707 483.098 303.363 471.214 302.106C463.683 301.3 397.132 283.271 395.238 282.635Z" fill="black"/>
</g>
</g>
<path d="M395.238 282.635C395.238 282.635 385.206 276.361 339.398 261.299C293.589 246.236 264.086 241.206 218.913 242.478C173.74 243.75 112.855 260.677 101.565 265.086C90.2752 269.494 85.245 270.737 87.7601 273.86C90.2752 276.983 104.066 288.301 102.187 293.317C100.307 298.333 69.5892 325.985 67.6676 330.323C65.7459 334.661 73.9553 349.78 75.1987 353.552C76.4422 357.325 83.3658 358.568 89.0035 359.204C94.6413 359.84 496.281 359.204 496.281 359.204C496.281 359.204 501.933 352.309 500.675 343.52C499.417 334.731 498.075 323.145 492.409 315.727C487.831 309.707 483.097 303.363 471.214 302.106C463.683 301.3 397.132 283.271 395.238 282.635Z" stroke="#263238" stroke-miterlimit="10"/>
<path d="M496.281 326.564H472.43V332.838H496.281V326.564Z" fill="#263238" stroke="#263238" stroke-miterlimit="10"/>
<path d="M460.984 315.713H464.785C467.217 315.708 469.593 316.432 471.609 317.793C473.624 319.153 475.184 321.086 476.089 323.343L479.918 332.838H467.484L460.984 315.713Z" fill="white" stroke="#263238" stroke-miterlimit="10"/>
<path d="M495.984 322.127C495.843 322.523 495.715 322.918 495.602 323.342L493.045 332.837H499.008C498.348 329.178 497.336 325.591 495.984 322.127Z" fill="white" stroke="#263238" stroke-miterlimit="10"/>
<path d="M395.238 282.634C395.238 282.634 385.206 276.361 339.398 261.298C328.927 257.865 319.333 254.954 310.191 252.51H277.891L270.995 254.403L363.87 282.663L395.238 282.634Z" fill="#263238" stroke="#263238" stroke-miterlimit="10"/>
<path d="M57.0137 272.574V314.964C57.0137 314.964 82.8147 293.769 79.6214 287.735C76.428 281.702 57.0137 272.574 57.0137 272.574Z" fill="#8F8F8F" stroke="#263238" stroke-miterlimit="10"/>
<path d="M363.87 282.635C363.87 282.635 353.824 276.361 308.015 261.299C262.206 246.236 232.718 241.206 187.531 242.478C142.343 243.75 81.4724 260.677 70.2533 265.086C59.0343 269.494 53.9334 270.737 56.4485 273.86C58.9636 276.983 72.7684 288.301 70.875 293.317C68.9816 298.333 38.1787 325.985 36.2994 330.323C34.4202 334.661 42.5731 349.78 43.8306 353.552C45.0882 357.325 51.9835 358.568 57.6354 359.204C63.2873 359.84 464.898 359.204 464.898 359.204C464.898 359.204 470.55 352.309 469.293 343.52C468.035 334.731 466.636 323.159 460.984 315.713C456.406 309.693 451.659 303.349 439.79 302.091C432.315 301.3 365.75 283.271 363.87 282.635Z" fill="#FFD600"/>
<mask id="mask2_876_16462" style="mask-type:luminance" maskUnits="userSpaceOnUse" x="36" y="242" width="434" height="118">
<path d="M363.87 282.635C363.87 282.635 353.824 276.361 308.015 261.299C262.206 246.236 232.718 241.206 187.531 242.478C142.344 243.75 81.4724 260.677 70.2533 265.086C59.0343 269.494 53.9334 270.737 56.4485 273.86C58.9636 276.983 72.7684 288.301 70.875 293.317C68.9816 298.333 38.1787 325.985 36.2994 330.323C34.4202 334.661 42.5731 349.78 43.8306 353.552C45.0882 357.325 51.9835 358.568 57.6354 359.204C63.2873 359.84 464.898 359.204 464.898 359.204C464.898 359.204 470.55 352.309 469.293 343.52C468.035 334.731 466.636 323.159 460.984 315.713C456.406 309.693 451.659 303.349 439.79 302.091C432.315 301.3 365.75 283.271 363.87 282.635Z" fill="white"/>
</mask>
<g mask="url(#mask2_876_16462)">
<path opacity="0.15" d="M460.984 315.712C456.406 309.692 451.659 303.348 439.79 302.091C437.812 301.879 431.693 300.466 423.738 298.488C385.814 298.106 364.69 313.437 308.029 318.637C234.244 325.391 183.193 306.951 121.7 299.561C96.0543 296.495 75.3542 300.268 59.9103 305.694C50.2314 315.472 37.4722 327.553 36.2853 330.322C34.406 334.716 42.5589 349.779 43.8165 353.551C45.074 357.324 51.9694 358.567 57.6213 359.203C63.2732 359.839 464.884 359.203 464.884 359.203C464.884 359.203 470.536 352.308 469.279 343.519C468.021 334.73 466.636 323.158 460.984 315.712Z" fill="black"/>
</g>
<path d="M363.87 282.635C363.87 282.635 353.824 276.361 308.015 261.299C262.206 246.236 232.718 241.206 187.531 242.478C142.344 243.75 81.4724 260.677 70.2533 265.086C59.0343 269.494 53.9334 270.737 56.4485 273.86C58.9636 276.983 72.7684 288.301 70.875 293.317C68.9816 298.333 38.1787 325.985 36.2994 330.323C34.4202 334.661 42.5731 349.78 43.8306 353.552C45.0882 357.325 51.9835 358.568 57.6354 359.204C63.2873 359.84 464.898 359.204 464.898 359.204C464.898 359.204 470.55 352.309 469.293 343.52C468.035 334.731 466.636 323.159 460.984 315.713C456.406 309.693 451.659 303.349 439.79 302.091C432.315 301.3 365.75 283.271 363.87 282.635Z" stroke="#263238" stroke-miterlimit="10"/>
<path d="M126.546 259.489L151.655 286.011H336.218V279.992C336.218 279.992 298.393 265.141 258.505 257.384C218.616 249.627 208.655 250.319 190.682 250.658C172.708 250.997 126.546 259.489 126.546 259.489Z" fill="#8F8F8F"/>
<mask id="mask3_876_16462" style="mask-type:luminance" maskUnits="userSpaceOnUse" x="126" y="250" width="211" height="37">
<path d="M126.546 259.489L151.655 286.011H336.218V279.992C336.218 279.992 298.393 265.141 258.505 257.384C218.616 249.627 208.655 250.319 190.682 250.658C172.708 250.997 126.546 259.489 126.546 259.489Z" fill="white"/>
</mask>
<g mask="url(#mask3_876_16462)">
<path d="M216.539 274.409C193.046 269.045 168.469 271.073 146.173 280.217L151.655 286.01H336.218V279.991C336.218 279.991 330.1 277.589 320.181 274.212C299.424 282.181 258.25 283.594 216.539 274.409Z" fill="#263238" stroke="#263238" stroke-miterlimit="10"/>
</g>
<path d="M126.546 259.489L151.655 286.011H336.218V279.992C336.218 279.992 298.393 265.141 258.504 257.384C218.616 249.627 208.655 250.319 190.682 250.658C172.708 250.997 126.546 259.489 126.546 259.489Z" stroke="#263238" stroke-width="4" stroke-miterlimit="10"/>
<path d="M209.997 289.545V347.18" stroke="#263238" stroke-miterlimit="10"/>
<path d="M121.76 391.148C142.102 386.426 154.764 366.107 150.042 345.766C145.319 325.424 125.001 312.762 104.659 317.484C84.3174 322.207 71.6556 342.525 76.378 362.867C81.1004 383.209 101.419 395.87 121.76 391.148Z" fill="#263238" stroke="#263238" stroke-miterlimit="10"/>
<path d="M113.25 327.002C107.852 327.002 102.575 328.603 98.0873 331.603C93.5995 334.603 90.1024 338.867 88.0385 343.855C85.9747 348.843 85.4368 354.331 86.493 359.625C87.5492 364.919 90.1521 369.781 93.9721 373.595C97.7922 377.409 102.658 380.004 107.953 381.052C113.249 382.1 118.736 381.554 123.721 379.482C128.706 377.41 132.964 373.907 135.957 369.414C138.95 364.922 140.543 359.642 140.535 354.244C140.52 347.016 137.639 340.089 132.524 334.983C127.409 329.876 120.478 327.006 113.25 327.002ZM131.619 348.818L115.723 351.8L120.23 336.469C122.934 337.535 125.361 339.2 127.329 341.339C129.296 343.478 130.753 346.035 131.591 348.818H131.619ZM114.663 352.916V355.657H111.936V352.916H114.663ZM107.839 335.96L110.82 351.856L95.475 347.335C96.5271 344.635 98.1773 342.21 100.302 340.24C102.426 338.269 104.969 336.806 107.74 335.96H107.839ZM94.9663 359.755L110.862 356.773L106.327 372.104C103.61 371.052 101.17 369.391 99.1941 367.251C97.2177 365.111 95.7571 362.546 94.9239 359.755H94.9663ZM118.761 372.613L115.779 356.731L131.082 361.309C130.011 364.006 128.342 366.425 126.2 368.383C124.058 370.341 121.5 371.787 118.718 372.613H118.761Z" fill="white" stroke="#263238" stroke-miterlimit="10"/>
<path d="M121.714 354.245C121.714 352.569 121.217 350.93 120.285 349.535C119.354 348.141 118.03 347.055 116.48 346.413C114.931 345.771 113.227 345.603 111.582 345.93C109.938 346.258 108.427 347.065 107.241 348.251C106.056 349.436 105.248 350.947 104.921 352.592C104.594 354.236 104.762 355.941 105.404 357.49C106.045 359.039 107.132 360.363 108.526 361.295C109.92 362.226 111.559 362.723 113.236 362.723C115.485 362.723 117.641 361.83 119.231 360.24C120.821 358.65 121.714 356.494 121.714 354.245Z" fill="white" stroke="#263238" stroke-miterlimit="10"/>
<path d="M406.069 381.028C420.835 366.261 420.835 342.321 406.069 327.554C391.303 312.788 367.362 312.788 352.596 327.554C337.829 342.321 337.829 366.261 352.596 381.028C367.362 395.794 391.303 395.794 406.069 381.028Z" fill="#263238" stroke="#263238" stroke-miterlimit="10"/>
<path d="M379.328 327.002C373.93 327.002 368.653 328.603 364.165 331.603C359.678 334.603 356.18 338.867 354.117 343.855C352.053 348.843 351.515 354.331 352.571 359.625C353.627 364.919 356.23 369.781 360.05 373.595C363.87 377.409 368.736 380.004 374.031 381.052C379.327 382.1 384.814 381.554 389.799 379.482C394.784 377.41 399.042 373.907 402.035 369.414C405.028 364.922 406.621 359.642 406.613 354.244C406.598 347.016 403.717 340.089 398.602 334.983C393.488 329.876 386.556 327.006 379.328 327.002ZM397.697 348.818L381.815 351.8L386.323 336.469C389.023 337.536 391.445 339.202 393.408 341.341C395.371 343.48 396.823 346.037 397.655 348.818H397.697ZM380.741 352.916V355.657H378V352.916H380.741ZM373.903 335.96L376.884 351.856L361.553 347.335C362.608 344.63 364.264 342.2 366.396 340.229C368.528 338.259 371.081 336.799 373.86 335.96H373.903ZM361.044 359.755L376.94 356.773L372.419 372.104C369.7 371.052 367.258 369.393 365.28 367.252C363.301 365.112 361.838 362.547 361.002 359.755H361.044ZM384.839 372.613L381.858 356.731L397.146 361.309C396.078 364.006 394.412 366.424 392.272 368.382C390.133 370.341 387.577 371.787 384.797 372.613H384.839Z" fill="white" stroke="#263238" stroke-miterlimit="10"/>
<path d="M387.792 354.245C387.792 352.569 387.295 350.93 386.363 349.535C385.432 348.141 384.108 347.055 382.559 346.413C381.009 345.771 379.305 345.603 377.66 345.93C376.016 346.258 374.505 347.065 373.319 348.251C372.134 349.436 371.326 350.947 370.999 352.592C370.672 354.236 370.84 355.941 371.482 357.49C372.123 359.039 373.21 360.363 374.604 361.295C375.998 362.226 377.637 362.723 379.314 362.723C381.563 362.723 383.719 361.83 385.309 360.24C386.899 358.65 387.792 356.494 387.792 354.245Z" fill="white" stroke="#263238" stroke-miterlimit="10"/>
<path d="M460.984 315.712C460.984 315.712 432.838 314.299 431.58 315.712C430.323 317.125 440.991 328.429 444.763 330.958C447.745 332.95 461.79 332.569 467.47 332.371C466.325 326.295 464.474 320.234 460.984 315.712Z" fill="white" stroke="#263238" stroke-miterlimit="10"/>
<path d="M214.617 250.843C212.766 250.716 211.028 250.631 209.333 250.574L204.599 285.899H217.147L214.617 250.843Z" fill="#263238" stroke="#263238" stroke-miterlimit="10"/>
<path d="M261.33 380.949C259.085 382.393 256.722 383.646 254.266 384.693C251.242 385.852 249.235 386.558 249.815 388.437C250.394 390.317 253.686 391.885 257.869 392.747C262.051 393.609 269.512 391.744 271.532 391.164C273.553 390.585 273.835 387.279 272.394 385.414C270.953 383.548 263.775 379.945 261.33 380.949Z" fill="#263238" stroke="#263238" stroke-linecap="round" stroke-linejoin="round"/>
<path d="M262.63 391.744C259.169 391.744 253.418 390.444 253.418 389.158C253.418 387.873 254.831 386.855 253.135 386.417C251.44 385.979 250.309 388.339 250.027 388.89C250.959 390.557 254.054 391.956 257.883 392.747C262.122 393.609 269.526 391.744 271.546 391.165C271.909 391.041 272.236 390.832 272.5 390.553C272.763 390.275 272.955 389.937 273.058 389.568C269.714 390.822 266.197 391.556 262.63 391.744Z" fill="white" stroke="#263238" stroke-linecap="round" stroke-linejoin="round"/>
<path d="M279.021 288.598L279.883 291.424C279.346 291.855 278.913 292.402 278.615 293.023C278.316 293.644 278.161 294.324 278.159 295.013C278.478 296.599 279.343 298.024 280.604 299.04" stroke="#263238" stroke-linecap="round" stroke-linejoin="round"/>
<path d="M270.232 282.988C269.358 285.336 268.641 287.738 268.084 290.18V294.066C268.084 294.787 265.259 310.033 264.623 319.387C263.987 328.741 263.619 339.663 262.899 342.121C262.178 344.58 263.04 345.852 263.181 349.314C263.323 352.775 263.478 370.169 263.478 370.169C263.478 370.169 262.758 374.775 262.616 375.92C262.475 377.064 261.034 377.502 260.596 378.223C260.124 379.389 259.742 380.589 259.451 381.812C261.689 382.42 263.723 383.615 265.343 385.274C267.364 387.718 272.818 390.742 273.539 390.587C274.259 390.431 274.697 388.439 275.842 385.698C276.986 382.957 276.859 381.529 277.424 380.385C277.989 379.24 278.837 377.361 280.165 368.728C281.494 360.095 282.61 347.293 283.331 345.569C284.051 343.845 287.781 337.374 287.781 337.374C291.032 331.109 293.823 324.615 296.132 317.945C298.241 311.759 299.829 305.406 300.88 298.955C301.551 294.521 301.981 290.054 302.166 285.574V284.161C302.166 284.161 296.853 286.167 287.358 285.164C277.862 284.161 270.232 282.988 270.232 282.988Z" fill="white" stroke="#263238" stroke-linecap="round" stroke-linejoin="round"/>
<path d="M290.099 291.338C290.099 291.338 283.627 294.786 282.624 296.509C281.621 298.233 280.321 305.581 277.438 314.638C274.556 323.695 271.97 330.605 269.526 338.235C267.977 342.603 266.966 347.144 266.516 351.757C265.64 357.409 263.69 372.33 263.69 372.33" stroke="#263238" stroke-linecap="round" stroke-linejoin="round"/>
<path d="M273.058 388.001C273.058 388.001 276.223 386.856 276.223 380.385C276.223 373.913 275.065 369.307 276.223 363.118C277.382 356.929 280.25 346.855 281.974 343.845C283.698 340.835 285.718 336.936 285.718 336.936" stroke="#263238" stroke-linecap="round" stroke-linejoin="round"/>
<path d="M284.065 334.773C284.065 334.773 289.095 338.235 290.099 336.935C291.65 334.179 292.95 331.29 293.984 328.302C295.284 324.995 295.85 323.413 295.85 323.413C295.85 323.413 297.263 323.272 297.432 322C297.602 320.728 297.87 318.255 297.87 318.255C296.321 318.209 294.779 318.02 293.264 317.69C290.537 317.111 289.519 317.252 288.954 318.552C288.5 319.431 288.113 320.343 287.796 321.279C286.934 323.582 283.557 331.354 283.486 332.498C283.415 333.643 283.203 333.911 284.065 334.773Z" fill="white" stroke="#263238" stroke-linecap="round" stroke-linejoin="round"/>
<path d="M295.85 323.413C293.872 323.299 291.904 323.058 289.957 322.693C288.375 322.269 289.237 320.248 289.237 320.248" fill="#FFD600"/>
<path d="M295.85 323.413C293.872 323.299 291.904 323.058 289.957 322.693C288.375 322.269 289.237 320.248 289.237 320.248" stroke="#263238" stroke-linecap="round" stroke-linejoin="round"/>
<path d="M293.843 317.662C293.843 317.662 297.588 305.581 298.082 303.122L298.661 300.678" stroke="#263238" stroke-linecap="round" stroke-linejoin="round"/>
<path d="M294.988 288.018C294.988 288.018 293.984 293.062 294.988 295.789C296.142 298.153 297.878 300.185 300.032 301.695" stroke="#263238" stroke-linecap="round" stroke-linejoin="round"/>
<path d="M274.132 290.18C274.132 290.18 281.621 292.342 286.072 290.759" stroke="#263238" stroke-linecap="round" stroke-linejoin="round"/>
<path d="M287.796 233.645C287.796 233.645 278.018 236.09 275.079 236.669C272.14 237.248 270.628 237.248 270.19 238.534C267.049 244.411 263.389 249.996 259.253 255.221C255.947 258.824 255.664 262.286 256.668 264.137C257.671 265.988 258.829 266.878 263.139 265.72C265.916 264.879 268.377 263.225 270.204 260.972C270.204 260.972 271.221 271.767 269.78 276.077C268.339 280.387 267.76 283.848 268.763 284.555C273.129 286.959 278.022 288.246 283.006 288.299C290.918 288.582 299.961 287.861 301.374 286.42C301.862 286.027 302.247 285.519 302.493 284.943C302.739 284.366 302.84 283.738 302.787 283.114C302.787 282.11 302.222 275.356 303.946 270.029C305.67 264.702 310.559 251.039 310.7 245.853C310.841 240.668 308.835 239.961 304.949 238.379C301.063 236.796 294.875 234.069 293.447 233.772C291.568 233.607 289.68 233.564 287.796 233.645Z" fill="#263238" stroke="#263238" stroke-linecap="round" stroke-linejoin="round"/>
<path d="M285.775 231.059C284.595 231.817 283.489 232.683 282.469 233.645C282.313 234.083 277.283 242.123 277.862 242.123C278.442 242.123 284.772 238.958 284.772 238.958C284.772 238.958 287.923 234.21 287.598 232.331C287.586 232.117 287.525 231.909 287.421 231.722C287.316 231.535 287.171 231.375 286.995 231.252C286.82 231.13 286.619 231.049 286.407 231.015C286.196 230.982 285.98 230.997 285.775 231.059Z" fill="white" stroke="#263238" stroke-linecap="round" stroke-linejoin="round"/>
<path d="M284.56 229.464C284.71 232.646 284.468 235.835 283.839 238.959C282.836 242.844 282.115 245.43 283.557 245.868C284.998 246.306 289.746 239.241 291.031 237.235C291.79 236.08 292.371 234.818 292.755 233.491L293.773 222.271C293.773 222.271 288.008 228.489 284.56 229.464Z" fill="white" stroke="#263238" stroke-linecap="round" stroke-linejoin="round"/>
<path d="M279.388 202.701C279.388 202.701 277.975 214.938 277.975 219.544C277.975 224.15 280.999 230.043 282.426 230.608C283.853 231.173 287.471 231.766 288.912 230.763C290.353 229.76 294.366 223.571 294.366 223.571C295.727 219.246 296.738 214.819 297.39 210.331C297.828 205.443 296.528 203.139 292.063 201.698C287.598 200.257 281.677 200.229 279.388 202.701Z" fill="white" stroke="#263238" stroke-linecap="round" stroke-linejoin="round"/>
<path d="M282.836 213.215C282.836 213.215 281.536 220.28 282.115 220.407C282.973 220.51 283.837 220.558 284.701 220.548" stroke="#263238" stroke-linecap="round" stroke-linejoin="round"/>
<path d="M282.695 222.991C282.695 222.991 286.58 223.853 288.587 221.988" stroke="#263238" stroke-linecap="round" stroke-linejoin="round"/>
<path d="M288.149 213.342C288.149 213.935 287.796 214.388 287.471 214.359C287.146 214.331 286.948 213.808 287.004 213.229C287.061 212.65 287.372 212.169 287.697 212.212C288.022 212.254 288.219 212.749 288.149 213.342Z" fill="#263238"/>
<path d="M282.115 212.762C282.115 213.356 281.748 213.808 281.437 213.78C281.126 213.752 280.914 213.243 280.971 212.649C281.027 212.056 281.338 211.604 281.649 211.632C281.96 211.66 282.172 212.169 282.115 212.762Z" fill="#263238"/>
<path d="M279.388 210.614C279.587 210.351 279.842 210.135 280.134 209.982C280.426 209.828 280.749 209.742 281.079 209.728C281.408 209.715 281.737 209.775 282.041 209.903C282.345 210.032 282.616 210.227 282.836 210.473" stroke="#263238" stroke-linecap="round" stroke-linejoin="round"/>
<path d="M285.563 210.332C285.563 210.332 288.304 208.171 289.802 210.474" stroke="#263238" stroke-linecap="round" stroke-linejoin="round"/>
<path d="M277.085 200.695C277.075 200.813 277.075 200.931 277.085 201.049C277.31 201.782 277.713 202.448 278.258 202.988C278.802 203.528 279.472 203.925 280.208 204.143C283.373 205.443 290.848 203.861 293.433 204.722C296.019 205.584 294.846 208.029 293.292 208.891C291.738 209.753 291.427 210.191 292.148 211.194C292.868 212.197 294.592 213.214 294.013 214.359C293.433 215.503 293.151 216.662 294.154 216.803C295.157 216.945 295.878 216.945 296.316 216.38C296.754 215.814 299.622 209.611 299.622 206.022C299.622 202.433 297.898 200.837 293.871 199.254C289.844 197.672 281.494 196.668 279.049 198.11C278.536 198.348 278.089 198.709 277.747 199.159C277.404 199.61 277.177 200.137 277.085 200.695Z" fill="#263238" stroke="#263238" stroke-linecap="round" stroke-linejoin="round"/>
<path d="M293.772 221.947C294.139 222.31 294.617 222.539 295.129 222.598C295.642 222.657 296.159 222.543 296.598 222.272C298.181 221.269 298.902 217.666 297.898 215.801C296.895 213.936 294.875 217.525 294.875 217.525" fill="white"/>
<path d="M293.772 221.947C294.139 222.31 294.617 222.539 295.129 222.598C295.642 222.657 296.159 222.543 296.598 222.272C298.181 221.269 298.902 217.666 297.898 215.801C296.895 213.936 294.875 217.525 294.875 217.525" stroke="#263238" stroke-linecap="round" stroke-linejoin="round"/>
<path d="M287.796 233.645C287.796 233.645 287.513 246.447 288.375 244.949C289.237 243.451 296.429 234.027 296.429 234.027L294.705 228.982L287.796 233.645Z" fill="white" stroke="#263238" stroke-linecap="round" stroke-linejoin="round"/>
<path d="M300.456 247.748L295.567 262.994L304.483 274.298C304.483 274.298 304.921 275.16 305.642 274.156C306.362 273.153 306.927 273.153 308.086 267.685C309.245 262.217 310.912 248.977 310.813 245.812C310.714 242.647 310.092 241.065 307.648 240.641" fill="#263238"/>
<path d="M300.456 247.748L295.567 262.994L304.483 274.298C304.483 274.298 304.921 275.16 305.642 274.156C306.362 273.153 306.927 273.153 308.086 267.685C309.245 262.217 310.912 248.977 310.813 245.812C310.714 242.647 310.092 241.065 307.648 240.641" stroke="#263238" stroke-linecap="round" stroke-linejoin="round"/>
<path d="M273.129 265.439C273.129 265.439 295.426 273.917 298.449 274.072C301.473 274.227 302.18 272.207 300.894 268.42C299.608 264.633 295.708 262.514 292.416 261.511C288.627 260.626 284.68 260.674 280.914 261.652C277.58 262.556 273.129 264.294 273.129 265.439Z" fill="white" stroke="#263238" stroke-linecap="round" stroke-linejoin="round"/>
<path d="M291.681 261.412C291.681 261.412 297.008 272.913 297.333 273.931C297.658 274.948 303.098 275.654 304.822 275.513C306.546 275.372 305.825 272.772 304.101 269.042C302.378 265.311 299.636 261.977 297.63 261.412C295.66 261.097 293.652 261.097 291.681 261.412Z" fill="white" stroke="#263238" stroke-linecap="round" stroke-linejoin="round"/>
<path d="M261.91 257.385C260.046 257.534 258.209 257.919 256.442 258.529C254.421 259.391 253.997 265.439 255.029 267.601C256.06 269.762 259.197 269.748 261.359 269.607C261.969 269.587 262.568 269.435 263.114 269.162C263.661 268.889 264.141 268.501 264.524 268.024L266.106 257.385H261.91Z" fill="#263238" stroke="#263238" stroke-linecap="round" stroke-linejoin="round"/>
<path d="M266.078 257.385C266.078 257.385 282.327 257.385 286.354 257.244C290.381 257.102 291.399 258.106 292.261 259.547C293.122 260.988 293.405 261.553 293.405 261.553C288.306 262.044 283.286 263.155 278.456 264.86C271.829 267.46 266.078 269.749 264.058 269.749C262.037 269.749 261.232 264.577 262.051 260.974C262.219 260.009 262.708 259.129 263.439 258.477C264.17 257.826 265.1 257.441 266.078 257.385Z" fill="white" stroke="#263238" stroke-linecap="round" stroke-linejoin="round"/>
<path d="M261.472 256.381C261.472 256.381 268.381 256.225 268.24 257.525C268.099 258.825 266.827 268.603 266.361 269.465C265.894 270.327 261.768 270.765 259.748 270.624C257.727 270.482 258.448 263.997 259.748 260.973C260.421 259.481 260.997 257.947 261.472 256.381Z" fill="white" stroke="#263238" stroke-linecap="round" stroke-linejoin="round"/>
<path d="M282.045 289.246C282.045 289.246 283.203 290.97 282.765 291.408C282.327 291.846 280.18 293.852 280.321 295.138C280.388 295.886 280.69 296.593 281.183 297.159" stroke="#263238" stroke-linecap="round" stroke-linejoin="round"/>
<path d="M19.9371 392.127H597.676" stroke="#263238" stroke-linecap="round" stroke-linejoin="round"/>
</g>
</svg>
